<svg width="10" height="6" viewBox="0 0 10 6" fill="none" xmlns="http://www.w3.org/2000/svg">
<path d="M1.49738 0.241675L4.73072 3.47501L7.96405 0.241675C8.28905 -0.0833252 8.81405 -0.0833252 9.13905 0.241675C9.46405 0.566675 9.46405 1.09167 9.13905 1.41667L5.31405 5.24167C4.98905 5.56667 4.46405 5.56667 4.13905 5.24167L0.31405 1.41667C0.236787 1.33959 0.175489 1.24801 0.133665 1.1472C0.0918409 1.04639 0.0703125 0.938318 0.0703125 0.829175C0.0703125 0.720031 0.0918409 0.61196 0.133665 0.511148C0.175489 0.410336 0.236787 0.318764 0.31405 0.241675C0.63905 -0.0749919 1.17238 -0.0833252 1.49738 0.241675Z" fill="#384378"/>
</svg>
