<svg width="41" height="41" viewBox="0 0 41 41" fill="none" xmlns="http://www.w3.org/2000/svg">
<g clip-path="url(#clip0_1310_1503)">
<path d="M9 19.4102H32C32.6 19.4102 33 19.8102 33 20.4102C33 21.0102 32.6 21.4102 32 21.4102H9C8.4 21.4102 8 21.0102 8 20.4102C8 19.8102 8.4 19.4102 9 19.4102ZM9 12.4102H32C32.6 12.4102 33 12.8102 33 13.4102C33 14.0102 32.6 14.4102 32 14.4102H9C8.4 14.4102 8 14.0102 8 13.4102C8 12.8102 8.4 12.4102 9 12.4102ZM9 26.4102H32C32.6 26.4102 33 26.8102 33 27.4102C33 28.0102 32.6 28.4102 32 28.4102H9C8.4 28.4102 8 28.0102 8 27.4102C8 26.8102 8.4 26.4102 9 26.4102Z" fill="white"/>
</g>
<defs>
<clipPath id="clip0_1310_1503">
<rect width="25" height="16" fill="white" transform="translate(8 12.4102)"/>
</clipPath>
</defs>
</svg>
