<svg width="153" height="53" viewBox="0 0 153 53" fill="none" xmlns="http://www.w3.org/2000/svg">
<g clip-path="url(#clip0_5_2032)">
<path opacity="0.903" fill-rule="evenodd" clip-rule="evenodd" d="M15.5774 0.0234375C15.6863 0.0234375 15.7952 0.0234375 15.904 0.0234375C15.8179 1.25227 15.7635 2.48604 15.7407 3.72477C15.5591 4.4945 15.1055 5.00252 14.38 5.24885C13.9218 3.29204 14.3208 1.55024 15.5774 0.0234375Z" fill="#FEFFFE"/>
<path opacity="0.906" fill-rule="evenodd" clip-rule="evenodd" d="M137.286 0.0234375C137.359 0.0234375 137.431 0.0234375 137.504 0.0234375C138.78 1.50136 139.196 3.20688 138.756 5.13998C138.711 5.18978 138.657 5.22606 138.592 5.24885C137.65 4.73815 137.214 3.93983 137.286 2.85387C137.426 1.90988 137.426 0.966396 137.286 0.0234375Z" fill="#FEFFFE"/>
<path opacity="0.902" fill-rule="evenodd" clip-rule="evenodd" d="M12.6383 1.87402C12.9035 2.99564 13.1212 4.15683 13.2915 5.35763C13.2517 6.19447 12.8888 6.84764 12.2028 7.31716C11.3636 5.41299 11.5088 3.5986 12.6383 1.87402Z" fill="#FEFFFE"/>
<path opacity="0.897" fill-rule="evenodd" clip-rule="evenodd" d="M140.225 1.87402C140.429 1.91308 140.592 2.02195 140.715 2.20061C141.539 3.81507 141.648 5.4843 141.042 7.20829C140.997 7.25809 140.943 7.29437 140.878 7.31716C140.436 6.97768 140.128 6.54223 139.953 6.0108C140.008 4.63184 140.098 3.25292 140.225 1.87402Z" fill="#FEFFFE"/>
<path opacity="0.947" fill-rule="evenodd" clip-rule="evenodd" d="M56.7276 2.52747C59.616 2.24059 60.8498 3.52879 60.429 6.3921C59.8484 6.46467 59.2677 6.46467 58.6871 6.3921C58.6004 5.98436 58.546 5.56706 58.5239 5.14017C58.389 4.42476 57.9716 4.18889 57.2719 4.43257C56.9453 4.72429 56.764 5.08716 56.7276 5.52119C56.8178 6.11811 57.0174 6.68057 57.3264 7.20857C58.0471 8.18355 58.8092 9.12703 59.6125 10.039C60.6627 11.6343 60.8079 13.3036 60.0479 15.0467C59.1317 15.9788 58.0249 16.2872 56.7276 15.972C55.5714 15.5761 54.9363 14.7596 54.8225 13.5226C54.7499 13.0871 54.7499 12.6517 54.8225 12.2162C55.4394 12.0711 56.0563 12.0711 56.6732 12.2162C56.719 12.6922 56.7916 13.1639 56.8909 13.6315C57.156 14.1457 57.5734 14.309 58.1428 14.1213C58.5446 13.6712 58.6717 13.145 58.5239 12.5428C58.4031 12.0835 58.2218 11.6481 57.9795 11.2365C57.2175 10.293 56.4555 9.34953 55.6934 8.40605C54.661 6.88553 54.5157 5.28887 55.258 3.6161C55.6424 3.1039 56.1323 2.74103 56.7276 2.52747Z" fill="#FEFFFE"/>
<path opacity="0.957" fill-rule="evenodd" clip-rule="evenodd" d="M75.6698 2.52765C76.4777 2.48514 77.2759 2.53957 78.0648 2.69095C79.0421 3.24702 79.532 4.09977 79.5344 5.24922C79.607 5.86611 79.607 6.48299 79.5344 7.09988C78.9094 7.20602 78.2743 7.2423 77.6293 7.20875C77.6523 6.35801 77.5615 5.52339 77.3572 4.70491C76.9588 4.31136 76.5234 4.27506 76.0508 4.59604C75.9449 4.80202 75.8723 5.01975 75.8331 5.24922C75.7605 7.9345 75.7605 10.6198 75.8331 13.3051C75.929 14.0523 76.3463 14.3244 77.085 14.1215C77.1757 14.0308 77.2665 13.9401 77.3572 13.8494C77.5615 13.0308 77.6523 12.1963 77.6293 11.3455C78.2743 11.312 78.9094 11.3483 79.5344 11.4544C79.727 12.8033 79.5093 14.0734 78.8812 15.2646C78.2897 15.8852 77.564 16.1392 76.704 16.0266C75.0811 16.1095 74.1377 15.3474 73.8736 13.7405C73.8009 10.7649 73.8009 7.78934 73.8736 4.81377C74.0146 3.67647 74.6134 2.91443 75.6698 2.52765Z" fill="#FEFFFE"/>
<path opacity="0.947" fill-rule="evenodd" clip-rule="evenodd" d="M101.688 2.52747C104.576 2.24059 105.81 3.52879 105.389 6.3921C104.809 6.46467 104.228 6.46467 103.647 6.3921C103.561 5.98436 103.506 5.56706 103.484 5.14017C103.349 4.42476 102.932 4.18889 102.232 4.43257C101.906 4.72429 101.724 5.08716 101.688 5.52119C101.778 6.11811 101.978 6.68057 102.287 7.20857C103.007 8.18355 103.769 9.12703 104.573 10.039C105.623 11.6343 105.768 13.3036 105.008 15.0467C104.092 15.9788 102.985 16.2872 101.688 15.972C100.532 15.5761 99.8965 14.7596 99.7827 13.5226C99.7101 13.0871 99.7101 12.6517 99.7827 12.2162C100.4 12.0711 101.016 12.0711 101.633 12.2162C101.679 12.6922 101.752 13.1639 101.851 13.6315C102.116 14.1457 102.534 14.309 103.103 14.1213C103.505 13.6712 103.632 13.145 103.484 12.5428C103.363 12.0835 103.182 11.6481 102.94 11.2365C102.178 10.293 101.416 9.34953 100.654 8.40605C99.6212 6.88553 99.476 5.28887 100.218 3.6161C100.603 3.1039 101.092 2.74103 101.688 2.52747Z" fill="#FEFFFE"/>
<path opacity="0.968" fill-rule="evenodd" clip-rule="evenodd" d="M41.0513 2.63668C42.3218 2.61855 43.5919 2.63669 44.8615 2.69111C46.0684 3.10186 46.7034 3.95461 46.7666 5.24938C46.9784 6.55989 46.7789 7.79368 46.1678 8.95071C46.8316 10.5266 46.9948 12.1595 46.6577 13.8495C46.5158 14.879 45.9534 15.5504 44.9703 15.8635C43.6645 15.9179 42.3582 15.9361 41.0513 15.9179C41.0513 11.4908 41.0513 7.06376 41.0513 2.63668ZM43.0108 4.37848C43.4116 4.36049 43.8107 4.37863 44.2083 4.43291C44.3641 4.48355 44.491 4.57428 44.5893 4.70507C44.8781 5.60289 44.9144 6.51009 44.6982 7.42663C44.4672 7.89003 44.0861 8.10776 43.5551 8.07981C43.4034 8.06667 43.2581 8.03039 43.1197 7.97095C43.0109 6.77566 42.9747 5.57817 43.0108 4.37848ZM43.0108 9.82161C43.4116 9.80362 43.8107 9.82177 44.2083 9.87604C44.4603 9.99682 44.6236 10.1964 44.6982 10.4748C44.9565 11.6628 44.884 12.824 44.4804 13.9584C44.3988 14.0265 44.308 14.081 44.2083 14.1217C43.8107 14.176 43.4116 14.1941 43.0108 14.1761C43.0108 12.7247 43.0108 11.2731 43.0108 9.82161Z" fill="#FEFFFE"/>
<path opacity="0.97" fill-rule="evenodd" clip-rule="evenodd" d="M48.563 2.63672C50.1597 2.63672 51.7563 2.63672 53.3529 2.63672C53.3864 3.24563 53.35 3.84438 53.2441 4.43295C52.3376 4.48735 51.4304 4.5055 50.5225 4.48738C50.4864 5.61463 50.5226 6.73955 50.6314 7.86213C51.5325 7.96771 52.4397 8.004 53.3529 7.97099C53.3864 8.5799 53.35 9.17865 53.2441 9.76722C52.3376 9.82162 51.4304 9.83977 50.5225 9.82165C50.5225 11.2369 50.5225 12.6521 50.5225 14.0673C51.4304 14.0492 52.3376 14.0673 53.2441 14.1217C53.35 14.7104 53.3864 15.3091 53.3529 15.918C51.7563 16.0631 50.1597 16.0631 48.563 15.918C48.563 11.4908 48.563 7.0638 48.563 2.63672Z" fill="#FEFFFE"/>
<path opacity="0.971" fill-rule="evenodd" clip-rule="evenodd" d="M61.953 2.63672C63.8399 2.63672 65.7269 2.63672 67.6138 2.63672C67.6319 3.21845 67.6137 3.79906 67.5594 4.37852C66.9708 4.48447 66.372 4.52076 65.7631 4.48738C65.7813 8.26147 65.7631 12.0354 65.7087 15.8091C65.0837 15.9152 64.4486 15.9515 63.8036 15.918C63.8218 12.1802 63.8036 8.44255 63.7492 4.70511C63.1551 4.52601 62.5383 4.41715 61.8985 4.37852C61.8135 3.78884 61.8316 3.20824 61.953 2.63672Z" fill="#FEFFFE"/>
<path opacity="0.966" fill-rule="evenodd" clip-rule="evenodd" d="M81.3306 2.63612C82.7538 2.58792 84.1691 2.64235 85.5762 2.79941C86.3356 3.20981 86.7892 3.84484 86.937 4.70451C87.1021 5.89719 87.1384 7.09468 87.0459 8.29698C86.9875 9.0902 86.6972 9.77966 86.175 10.3654C86.1568 10.4742 86.1387 10.5831 86.1205 10.692C86.4516 12.4011 86.7601 14.1067 87.0459 15.8085C86.4167 15.9508 85.7817 15.9508 85.1408 15.8085C84.8208 14.2882 84.5124 12.7642 84.2154 11.2363C83.9481 11.038 83.6397 10.9654 83.2901 11.0185C83.3083 12.6156 83.2901 14.2122 83.2357 15.8085C82.6107 15.9146 81.9756 15.9509 81.3306 15.9174C81.3306 11.4902 81.3306 7.06321 81.3306 2.63612ZM83.2901 4.37792C83.6909 4.35993 84.09 4.37808 84.4876 4.43235C84.7396 4.55313 84.9029 4.7527 84.9775 5.0311C85.1952 6.22859 85.1952 7.42608 84.9775 8.62357C84.7465 9.08696 84.3654 9.30469 83.8344 9.27674C83.6827 9.2636 83.5374 9.22732 83.399 9.16788C83.2902 7.57288 83.2538 5.97622 83.2901 4.37792Z" fill="#FEFFFE"/>
<path opacity="0.966" fill-rule="evenodd" clip-rule="evenodd" d="M88.7331 2.63611C89.3781 2.60256 90.0133 2.63885 90.6382 2.74498C90.6745 6.26486 90.7108 9.78476 90.7471 13.3047C90.9567 14.1173 91.4285 14.335 92.1623 13.9578C92.3812 13.5151 92.4901 13.0434 92.4889 12.5426C92.5433 9.24065 92.5615 5.93848 92.5433 2.63611C93.1883 2.60256 93.8234 2.63885 94.4484 2.74498C94.521 6.22858 94.521 9.71219 94.4484 13.1958C94.1565 15.4792 92.8683 16.3682 90.5838 15.8629C89.5049 15.5093 88.9061 14.7655 88.7876 13.6312C88.7331 9.96638 88.715 6.30133 88.7331 2.63611Z" fill="#FEFFFE"/>
<path opacity="0.971" fill-rule="evenodd" clip-rule="evenodd" d="M96.2446 2.63611C96.8896 2.60256 97.5247 2.63885 98.1497 2.74498C98.2223 7.09948 98.2223 11.454 98.1497 15.8085C97.5247 15.9146 96.8896 15.9509 96.2446 15.9174C96.2446 11.4902 96.2446 7.0632 96.2446 2.63611Z" fill="#FEFFFE"/>
<path opacity="0.97" fill-rule="evenodd" clip-rule="evenodd" d="M107.131 2.63672C108.728 2.63672 110.324 2.63672 111.921 2.63672C111.955 3.24563 111.918 3.84438 111.812 4.43295C110.905 4.48735 109.998 4.5055 109.09 4.48738C109.054 5.61463 109.09 6.73955 109.199 7.86213C110.101 7.96771 111.007 8.004 111.921 7.97099C111.955 8.5799 111.918 9.17865 111.812 9.76722C110.905 9.82162 109.998 9.83977 109.09 9.82165C109.09 11.2369 109.09 12.6521 109.09 14.0673C109.998 14.0492 110.905 14.0673 111.812 14.1217C111.918 14.7104 111.955 15.3091 111.921 15.918C110.324 16.0631 108.728 16.0631 107.131 15.918C107.131 11.4908 107.131 7.0638 107.131 2.63672Z" fill="#FEFFFE"/>
<path opacity="0.911" fill-rule="evenodd" clip-rule="evenodd" d="M9.91659 3.94238C10.4344 5.19837 10.9606 6.46844 11.4951 7.75258C11.6697 8.65085 11.4702 9.44917 10.8963 10.1476C9.3865 8.26545 9.05991 6.19706 9.91659 3.94238Z" fill="#FEFFFE"/>
<path opacity="0.908" fill-rule="evenodd" clip-rule="evenodd" d="M143.056 3.94238C143.402 4.33845 143.601 4.81018 143.655 5.3576C143.808 7.12716 143.355 8.7238 142.294 10.1476C141.524 9.27804 141.361 8.29827 141.804 7.20826C142.374 6.17641 142.791 5.08778 143.056 3.94238Z" fill="#FEFFFE"/>
<path opacity="0.92" fill-rule="evenodd" clip-rule="evenodd" d="M7.30387 6.2286C7.39928 6.21435 7.47185 6.25064 7.52159 6.33746C8.30178 7.60753 9.08195 8.87759 9.86214 10.1477C10.1394 11.0625 10.0487 11.9334 9.58998 12.7604C7.65195 10.99 6.88991 8.81279 7.30387 6.2286Z" fill="#FEFFFE"/>
<path opacity="0.914" fill-rule="evenodd" clip-rule="evenodd" d="M145.559 6.22852C145.695 6.23694 145.786 6.30951 145.832 6.44624C146.178 8.94861 145.416 11.0533 143.545 12.7603C142.856 11.5242 142.928 10.3267 143.763 9.16781C144.531 8.28611 145.129 7.30634 145.559 6.22852Z" fill="#FEFFFE"/>
<path opacity="0.93" fill-rule="evenodd" clip-rule="evenodd" d="M5.3445 8.8418C6.50666 10.2898 7.7223 11.705 8.9914 13.0874C9.46975 14.104 9.4879 15.12 9.04583 16.1356C7.21416 14.8668 5.99852 13.1612 5.39893 11.0191C5.21758 10.2955 5.19945 9.56978 5.3445 8.8418Z" fill="#FEFFFE"/>
<path opacity="0.924" fill-rule="evenodd" clip-rule="evenodd" d="M147.628 8.8418C147.95 9.97743 147.859 11.1023 147.356 12.2165C146.581 13.8081 145.473 15.1145 144.035 16.1356C143.507 14.6921 143.744 13.3857 144.743 12.2165C145.89 11.2336 146.853 10.1087 147.628 8.8418Z" fill="#FEFFFE"/>
<path opacity="0.926" fill-rule="evenodd" clip-rule="evenodd" d="M3.71144 12.7607C4.08027 13.1689 4.42499 13.6043 4.74564 14.0671C5.69247 14.9775 6.59966 15.921 7.4672 16.8975C8.12481 17.9832 8.21554 19.1082 7.73936 20.2723C5.76851 18.9731 4.44401 17.195 3.76587 14.938C3.59046 14.2138 3.57233 13.4882 3.71144 12.7607Z" fill="#FEFFFE"/>
<path opacity="0.927" fill-rule="evenodd" clip-rule="evenodd" d="M149.261 12.7607C149.328 12.7728 149.383 12.8091 149.424 12.8696C149.601 14.8395 149.057 16.5813 147.791 18.095C147.058 18.9011 146.259 19.6269 145.396 20.2723C144.954 19.0654 145.063 17.9042 145.723 16.7887C146.626 15.7758 147.57 14.796 148.553 13.8494C148.859 13.5267 149.095 13.1638 149.261 12.7607Z" fill="#FEFFFE"/>
<path opacity="0.939" fill-rule="evenodd" clip-rule="evenodd" d="M1.42529 17.0059C2.79206 18.3061 4.27986 19.4492 5.88866 20.435C7.27797 21.555 7.80413 22.9884 7.46717 24.7351C5.69027 23.9012 4.16619 22.74 2.89494 21.2515C1.91798 20.0081 1.4281 18.5929 1.42529 17.0059Z" fill="#FEFFFE"/>
<path opacity="0.939" fill-rule="evenodd" clip-rule="evenodd" d="M151.656 17.0059C151.708 18.3226 151.363 19.5563 150.622 20.7072C149.313 22.4696 147.662 23.8122 145.668 24.7351C145.308 22.8246 145.925 21.3186 147.519 20.2173C149.043 19.3289 150.423 18.2583 151.656 17.0059Z" fill="#FEFFFE"/>
<path opacity="0.962" fill-rule="evenodd" clip-rule="evenodd" d="M68.8114 20.0546C69.5018 20.0366 70.1912 20.0546 70.8798 20.1091C72.071 20.5783 72.6697 21.4673 72.676 22.7762C72.7789 25.683 72.7426 28.5861 72.5671 31.4852C72.4253 32.5147 71.8628 33.1861 70.8798 33.4992C70.1903 33.5718 69.5008 33.5718 68.8114 33.4992C67.7335 33.1466 67.1348 32.4026 67.0152 31.2675C66.9425 28.2919 66.9425 25.3163 67.0152 22.3407C67.1562 21.2035 67.755 20.4414 68.8114 20.0546ZM69.4646 21.9053C69.8768 21.8306 70.2216 21.9395 70.4988 22.2319C70.6266 22.6179 70.6991 23.0171 70.7165 23.4294C70.7891 25.6792 70.7891 27.929 70.7165 30.1789C70.7639 30.7496 70.6007 31.2395 70.2266 31.6485C69.4879 31.8514 69.0706 31.5793 68.9747 30.832C68.9021 28.1467 68.9021 25.4615 68.9747 22.7762C69.0015 22.3946 69.1648 22.1044 69.4646 21.9053Z" fill="#FEFFFE"/>
<path opacity="0.975" fill-rule="evenodd" clip-rule="evenodd" d="M37.5676 20.1634C38.2126 20.1299 38.8477 20.1662 39.4727 20.2723C39.5272 24.0098 39.5453 27.7474 39.5272 31.4852C40.4351 31.4671 41.3422 31.4852 42.2487 31.5396C42.3549 32.1646 42.3911 32.7997 42.3576 33.4447C40.7609 33.4447 39.1643 33.4447 37.5676 33.4447C37.5676 29.0176 37.5676 24.5906 37.5676 20.1634Z" fill="#FEFFFE"/>
<path opacity="0.971" fill-rule="evenodd" clip-rule="evenodd" d="M43.9907 20.1634C44.6357 20.1299 45.2708 20.1662 45.8958 20.2723C45.9684 24.6268 45.9684 28.9813 45.8958 33.3358C45.2708 33.442 44.6357 33.4782 43.9907 33.4447C43.9907 29.0176 43.9907 24.5906 43.9907 20.1634Z" fill="#FEFFFE"/>
<path opacity="0.977" fill-rule="evenodd" clip-rule="evenodd" d="M47.6919 20.1634C48.3008 20.13 48.8995 20.1664 49.4881 20.2723C50.3079 22.4775 51.1063 24.691 51.8831 26.9129C51.9194 24.6994 51.9557 22.4858 51.992 20.2723C52.617 20.1662 53.2521 20.1299 53.8971 20.1634C53.8971 24.5906 53.8971 29.0176 53.8971 33.4447C53.2882 33.4781 52.6895 33.4418 52.1008 33.3358C51.2597 31.1753 50.4614 28.9981 49.7059 26.8041C49.6696 28.9813 49.6332 31.1586 49.597 33.3358C48.972 33.442 48.3369 33.4782 47.6919 33.4447C47.6919 29.0176 47.6919 24.5906 47.6919 20.1634Z" fill="#FEFFFE"/>
<path opacity="0.97" fill-rule="evenodd" clip-rule="evenodd" d="M55.6389 20.1631C57.2356 20.1631 58.8322 20.1631 60.4289 20.1631C60.4623 20.772 60.4259 21.3707 60.32 21.9593C59.4135 22.0138 58.5064 22.0318 57.5984 22.0138C57.5623 23.141 57.5986 24.2659 57.7073 25.3885C58.6085 25.4941 59.5156 25.5303 60.4289 25.4974C60.4623 26.1062 60.4259 26.705 60.32 27.2936C59.4135 27.348 58.5064 27.3661 57.5984 27.348C57.5984 28.7632 57.5984 30.1785 57.5984 31.5937C58.5064 31.5756 59.4135 31.5937 60.32 31.6481C60.4259 32.2367 60.4623 32.8355 60.4289 33.4443C58.8322 33.5894 57.2356 33.5894 55.6389 33.4443C55.6389 29.0172 55.6389 24.5902 55.6389 20.1631Z" fill="#FEFFFE"/>
<path opacity="0.954" fill-rule="evenodd" clip-rule="evenodd" d="M74.0366 20.1636C74.7399 20.0987 75.4111 20.1713 76.0506 20.3814C76.5106 23.1053 76.9823 25.8269 77.4658 28.5461C77.9375 25.7883 78.4093 23.0303 78.881 20.2725C79.507 20.1483 80.1421 20.1302 80.7861 20.2181C80.055 24.6195 79.2566 29.0284 78.3911 33.4449C77.7237 33.5093 77.0887 33.4367 76.486 33.2272C75.6342 28.8778 74.8177 24.5233 74.0366 20.1636Z" fill="#FEFFFE"/>
<path opacity="0.97" fill-rule="evenodd" clip-rule="evenodd" d="M82.3103 20.1631C83.907 20.1631 85.5036 20.1631 87.1003 20.1631C87.1337 20.772 87.0973 21.3707 86.9914 21.9593C86.0849 22.0138 85.1777 22.0318 84.2698 22.0138C84.2337 23.141 84.2699 24.2659 84.3787 25.3885C85.2799 25.4941 86.187 25.5303 87.1003 25.4974C87.1337 26.1062 87.0973 26.705 86.9914 27.2936C86.0849 27.348 85.1777 27.3661 84.2698 27.348C84.2698 28.7632 84.2698 30.1785 84.2698 31.5937C85.1777 31.5756 86.0849 31.5937 86.9914 31.6481C87.0973 32.2367 87.1337 32.8355 87.1003 33.4443C85.5036 33.5894 83.907 33.5894 82.3103 33.4443C82.3103 29.0172 82.3103 24.5902 82.3103 20.1631Z" fill="#FEFFFE"/>
<path opacity="0.966" fill-rule="evenodd" clip-rule="evenodd" d="M88.842 20.1635C90.2653 20.1152 91.6805 20.1697 93.0877 20.3268C93.8471 20.7372 94.3006 21.3722 94.4485 22.2319C94.6136 23.4246 94.6499 24.6221 94.5573 25.8243C94.499 26.6175 94.2086 27.307 93.6864 27.8927C93.6682 28.0016 93.6502 28.1105 93.632 28.2193C93.963 29.9285 94.2716 31.634 94.5573 33.3359C93.9282 33.4781 93.2932 33.4781 92.6522 33.3359C92.3323 31.8156 92.0239 30.2915 91.7269 28.7636C91.4595 28.5654 91.1511 28.4928 90.8016 28.5459C90.8197 30.1429 90.8016 31.7396 90.7471 33.3359C90.1222 33.442 89.4871 33.4783 88.842 33.4447C88.842 29.0176 88.842 24.5906 88.842 20.1635ZM90.8016 21.9053C91.2024 21.8873 91.6015 21.9054 91.9991 21.9597C92.2511 22.0804 92.4144 22.2801 92.4889 22.5585C92.7067 23.7559 92.7067 24.9534 92.4889 26.1509C92.2579 26.6144 91.8769 26.8321 91.3459 26.8041C91.1941 26.7909 91.0489 26.7547 90.9104 26.6952C90.8017 25.1002 90.7653 23.5036 90.8016 21.9053Z" fill="#FEFFFE"/>
<path opacity="0.958" fill-rule="evenodd" clip-rule="evenodd" d="M98.6396 20.1631C99.2565 20.1631 99.8733 20.1631 100.49 20.1631C101.356 24.5795 102.154 28.9885 102.885 33.3899C102.268 33.4625 101.651 33.4625 101.035 33.3899C100.885 32.8748 100.776 32.3486 100.708 31.8114C99.9425 31.7755 99.1804 31.8117 98.4219 31.9203C98.3013 32.3896 98.1925 32.8613 98.0953 33.3355C97.4461 33.4439 96.7929 33.4801 96.1357 33.4443C96.9236 29.0079 97.7581 24.5807 98.6396 20.1631ZM99.5105 25.0619C99.828 26.5845 100.118 28.1267 100.381 29.6886C100.337 29.7914 100.265 29.8641 100.164 29.9063C99.7282 29.9789 99.2928 29.9789 98.8573 29.9063C98.7941 29.8091 98.7577 29.7002 98.7484 29.5797C99.0097 28.0737 99.2638 26.5678 99.5105 25.0619Z" fill="#FEFFFE"/>
<path opacity="0.975" fill-rule="evenodd" clip-rule="evenodd" d="M104.518 20.1634C105.163 20.1299 105.798 20.1662 106.423 20.2723C106.478 24.0098 106.496 27.7474 106.478 31.4852C107.386 31.4671 108.293 31.4852 109.199 31.5396C109.306 32.1646 109.342 32.7997 109.308 33.4447C107.712 33.4447 106.115 33.4447 104.518 33.4447C104.518 29.0176 104.518 24.5906 104.518 20.1634Z" fill="#FEFFFE"/>
<path opacity="0.975" fill-rule="evenodd" clip-rule="evenodd" d="M110.832 20.1634C111.478 20.1299 112.113 20.1662 112.737 20.2723C112.792 24.0098 112.81 27.7474 112.792 31.4852C113.7 31.4671 114.607 31.4852 115.513 31.5396C115.619 32.1646 115.656 32.7997 115.622 33.4447C114.025 33.4447 112.429 33.4447 110.832 33.4447C110.832 29.0176 110.832 24.5906 110.832 20.1634Z" fill="#FEFFFE"/>
<path opacity="0.943" fill-rule="evenodd" clip-rule="evenodd" d="M0.445557 21.7959C1.08176 22.2679 1.73494 22.7216 2.40508 23.1567C3.69254 23.8185 4.96261 24.5079 6.21528 25.2251C7.44933 26.2236 7.9755 27.5118 7.79379 29.0897C5.91318 28.4493 4.22581 27.4877 2.73167 26.2048C1.56746 25.0613 0.805424 23.7006 0.445557 22.1225C0.445557 22.0136 0.445557 21.9048 0.445557 21.7959Z" fill="#FEFFFE"/>
<path opacity="0.938" fill-rule="evenodd" clip-rule="evenodd" d="M152.636 21.7959C152.636 22.0136 152.636 22.2313 152.636 22.4491C151.68 25.238 149.829 27.2157 147.084 28.3821C146.491 28.6398 145.893 28.8757 145.287 29.0897C145.178 27.6011 145.668 26.3492 146.757 25.3339C148.1 24.5167 149.48 23.7547 150.894 23.0478C151.497 22.6561 152.077 22.2389 152.636 21.7959Z" fill="#FEFFFE"/>
<path opacity="0.94" fill-rule="evenodd" clip-rule="evenodd" d="M0.66333 27.2393C2.26994 28.2967 3.97545 29.1858 5.77988 29.9064C7.47532 30.7549 8.38252 32.1338 8.50144 34.0432C5.54694 33.4827 3.20639 31.9767 1.4798 29.5254C1.06666 28.812 0.794503 28.05 0.66333 27.2393Z" fill="#FEFFFE"/>
<path opacity="0.941" fill-rule="evenodd" clip-rule="evenodd" d="M152.309 27.2393C152.331 27.9957 152.131 28.7214 151.71 29.4165C150 31.9046 147.659 33.465 144.688 34.0976C144.696 32.6035 145.276 31.3878 146.43 30.4507C147.823 29.7201 149.238 29.0306 150.676 28.3823C151.266 28.0525 151.81 27.6714 152.309 27.2393Z" fill="#FEFFFE"/>
<path opacity="0.949" fill-rule="evenodd" clip-rule="evenodd" d="M0.445557 32.6826C2.36411 33.5943 4.35992 34.3019 6.433 34.8054C8.46495 35.525 9.57172 36.9221 9.75331 38.9967C7.30628 38.6774 5.07459 37.8246 3.05826 36.4384C2.4958 35.9485 1.96963 35.4224 1.47975 34.8599C1.10475 34.2903 0.760018 33.7097 0.445557 33.1181C0.445557 32.973 0.445557 32.8277 0.445557 32.6826Z" fill="#FEFFFE"/>
<path opacity="0.948" fill-rule="evenodd" clip-rule="evenodd" d="M152.636 32.6826C152.636 32.8641 152.636 33.0455 152.636 33.2269C151.225 35.8871 149.048 37.6108 146.104 38.3979C145.206 38.6464 144.299 38.8461 143.382 38.9967C143.531 37.0193 144.547 35.6585 146.43 34.9143C148.57 34.3525 150.638 33.6086 152.636 32.6826Z" fill="#FEFFFE"/>
<path opacity="0.901" fill-rule="evenodd" clip-rule="evenodd" d="M26.0283 37.1463C28.0667 36.8438 28.8107 37.6783 28.26 39.6501C27.8292 40.4742 27.2667 41.2 26.5726 41.8274C27.2217 41.9358 27.8749 41.9721 28.5321 41.9363C28.5321 42.1902 28.5321 42.4443 28.5321 42.6983C27.3709 42.6983 26.2097 42.6983 25.0485 42.6983C25.0309 42.4776 25.0491 42.2599 25.1029 42.0451C26.0315 41.1653 26.8299 40.1855 27.4979 39.1058C27.6745 38.0945 27.2572 37.7135 26.246 37.9628C25.9701 38.0189 25.7343 38.146 25.5384 38.3438C25.2761 38.1469 25.1673 37.8929 25.2118 37.5818C25.4855 37.418 25.7576 37.2728 26.0283 37.1463Z" fill="#FEFFFE"/>
<path opacity="0.901" fill-rule="evenodd" clip-rule="evenodd" d="M32.9956 37.1463C35.034 36.8438 35.778 37.6783 35.2272 39.6501C34.7965 40.4742 34.234 41.2 33.5399 41.8274C34.189 41.9358 34.8422 41.9721 35.4994 41.9363C35.4994 42.1902 35.4994 42.4443 35.4994 42.6983C34.3382 42.6983 33.177 42.6983 32.0158 42.6983C31.9982 42.4776 32.0163 42.2599 32.0702 42.0451C32.9988 41.1653 33.7972 40.1855 34.4652 39.1058C34.6418 38.0945 34.2245 37.7135 33.2133 37.9628C32.9374 38.0189 32.7016 38.146 32.5057 38.3438C32.2434 38.1469 32.1346 37.8929 32.1791 37.5818C32.4528 37.418 32.7249 37.2728 32.9956 37.1463Z" fill="#FEFFFE"/>
<path opacity="0.881" fill-rule="evenodd" clip-rule="evenodd" d="M73.0569 37.1456C73.9223 37.0274 74.7206 37.1907 75.4518 37.6355C75.3203 37.8805 75.1752 38.1164 75.0164 38.3431C74.3557 37.8459 73.6845 37.8097 73.0024 38.2343C72.7999 38.6129 72.8544 38.9577 73.1657 39.2685C73.7505 39.4362 74.3312 39.6177 74.9075 39.8128C75.2212 39.949 75.4207 40.1848 75.5063 40.5204C75.8181 41.5836 75.4733 42.3276 74.4721 42.7521C73.5262 42.9404 72.6553 42.7771 71.8594 42.2622C71.952 42.0029 72.0971 41.7851 72.2948 41.609C73.0885 42.1634 73.8688 42.1634 74.6354 41.609C74.7642 41.1982 74.6734 40.8534 74.3632 40.5748C73.7219 40.4248 73.105 40.2071 72.5126 39.9216C72.3448 39.7497 72.2178 39.5501 72.1315 39.3229C71.8232 38.3087 72.1317 37.5829 73.0569 37.1456Z" fill="#FEFFFE"/>
<path opacity="0.89" fill-rule="evenodd" clip-rule="evenodd" d="M125.638 37.1457C126.405 37.0606 127.131 37.1876 127.815 37.5268C127.928 37.8329 127.855 38.105 127.597 38.3432C126.874 37.782 126.167 37.782 125.474 38.3432C125.299 39.3846 125.262 40.437 125.366 41.5002C125.732 42.0564 126.222 42.1835 126.835 41.8813C126.998 41.7906 127.126 41.6635 127.216 41.5002C127.271 41.1756 127.288 40.849 127.271 40.5205C126.908 40.5205 126.545 40.5205 126.182 40.5205C126.182 40.2665 126.182 40.0124 126.182 39.7584C126.835 39.7584 127.488 39.7584 128.142 39.7584C128.142 40.7745 128.142 41.7906 128.142 42.8066C127.888 42.8066 127.633 42.8066 127.38 42.8066C127.397 42.6571 127.378 42.5119 127.325 42.3711C126.635 42.8333 125.891 42.9241 125.093 42.6433C124.809 42.4323 124.61 42.1602 124.495 41.8268C124.422 40.6293 124.422 39.4319 124.495 38.2344C124.724 37.6963 125.105 37.3334 125.638 37.1457Z" fill="#FEFFFE"/>
<path opacity="0.893" fill-rule="evenodd" clip-rule="evenodd" d="M43.011 37.3637C43.3447 37.2202 43.6893 37.2202 44.0452 37.3637C44.3802 38.1423 44.743 38.9043 45.1338 39.6498C45.4786 38.8878 45.8232 38.1258 46.168 37.3637C46.4946 37.2186 46.8212 37.2186 47.1478 37.3637C46.6216 38.4886 46.0954 39.6136 45.5693 40.7385C45.5149 41.3907 45.4968 42.0438 45.5148 42.698C45.2245 42.698 44.9343 42.698 44.6439 42.698C44.662 42.0076 44.6439 41.3182 44.5895 40.6296C44.0879 39.5178 43.5617 38.4292 43.011 37.3637Z" fill="#FEFFFE"/>
<path opacity="0.938" fill-rule="evenodd" clip-rule="evenodd" d="M50.4136 37.2549C51.4659 37.2549 52.5182 37.2549 53.5706 37.2549C53.5706 37.5089 53.5706 37.7629 53.5706 38.0169C52.8086 38.0169 52.0465 38.0169 51.2845 38.0169C51.2845 38.525 51.2845 39.0329 51.2845 39.541C51.9014 39.541 52.5182 39.541 53.1351 39.541C53.1351 39.795 53.1351 40.0491 53.1351 40.303C52.5182 40.303 51.9014 40.303 51.2845 40.303C51.2845 40.8474 51.2845 41.3917 51.2845 41.936C52.0465 41.936 52.8086 41.936 53.5706 41.936C53.5706 42.19 53.5706 42.444 53.5706 42.698C52.5182 42.698 51.4659 42.698 50.4136 42.698C50.4136 40.8836 50.4136 39.0693 50.4136 37.2549Z" fill="#FEFFFE"/>
<path opacity="0.891" fill-rule="evenodd" clip-rule="evenodd" d="M58.6871 37.2546C58.9861 37.2205 59.2765 37.2567 59.558 37.3634C60.1432 39.1375 60.7602 40.8974 61.4087 42.6433C61.0821 42.7159 60.7555 42.7159 60.4289 42.6433C60.2291 42.2074 60.084 41.7539 59.9934 41.2825C59.4128 41.4088 58.8321 41.4269 58.2516 41.3369C58.0985 41.7491 57.9534 42.1663 57.8162 42.5888C57.4896 42.734 57.163 42.734 56.8364 42.5888C57.4328 40.7995 58.0497 39.0214 58.6871 37.2546ZM59.0137 38.4521C59.2794 39.0384 59.4971 39.6553 59.6669 40.3027C59.5579 40.5615 59.3583 40.6704 59.0681 40.6293C58.8346 40.6406 58.6349 40.568 58.4694 40.4116C58.6956 39.7696 58.8769 39.1164 59.0137 38.4521Z" fill="#FEFFFE"/>
<path opacity="0.908" fill-rule="evenodd" clip-rule="evenodd" d="M64.5657 37.2548C65.4373 37.2367 66.3082 37.2548 67.1784 37.3093C68.2797 37.9289 68.5519 38.818 67.9948 39.9764C67.7516 40.2159 67.4795 40.4154 67.1784 40.5751C67.4005 41.0012 67.6364 41.4186 67.886 41.8271C68.0807 42.0153 68.3166 42.0879 68.5936 42.0448C68.5936 42.2988 68.5936 42.5528 68.5936 42.8068C68.179 42.8435 67.78 42.7891 67.3961 42.6435C66.9826 42.0892 66.6379 41.4904 66.3619 40.8473C66.0969 40.6815 65.8066 40.5726 65.491 40.5207C65.4366 41.2455 65.4185 41.9713 65.4366 42.698C65.1462 42.698 64.856 42.698 64.5657 42.698C64.5657 40.8835 64.5657 39.0692 64.5657 37.2548ZM65.4366 38.0169C65.8735 37.9988 66.309 38.017 66.7429 38.0713C67.5165 38.5177 67.5891 39.062 66.9607 39.7042C66.4605 39.8813 65.9525 39.8995 65.4366 39.7587C65.4366 39.1781 65.4366 38.5974 65.4366 38.0169Z" fill="#FEFFFE"/>
<path opacity="0.908" fill-rule="evenodd" clip-rule="evenodd" d="M83.3989 37.2548C84.2706 37.2367 85.1415 37.2548 86.0116 37.3093C87.113 37.9289 87.3851 38.818 86.8281 39.9764C86.5849 40.2159 86.3127 40.4154 86.0116 40.5751C86.2337 41.0012 86.4696 41.4186 86.7192 41.8271C86.914 42.0153 87.1499 42.0879 87.4268 42.0448C87.4268 42.2988 87.4268 42.5528 87.4268 42.8068C87.0123 42.8435 86.6132 42.7891 86.2294 42.6435C85.8159 42.0892 85.4711 41.4904 85.1952 40.8473C84.9302 40.6815 84.6399 40.5726 84.3243 40.5207C84.2698 41.2455 84.2518 41.9713 84.2698 42.698C83.9795 42.698 83.6893 42.698 83.3989 42.698C83.3989 40.8835 83.3989 39.0692 83.3989 37.2548ZM84.2698 38.0169C84.7068 37.9988 85.1423 38.017 85.5762 38.0713C86.3498 38.5177 86.4224 39.062 85.7939 39.7042C85.2938 39.8813 84.7857 39.8995 84.2698 39.7587C84.2698 39.1781 84.2698 38.5974 84.2698 38.0169Z" fill="#FEFFFE"/>
<path opacity="0.911" fill-rule="evenodd" clip-rule="evenodd" d="M90.584 37.2549C90.8743 37.2549 91.1645 37.2549 91.4549 37.2549C91.4367 38.7068 91.4549 40.1584 91.5093 41.6094C91.7829 42.0135 92.1639 42.1404 92.6524 41.9904C92.9356 41.8943 93.1715 41.731 93.36 41.5005C93.4144 40.0857 93.4326 38.6705 93.4144 37.2549C93.7047 37.2549 93.995 37.2549 94.2853 37.2549C94.2853 39.0693 94.2853 40.8836 94.2853 42.698C93.995 42.698 93.7047 42.698 93.4144 42.698C93.4306 42.5835 93.4125 42.4746 93.36 42.3714C93.0143 42.7163 92.5971 42.8615 92.108 42.8069C91.3771 42.9092 90.8873 42.6189 90.6384 41.936C90.584 40.3761 90.5658 38.8156 90.584 37.2549Z" fill="#FEFFFE"/>
<path opacity="0.957" fill-rule="evenodd" clip-rule="evenodd" d="M97.8777 37.2546C98.1767 37.2205 98.4671 37.2567 98.7486 37.3634C99.4345 38.5389 100.142 39.7002 100.871 40.847C100.926 39.6501 100.944 38.4526 100.926 37.2546C101.18 37.2546 101.434 37.2546 101.688 37.2546C101.688 39.069 101.688 40.8833 101.688 42.6977C101.389 42.7318 101.098 42.6955 100.817 42.5888C100.131 41.4133 99.4234 40.2521 98.6942 39.1052C98.606 40.2716 98.6242 41.4327 98.7486 42.5888C98.4671 42.6955 98.1767 42.7318 97.8777 42.6977C97.8777 40.8833 97.8777 39.069 97.8777 37.2546Z" fill="#FEFFFE"/>
<path opacity="0.957" fill-rule="evenodd" clip-rule="evenodd" d="M105.171 37.2546C105.47 37.2205 105.761 37.2567 106.042 37.3634C106.728 38.5389 107.436 39.7002 108.165 40.847C108.22 39.6501 108.238 38.4526 108.22 37.2546C108.474 37.2546 108.728 37.2546 108.982 37.2546C108.982 39.069 108.982 40.8833 108.982 42.6977C108.683 42.7318 108.392 42.6955 108.111 42.5888C107.425 41.4133 106.717 40.2521 105.988 39.1052C105.9 40.2716 105.918 41.4327 106.042 42.5888C105.761 42.6955 105.47 42.7318 105.171 42.6977C105.171 40.8833 105.171 39.069 105.171 37.2546Z" fill="#FEFFFE"/>
<path opacity="0.908" fill-rule="evenodd" clip-rule="evenodd" d="M112.574 37.2549C112.865 37.2549 113.154 37.2549 113.445 37.2549C113.445 39.0693 113.445 40.8836 113.445 42.698C113.154 42.698 112.865 42.698 112.574 42.698C112.574 40.8836 112.574 39.0693 112.574 37.2549Z" fill="#FEFFFE"/>
<path opacity="0.957" fill-rule="evenodd" clip-rule="evenodd" d="M117.038 37.2546C117.337 37.2205 117.627 37.2567 117.908 37.3634C118.594 38.5389 119.302 39.7002 120.031 40.847C120.086 39.6501 120.104 38.4526 120.086 37.2546C120.339 37.2546 120.594 37.2546 120.848 37.2546C120.848 39.069 120.848 40.8833 120.848 42.6977C120.548 42.7318 120.259 42.6955 119.977 42.5888C119.291 41.4133 118.583 40.2521 117.854 39.1052C117.766 40.2716 117.784 41.4327 117.908 42.5888C117.627 42.6955 117.337 42.7318 117.038 42.6977C117.038 40.8833 117.038 39.069 117.038 37.2546Z" fill="#FEFFFE"/>
<path opacity="0.954" fill-rule="evenodd" clip-rule="evenodd" d="M1.75195 38.8872C1.79734 38.8193 1.86992 38.783 1.96968 38.7783C4.1503 39.3114 6.36384 39.6199 8.6103 39.7037C10.9013 39.9828 12.4254 41.1984 13.1825 43.3506C10.1436 43.6304 7.27691 43.0681 4.58238 41.6632C3.43653 40.9346 2.49305 40.0092 1.75195 38.8872Z" fill="#FEFFFE"/>
<path opacity="0.953" fill-rule="evenodd" clip-rule="evenodd" d="M150.894 38.7789C151.055 38.7504 151.2 38.7867 151.329 38.8878C150.129 40.6851 148.496 41.9371 146.43 42.6436C144.297 43.31 142.119 43.5096 139.899 43.2423C140.712 41.1402 142.236 39.9608 144.471 39.7043C145.961 39.5849 147.449 39.4397 148.934 39.2688C149.623 39.1934 150.277 39.0301 150.894 38.7789Z" fill="#FEFFFE"/>
<path opacity="0.955" fill-rule="evenodd" clip-rule="evenodd" d="M10.4608 44.0045C12.9584 43.8378 14.8454 44.8176 16.1217 46.9438C14.1353 47.5463 12.1031 47.7459 10.0254 47.5425C7.37527 47.3422 5.16173 46.2717 3.38477 44.3311C4.864 44.3386 6.35178 44.3204 7.84813 44.2767C8.73711 44.2008 9.60801 44.11 10.4608 44.0045Z" fill="#FEFFFE"/>
<path opacity="0.955" fill-rule="evenodd" clip-rule="evenodd" d="M141.641 44.0039C142.876 44.0641 144.11 44.1548 145.342 44.2761C146.804 44.3217 148.255 44.3399 149.696 44.3305C149.17 44.9841 148.552 45.5466 147.846 46.0179C145.401 47.3633 142.788 47.8714 140.008 47.5419C138.975 47.4544 137.958 47.2729 136.959 46.9976C138.03 45.2178 139.59 44.2199 141.641 44.0039Z" fill="#FEFFFE"/>
<path opacity="0.86" fill-rule="evenodd" clip-rule="evenodd" d="M40.0716 46.1816C40.2894 46.1816 40.5071 46.1816 40.7248 46.1816C40.5406 47.6341 40.3411 49.0857 40.1261 50.5361C39.9039 50.6366 39.668 50.6729 39.4185 50.645C39.6363 49.1562 39.854 47.6684 40.0716 46.1816Z" fill="#FEFFFE"/>
<path opacity="0.855" fill-rule="evenodd" clip-rule="evenodd" d="M54.8768 46.1816C55.0945 46.1816 55.3123 46.1816 55.53 46.1816C55.4118 47.0176 55.3211 47.8522 55.2578 48.6855C55.6714 48.381 56.0524 48.0362 56.4009 47.6513C56.6912 47.5787 56.9815 47.5787 57.2718 47.6513C56.8499 48.0914 56.4145 48.5088 55.9654 48.9032C56.1182 49.2706 56.2815 49.6336 56.4553 49.9918C56.5762 50.1592 56.7394 50.2317 56.9452 50.2096C56.908 50.6782 56.6539 50.8415 56.1832 50.6994C56.0834 50.6587 55.9927 50.6043 55.911 50.5361C55.7279 50.1699 55.5464 49.807 55.3667 49.4475C55.0446 49.7303 54.8993 50.0933 54.9312 50.5361C54.7091 50.6366 54.4731 50.6729 54.2236 50.645C54.4415 49.1562 54.6592 47.6684 54.8768 46.1816Z" fill="#FEFFFE"/>
<path opacity="0.86" fill-rule="evenodd" clip-rule="evenodd" d="M58.034 46.1816C58.2518 46.1816 58.4695 46.1816 58.6872 46.1816C58.503 47.6341 58.3035 49.0857 58.0885 50.5361C57.8663 50.6366 57.6304 50.6729 57.3809 50.645C57.5987 49.1562 57.8164 47.6684 58.034 46.1816Z" fill="#FEFFFE"/>
<path opacity="0.885" fill-rule="evenodd" clip-rule="evenodd" d="M75.7786 46.1816C75.9963 46.1816 76.214 46.1816 76.4317 46.1816C76.4317 47.6695 76.4317 49.1572 76.4317 50.645C76.2176 50.671 76.018 50.6348 75.833 50.5361C75.2619 50.8516 74.7176 50.8153 74.2001 50.4273C73.8858 49.6071 73.8495 48.7725 74.0912 47.9234C74.2182 47.7964 74.3452 47.6695 74.4722 47.5424C74.8993 47.4561 75.3166 47.4743 75.7241 47.5969C75.7785 47.1265 75.7966 46.6548 75.7786 46.1816ZM74.9077 48.0323C75.2023 48.0405 75.4926 48.0767 75.7786 48.1412C75.7966 48.7229 75.7785 49.3035 75.7241 49.883C75.4151 50.2061 75.0885 50.2423 74.7444 49.9918C74.4847 49.3013 74.5392 48.6481 74.9077 48.0323Z" fill="#FEFFFE"/>
<path opacity="0.823" fill-rule="evenodd" clip-rule="evenodd" d="M86.1204 46.1811C86.8332 46.1189 87.0328 46.4092 86.7191 47.052C86.5679 47.24 86.3864 47.3852 86.1748 47.4874C85.8372 47.3558 85.819 47.1744 86.1204 46.9431C85.9765 46.6857 85.9765 46.4317 86.1204 46.1811Z" fill="#FEFFFE"/>
<path opacity="0.89" fill-rule="evenodd" clip-rule="evenodd" d="M92.5435 46.1816C92.7612 46.1816 92.9789 46.1816 93.1966 46.1816C93.1786 46.691 93.1967 47.199 93.2511 47.7057C93.8222 47.3902 94.3665 47.4266 94.884 47.8146C95.0375 48.7491 95.0919 49.6925 95.0473 50.645C94.8296 50.645 94.6118 50.645 94.3941 50.645C94.4122 49.9184 94.3941 49.1926 94.3397 48.4678C94.004 47.922 93.6411 47.922 93.2511 48.4678C93.1966 49.1926 93.1786 49.9184 93.1966 50.645C92.9789 50.645 92.7612 50.645 92.5435 50.645C92.5435 49.1572 92.5435 47.6695 92.5435 46.1816Z" fill="#FEFFFE"/>
<path opacity="0.885" fill-rule="evenodd" clip-rule="evenodd" d="M124.44 46.1816C124.658 46.1816 124.876 46.1816 125.093 46.1816C125.093 47.6695 125.093 49.1572 125.093 50.645C124.879 50.671 124.68 50.6348 124.494 50.5361C123.923 50.8516 123.379 50.8153 122.862 50.4273C122.547 49.6071 122.511 48.7725 122.753 47.9234C122.88 47.7964 123.006 47.6695 123.134 47.5424C123.56 47.4561 123.978 47.4743 124.386 47.5969C124.44 47.1265 124.459 46.6548 124.44 46.1816ZM123.569 48.0323C123.864 48.0405 124.154 48.0767 124.44 48.1412C124.459 48.7229 124.44 49.3035 124.386 49.883C124.076 50.2061 123.75 50.2423 123.406 49.9918C123.146 49.3013 123.2 48.6481 123.569 48.0323Z" fill="#FEFFFE"/>
<path opacity="0.803" fill-rule="evenodd" clip-rule="evenodd" d="M99.4018 46.2899C100.018 46.2005 100.199 46.4364 99.9461 46.9975C99.2399 47.1236 99.0586 46.8877 99.4018 46.2899Z" fill="#FEFFFE"/>
<path opacity="0.871" fill-rule="evenodd" clip-rule="evenodd" d="M89.9308 46.3993C90.3677 46.3813 90.8032 46.3994 91.2371 46.4538C91.4366 46.5352 91.618 46.6441 91.7814 46.7804C91.6861 46.953 91.5772 47.1163 91.4548 47.2702C91.0327 46.9998 90.5972 46.9454 90.1485 47.1069C90.0177 47.2052 89.927 47.3322 89.8763 47.488C89.8037 48.2138 89.8037 48.9394 89.8763 49.6652C90.0005 49.9888 90.2365 50.1702 90.5839 50.2095C90.8866 50.1339 91.1769 50.025 91.4548 49.8829C91.5772 50.0369 91.6861 50.2002 91.7814 50.3728C91.219 50.7379 90.6022 50.8468 89.9308 50.6994C89.6224 50.5361 89.3865 50.3002 89.2232 49.9918C89.1505 49.0483 89.1505 48.1049 89.2232 47.1614C89.4076 46.8502 89.6435 46.5963 89.9308 46.3993Z" fill="#FEFFFE"/>
<path opacity="0.904" fill-rule="evenodd" clip-rule="evenodd" d="M24.9397 46.5077C25.9222 46.4715 26.9019 46.5079 27.879 46.6165C27.7978 46.7511 27.7615 46.8963 27.7701 47.052C27.4073 47.052 27.0443 47.052 26.6815 47.052C26.5159 48.247 26.3708 49.4444 26.246 50.6444C25.9921 50.6444 25.738 50.6444 25.484 50.6444C25.6304 49.4562 25.8118 48.2769 26.0283 47.1064C25.6672 47.0522 25.3044 47.034 24.9397 47.052C24.9397 46.8705 24.9397 46.6891 24.9397 46.5077Z" fill="#FEFFFE"/>
<path opacity="0.852" fill-rule="evenodd" clip-rule="evenodd" d="M42.7932 46.5082C43.0472 46.5082 43.3013 46.5082 43.5553 46.5082C43.6782 47.5964 43.8052 48.685 43.9363 49.774C44.1826 49.2707 44.4185 48.7626 44.6439 48.25C44.5066 47.6827 44.3615 47.1203 44.2084 46.5626C44.4262 46.49 44.6439 46.49 44.8616 46.5626C44.9238 46.8468 45.0144 47.119 45.1338 47.3791C45.2608 47.1251 45.3877 46.871 45.5148 46.617C45.7325 46.4719 45.9502 46.4719 46.168 46.617C45.8776 47.1976 45.5874 47.7783 45.2971 48.3588C45.3921 48.7615 45.501 49.1606 45.6236 49.5563C46.0847 48.5621 46.4839 47.5461 46.8211 46.5082C47.085 46.4746 47.339 46.511 47.5832 46.617C47.0026 47.9234 46.4219 49.2297 45.8414 50.5361C45.6236 50.6812 45.4059 50.6812 45.1882 50.5361C45.095 50.0907 44.968 49.6553 44.8072 49.2297C44.5894 49.6652 44.3717 50.1006 44.154 50.5361C43.9318 50.6366 43.6959 50.6728 43.4464 50.6449C43.2522 49.2621 43.0345 47.8831 42.7932 46.5082Z" fill="#FEFFFE"/>
<path opacity="0.892" fill-rule="evenodd" clip-rule="evenodd" d="M63.5859 46.5077C64.2763 46.4897 64.9658 46.5077 65.6543 46.5622C66.3472 46.9155 66.5831 47.478 66.3619 48.2496C66.2447 48.6211 66.0088 48.8933 65.6543 49.066C65.8422 49.4979 66.0963 49.8789 66.4164 50.2091C66.4802 50.1863 66.5346 50.15 66.5797 50.1002C66.6335 50.315 66.6517 50.5327 66.6341 50.7534C66.3271 50.7808 66.0369 50.7264 65.7632 50.5901C65.4226 50.1816 65.1504 49.728 64.9467 49.2293C64.7282 49.1021 64.4924 49.0296 64.2391 49.0116C64.2391 49.5559 64.2391 50.1002 64.2391 50.6445C64.0214 50.6445 63.8037 50.6445 63.5859 50.6445C63.5859 49.2656 63.5859 47.8867 63.5859 46.5077ZM64.2391 47.1609C64.6399 47.143 65.039 47.161 65.4366 47.2154C65.8753 47.6461 65.8391 48.0452 65.3277 48.4128C64.9944 48.4935 64.6678 48.4754 64.348 48.3584C64.2403 47.9657 64.204 47.5665 64.2391 47.1609Z" fill="#FEFFFE"/>
<path opacity="0.856" fill-rule="evenodd" clip-rule="evenodd" d="M109.961 46.5078C110.247 46.4786 110.519 46.5149 110.778 46.6167C111.199 47.9353 111.653 49.2417 112.139 50.5357C111.893 50.6606 111.638 50.6788 111.377 50.5902C111.27 50.2102 111.107 49.8655 110.887 49.556C110.541 49.6964 110.195 49.6964 109.853 49.556C109.66 49.8484 109.514 50.175 109.417 50.5357C109.163 50.6808 108.909 50.6808 108.655 50.5357C109.135 49.2052 109.571 47.8625 109.961 46.5078ZM110.288 47.4876C110.554 47.9556 110.734 48.4636 110.832 49.0116C110.542 49.0116 110.252 49.0116 109.961 49.0116C110.07 48.5036 110.179 47.9956 110.288 47.4876Z" fill="#FEFFFE"/>
<path opacity="0.857" fill-rule="evenodd" clip-rule="evenodd" d="M28.9677 47.4883C29.1492 47.4883 29.3305 47.4883 29.512 47.4883C29.512 47.706 29.512 47.9237 29.512 48.1415C29.1759 48.1281 28.8855 48.2369 28.6411 48.468C28.4588 49.1455 28.3317 49.8349 28.2601 50.5364C28.0379 50.6369 27.802 50.6732 27.5525 50.6453C27.7077 49.631 27.853 48.615 27.9879 47.5971C28.2514 47.5745 28.5054 47.6109 28.75 47.706C28.8612 47.6674 28.9338 47.5947 28.9677 47.4883Z" fill="#FEFFFE"/>
<path opacity="0.841" fill-rule="evenodd" clip-rule="evenodd" d="M30.6005 47.4882C31.0375 47.4701 31.4729 47.4883 31.9069 47.5426C32.1064 47.5971 32.2334 47.7241 32.2879 47.9237C32.3148 48.8059 32.2241 49.6768 32.0157 50.5364C31.5262 50.5131 31.0363 50.5857 30.5461 50.7541C29.8049 50.688 29.5147 50.2889 29.6752 49.5566C29.7521 49.3845 29.8428 49.2212 29.9473 49.0667C30.5312 48.9843 31.0937 48.8574 31.6347 48.6857C31.7084 48.4155 31.6177 48.216 31.3625 48.0869C31.0035 48.0279 30.6587 48.0824 30.3283 48.2502C30.1714 48.1727 30.0807 48.0457 30.0562 47.8692C30.2109 47.6925 30.3924 47.5655 30.6005 47.4882ZM30.7094 49.3389C30.9664 49.3578 31.2204 49.3941 31.4714 49.4477C31.4706 49.8974 31.2348 50.1514 30.7638 50.2098C30.1516 49.966 30.1334 49.6757 30.7094 49.3389Z" fill="#FEFFFE"/>
<path opacity="0.865" fill-rule="evenodd" clip-rule="evenodd" d="M37.0234 47.4882C38.4955 47.2725 39.0398 47.8893 38.6564 49.3389C38.0394 49.3389 37.4226 49.3389 36.8057 49.3389C36.6918 49.8022 36.8551 50.0924 37.2956 50.2098C37.6193 50.1425 37.9279 50.0337 38.2209 49.8832C38.5345 50.191 38.4983 50.4269 38.1121 50.5908C37.4088 50.882 36.7737 50.7913 36.207 50.3187C36.0561 49.6279 36.0923 48.9385 36.3158 48.2503C36.5002 47.9391 36.7361 47.6852 37.0234 47.4882ZM37.35 48.0325C37.903 48.0456 38.157 48.3359 38.1121 48.9034C37.6751 48.9215 37.2396 48.9033 36.8057 48.849C36.8954 48.5036 37.0769 48.2314 37.35 48.0325Z" fill="#FEFFFE"/>
<path opacity="0.865" fill-rule="evenodd" clip-rule="evenodd" d="M48.4541 47.4882C49.9261 47.2725 50.4704 47.8893 50.087 49.3389C49.4701 49.3389 48.8533 49.3389 48.2364 49.3389C48.1225 49.8022 48.2858 50.0924 48.7262 50.2098C49.05 50.1425 49.3585 50.0337 49.6516 49.8832C49.9652 50.191 49.929 50.4269 49.5427 50.5908C48.8395 50.882 48.2044 50.7913 47.6376 50.3187C47.4867 49.6279 47.523 48.9385 47.7465 48.2503C47.9309 47.9391 48.1668 47.6852 48.4541 47.4882ZM48.7807 48.0325C49.3337 48.0456 49.5877 48.3359 49.5427 48.9034C49.1057 48.9215 48.6703 48.9033 48.2364 48.849C48.3261 48.5036 48.5075 48.2314 48.7807 48.0325Z" fill="#FEFFFE"/>
<path opacity="0.865" fill-rule="evenodd" clip-rule="evenodd" d="M51.8288 47.4882C53.3009 47.2725 53.8452 47.8893 53.4618 49.3389C52.8449 49.3389 52.228 49.3389 51.6111 49.3389C51.4973 49.8022 51.6605 50.0924 52.101 50.2098C52.4248 50.1425 52.7333 50.0337 53.0263 49.8832C53.34 50.191 53.3037 50.4269 52.9175 50.5908C52.2142 50.882 51.5791 50.7913 51.0124 50.3187C50.8615 49.6279 50.8977 48.9385 51.1212 48.2503C51.3057 47.9391 51.5416 47.6852 51.8288 47.4882ZM52.1554 48.0325C52.7085 48.0456 52.9624 48.3359 52.9175 48.9034C52.4805 48.9215 52.045 48.9033 51.6111 48.849C51.7008 48.5036 51.8823 48.2314 52.1554 48.0325Z" fill="#FEFFFE"/>
<path opacity="0.873" fill-rule="evenodd" clip-rule="evenodd" d="M67.9405 47.4879C69.392 47.2702 70.0089 47.8871 69.7912 49.3386C69.1742 49.3386 68.5574 49.3386 67.9405 49.3386C67.8989 49.8009 68.0984 50.0913 68.5392 50.2095C68.863 50.1422 69.1715 50.0333 69.4646 49.8829C69.9161 50.3236 69.8073 50.5957 69.138 50.6994C68.5048 50.8527 67.9423 50.7257 67.4506 50.3183C67.2779 49.6045 67.2416 48.8787 67.3417 48.1411C67.4898 47.8664 67.6893 47.6487 67.9405 47.4879ZM68.3759 48.0322C68.9312 48.0524 69.1852 48.3427 69.138 48.9031C68.7388 48.9031 68.3397 48.9031 67.9405 48.9031C67.9163 48.516 68.0614 48.2257 68.3759 48.0322Z" fill="#FEFFFE"/>
<path opacity="0.871" fill-rule="evenodd" clip-rule="evenodd" d="M71.2062 47.4882C71.6432 47.4701 72.0786 47.4883 72.5126 47.5426C72.6684 47.5933 72.7953 47.684 72.8936 47.8148C73.0505 48.7464 73.1049 49.6898 73.0569 50.6452C72.8102 50.6843 72.6107 50.6117 72.4581 50.4275C71.8817 50.8619 71.3012 50.8619 70.7163 50.4275C70.4578 49.9298 70.5122 49.4763 70.8796 49.0667C71.3734 48.9166 71.8815 48.8622 72.4037 48.9034C72.4405 48.6142 72.3679 48.3602 72.186 48.1414C71.7391 48.0764 71.3037 48.0764 70.8796 48.1414C70.8327 48.0551 70.7964 47.9643 70.7708 47.8692C70.8999 47.7155 71.045 47.5885 71.2062 47.4882ZM71.5328 49.3389C71.8274 49.347 72.1177 49.3833 72.4037 49.4477C72.4256 49.8981 72.2079 50.1521 71.7505 50.2098C71.1473 50.0247 71.0748 49.7344 71.5328 49.3389Z" fill="#FEFFFE"/>
<path opacity="0.873" fill-rule="evenodd" clip-rule="evenodd" d="M78.0648 47.4879C79.5162 47.2702 80.1331 47.8871 79.9154 49.3386C79.2985 49.3386 78.6817 49.3386 78.0648 49.3386C78.0232 49.8009 78.2227 50.0913 78.6635 50.2095C78.9873 50.1422 79.2958 50.0333 79.5888 49.8829C80.0404 50.3236 79.9315 50.5957 79.2622 50.6994C78.6291 50.8527 78.0666 50.7257 77.5749 50.3183C77.4022 49.6045 77.3659 48.8787 77.466 48.1411C77.6141 47.8664 77.8136 47.6487 78.0648 47.4879ZM78.5002 48.0322C79.0555 48.0524 79.3095 48.3427 79.2622 48.9031C78.863 48.9031 78.464 48.9031 78.0648 48.9031C78.0406 48.516 78.1857 48.2257 78.5002 48.0322Z" fill="#FEFFFE"/>
<path opacity="0.877" fill-rule="evenodd" clip-rule="evenodd" d="M81.8748 47.4883C82.0199 47.4883 82.1651 47.4883 82.3102 47.4883C82.3465 47.706 82.3828 47.9237 82.4191 48.1415C82.0353 48.1247 81.7268 48.2698 81.4937 48.5769C81.4393 49.2655 81.4212 49.9549 81.4393 50.6453C81.2216 50.6453 81.0039 50.6453 80.7861 50.6453C80.7861 49.6293 80.7861 48.6132 80.7861 47.5971C81.0496 47.5745 81.3036 47.6109 81.5482 47.706C81.6831 47.6579 81.7919 47.5853 81.8748 47.4883Z" fill="#FEFFFE"/>
<path opacity="0.84" fill-rule="evenodd" clip-rule="evenodd" d="M83.6165 47.4879C84.2535 47.398 84.8341 47.525 85.3583 47.8689C85.291 48.0602 85.1639 48.1872 84.9773 48.25C84.6109 48.0284 84.2299 47.9922 83.8343 48.1411C83.6985 48.305 83.6985 48.4683 83.8343 48.631C84.2335 48.7398 84.6326 48.8487 85.0318 48.9576C85.6861 50.0007 85.3958 50.5994 84.1609 50.7538C83.7503 50.7375 83.3693 50.6286 83.0178 50.4272C82.933 50.1653 83.0237 49.9838 83.29 49.8829C83.704 50.186 84.1394 50.2404 84.5963 50.0462C84.7321 49.8835 84.7321 49.7203 84.5963 49.5563C84.2835 49.4175 83.957 49.3268 83.6165 49.2841C83.4221 49.1987 83.2588 49.0718 83.1267 48.9031C82.9354 48.2853 83.0987 47.8136 83.6165 47.4879Z" fill="#FEFFFE"/>
<path opacity="0.863" fill-rule="evenodd" clip-rule="evenodd" d="M96.5714 47.4882C96.9722 47.4702 97.3713 47.4883 97.7689 47.5426C98.0411 47.6696 98.2406 47.8692 98.3677 48.1413C98.4403 48.7945 98.4403 49.4477 98.3677 50.1009C97.9614 50.7046 97.3989 50.9042 96.6803 50.6996C96.3447 50.614 96.1089 50.4145 95.9727 50.1009C95.9001 49.4477 95.9001 48.7945 95.9727 48.1413C96.1207 47.8667 96.3203 47.6489 96.5714 47.4882ZM97.0069 48.0325C97.6304 48.1144 97.8845 48.4773 97.7689 49.1211C97.8767 49.6685 97.6771 50.0314 97.1702 50.2097C96.6632 50.0314 96.4636 49.6685 96.5714 49.1211C96.4916 48.6505 96.6367 48.2876 97.0069 48.0325Z" fill="#FEFFFE"/>
<path opacity="0.843" fill-rule="evenodd" clip-rule="evenodd" d="M101.579 47.4879C102.216 47.398 102.796 47.525 103.321 47.8689C103.216 48.0234 103.126 48.1867 103.049 48.3588C102.105 47.7691 101.615 48.0232 101.579 49.1209C101.593 50.1987 102.065 50.4527 102.994 49.8829C103.227 50.0498 103.299 50.2493 103.212 50.4816C102.461 50.8899 101.753 50.8354 101.089 50.3183C100.916 49.6045 100.88 48.8787 100.98 48.1411C101.128 47.8664 101.328 47.6487 101.579 47.4879Z" fill="#FEFFFE"/>
<path opacity="0.873" fill-rule="evenodd" clip-rule="evenodd" d="M104.627 47.4879C106.078 47.2702 106.695 47.8871 106.478 49.3386C105.861 49.3386 105.244 49.3386 104.627 49.3386C104.585 49.8009 104.785 50.0913 105.226 50.2095C105.55 50.1422 105.858 50.0333 106.151 49.8829C106.603 50.3236 106.494 50.5957 105.824 50.6994C105.191 50.8527 104.629 50.7257 104.137 50.3183C103.964 49.6045 103.928 48.8787 104.028 48.1411C104.176 47.8664 104.376 47.6487 104.627 47.4879ZM105.062 48.0322C105.618 48.0524 105.872 48.3427 105.824 48.9031C105.425 48.9031 105.026 48.9031 104.627 48.9031C104.603 48.516 104.748 48.2257 105.062 48.0322Z" fill="#FEFFFE"/>
<path opacity="0.871" fill-rule="evenodd" clip-rule="evenodd" d="M117.582 47.4882C118.018 47.4701 118.454 47.4883 118.888 47.5426C119.044 47.5933 119.171 47.684 119.269 47.8148C119.426 48.7464 119.48 49.6898 119.432 50.6452C119.185 50.6843 118.986 50.6117 118.834 50.4275C118.258 50.8619 117.677 50.8619 117.092 50.4275C116.834 49.9298 116.888 49.4763 117.255 49.0667C117.749 48.9166 118.257 48.8622 118.779 48.9034C118.816 48.6142 118.743 48.3602 118.562 48.1414C118.115 48.0764 117.68 48.0764 117.255 48.1414C117.208 48.0551 117.172 47.9643 117.146 47.8692C117.276 47.7155 117.421 47.5885 117.582 47.4882ZM117.908 49.3389C118.203 49.347 118.493 49.3833 118.779 49.4477C118.801 49.8981 118.583 50.1521 118.126 50.2098C117.523 50.0247 117.45 49.7344 117.908 49.3389Z" fill="#FEFFFE"/>
<path opacity="0.877" fill-rule="evenodd" clip-rule="evenodd" d="M121.392 47.4883C121.537 47.4883 121.683 47.4883 121.828 47.4883C121.863 47.706 121.9 47.9237 121.936 48.1415C121.552 48.1247 121.244 48.2698 121.011 48.5769C120.957 49.2655 120.938 49.9549 120.957 50.6453C120.739 50.6453 120.521 50.6453 120.303 50.6453C120.303 49.6293 120.303 48.6132 120.303 47.5971C120.567 47.5745 120.821 47.6109 121.066 47.706C121.2 47.6579 121.309 47.5853 121.392 47.4883Z" fill="#FEFFFE"/>
<path opacity="0.84" fill-rule="evenodd" clip-rule="evenodd" d="M126.617 47.4879C127.254 47.398 127.834 47.525 128.359 47.8689C128.292 48.0602 128.164 48.1872 127.978 48.25C127.611 48.0284 127.23 47.9922 126.835 48.1411C126.699 48.305 126.699 48.4683 126.835 48.631C127.235 48.7398 127.633 48.8487 128.033 48.9576C128.687 50.0007 128.396 50.5994 127.162 50.7538C126.751 50.7375 126.37 50.6286 126.019 50.4272C125.934 50.1653 126.024 49.9838 126.291 49.8829C126.704 50.186 127.14 50.2404 127.597 50.0462C127.733 49.8835 127.733 49.7203 127.597 49.5563C127.285 49.4175 126.958 49.3268 126.617 49.2841C126.423 49.1987 126.259 49.0718 126.127 48.9031C125.936 48.2853 126.099 47.8136 126.617 47.4879Z" fill="#FEFFFE"/>
<path opacity="0.855" fill-rule="evenodd" clip-rule="evenodd" d="M33.1042 47.597C33.3538 47.5691 33.5897 47.6054 33.8119 47.7058C33.9296 48.3678 34.0749 49.021 34.2473 49.6654C34.526 48.999 34.8345 48.3458 35.1726 47.7058C35.4192 47.581 35.6732 47.5628 35.9347 47.6514C35.4266 48.6312 34.9187 49.6109 34.4106 50.5907C34.1316 50.6906 33.8957 50.6362 33.703 50.4274C33.4686 49.4899 33.269 48.5465 33.1042 47.597Z" fill="#FEFFFE"/>
<path opacity="0.847" fill-rule="evenodd" clip-rule="evenodd" d="M59.0137 47.597C59.2632 47.5691 59.4991 47.6054 59.7213 47.7058C59.8252 48.3346 59.9704 48.9516 60.1567 49.5565C60.4651 48.9396 60.7737 48.3228 61.0821 47.7058C61.3286 47.581 61.5826 47.5628 61.8441 47.6514C61.2049 48.9119 60.5517 50.1638 59.8846 51.4072C59.638 51.532 59.384 51.5502 59.1225 51.4616C59.3178 51.1254 59.4993 50.7808 59.6668 50.4274C59.4147 49.4914 59.197 48.5479 59.0137 47.597Z" fill="#FEFFFE"/>
<path opacity="0.911" fill-rule="evenodd" clip-rule="evenodd" d="M99.293 47.5967C99.5107 47.5967 99.7284 47.5967 99.9461 47.5967C99.9461 48.6127 99.9461 49.6288 99.9461 50.6448C99.7284 50.6448 99.5107 50.6448 99.293 50.6448C99.293 49.6288 99.293 48.6127 99.293 47.5967Z" fill="#FEFFFE"/>
<path opacity="0.861" fill-rule="evenodd" clip-rule="evenodd" d="M112.248 47.597C112.497 47.5692 112.733 47.6054 112.955 47.7059C113.139 48.3708 113.357 49.024 113.608 49.6654C113.757 49.2545 113.885 48.8371 113.989 48.4135C113.95 48.1674 113.877 47.9316 113.772 47.7059C114.015 47.5999 114.27 47.5635 114.534 47.597C114.645 48.2972 114.808 48.9867 115.024 49.6654C115.212 49.0083 115.412 48.3551 115.622 47.7059C115.868 47.581 116.123 47.5628 116.384 47.6515C116.003 48.6314 115.677 49.6294 115.405 50.6452C115.141 50.6787 114.886 50.6424 114.643 50.5363C114.565 50.187 114.438 49.8604 114.262 49.5566C114.156 49.9114 114.029 50.2562 113.88 50.5908C113.654 50.6787 113.436 50.6605 113.227 50.5363C112.878 49.562 112.551 48.5822 112.248 47.597Z" fill="#FEFFFE"/>
<path opacity="0.958" fill-rule="evenodd" clip-rule="evenodd" d="M15.6864 52.2775C14.5252 52.2775 13.364 52.2775 12.2028 52.2775C10.8723 52.0333 9.60222 51.5797 8.39261 50.9167C8.04741 50.6619 7.72083 50.3897 7.41284 50.1002C8.21047 50.0043 9.00879 49.9137 9.80782 49.8281C11.8603 49.3239 13.9287 48.9067 16.013 48.5762C17.8156 48.661 19.2672 49.4048 20.3675 50.8079C19.8428 51.1651 19.2622 51.4191 18.6257 51.5699C17.6403 51.8426 16.6605 52.0785 15.6864 52.2775Z" fill="#FEFFFE"/>
<path opacity="0.961" fill-rule="evenodd" clip-rule="evenodd" d="M140.878 52.2774C139.754 52.2774 138.628 52.2774 137.504 52.2774C135.856 52.0103 134.259 51.5385 132.714 50.8622C134.381 48.8486 136.487 48.1773 139.028 48.8482C141.201 49.4824 143.415 49.8997 145.668 50.1001C144.786 50.9771 143.734 51.5759 142.511 51.8963C141.951 52.0188 141.406 52.1458 140.878 52.2774Z" fill="#FEFFFE"/>
</g>
<defs>
<clipPath id="clip0_5_2032">
<rect width="152.19" height="52.2541" fill="white" transform="translate(0.5 0.078125)"/>
</clipPath>
</defs>
</svg>
