<svg width="153" height="53" viewBox="0 0 153 53" fill="none" xmlns="http://www.w3.org/2000/svg">
<g clip-path="url(#clip0_5_2221)">
<g clip-path="url(#clip1_5_2221)">
<g clip-path="url(#clip2_5_2221)">
<path opacity="0.903" fill-rule="evenodd" clip-rule="evenodd" d="M15.7674 0.0234375C15.8763 0.0234375 15.9851 0.0234375 16.094 0.0234375C16.0079 1.25227 15.9534 2.48604 15.9307 3.72477C15.749 4.4945 15.2955 5.00252 14.5699 5.24885C14.1117 3.29204 14.5108 1.55024 15.7674 0.0234375Z" fill="#FEFFFE"/>
<path opacity="0.906" fill-rule="evenodd" clip-rule="evenodd" d="M137.476 0.0234375C137.549 0.0234375 137.621 0.0234375 137.694 0.0234375C138.969 1.50136 139.386 3.20688 138.946 5.13998C138.901 5.18978 138.846 5.22606 138.782 5.24885C137.839 4.73815 137.404 3.93983 137.476 2.85387C137.616 1.90988 137.616 0.966396 137.476 0.0234375Z" fill="#FEFFFE"/>
<path opacity="0.902" fill-rule="evenodd" clip-rule="evenodd" d="M12.8282 1.87402C13.0934 2.99564 13.3111 4.15683 13.4814 5.35763C13.4417 6.19447 13.0787 6.84764 12.3928 7.31716C11.5536 5.41299 11.6988 3.5986 12.8282 1.87402Z" fill="#FEFFFE"/>
<path opacity="0.897" fill-rule="evenodd" clip-rule="evenodd" d="M140.415 1.87402C140.619 1.91308 140.782 2.02195 140.905 2.20061C141.729 3.81507 141.838 5.4843 141.232 7.20829C141.187 7.25809 141.133 7.29437 141.068 7.31716C140.626 6.97768 140.318 6.54223 140.143 6.0108C140.197 4.63184 140.288 3.25292 140.415 1.87402Z" fill="#FEFFFE"/>
<path opacity="0.947" fill-rule="evenodd" clip-rule="evenodd" d="M42.3299 2.52747C45.2183 2.24059 46.4521 3.52879 46.0312 6.3921C45.4507 6.46467 44.87 6.46467 44.2894 6.3921C44.2027 5.98436 44.1482 5.56706 44.1262 5.14017C43.9913 4.42476 43.5739 4.18889 42.8742 4.43257C42.5476 4.72429 42.3663 5.08716 42.3299 5.52119C42.4201 6.11811 42.6197 6.68057 42.9287 7.20857C43.6494 8.18355 44.4115 9.12703 45.2148 10.039C46.265 11.6343 46.4102 13.3036 45.6502 15.0467C44.734 15.9788 43.6272 16.2872 42.3299 15.972C41.1737 15.5761 40.5386 14.7596 40.4248 13.5226C40.3522 13.0871 40.3522 12.6517 40.4248 12.2162C41.0417 12.0711 41.6586 12.0711 42.2755 12.2162C42.3213 12.6922 42.3939 13.1639 42.4932 13.6315C42.7583 14.1457 43.1757 14.309 43.7451 14.1213C44.1469 13.6712 44.274 13.145 44.1262 12.5428C44.0054 12.0835 43.8241 11.6481 43.5818 11.2365C42.8198 10.293 42.0578 9.34953 41.2957 8.40605C40.2633 6.88553 40.118 5.28887 40.8603 3.6161C41.2447 3.1039 41.7345 2.74103 42.3299 2.52747Z" fill="#FEFFFE"/>
<path opacity="0.957" fill-rule="evenodd" clip-rule="evenodd" d="M61.1632 2.52765C61.9711 2.48514 62.7694 2.53957 63.5582 2.69095C64.5355 3.24702 65.0254 4.09977 65.0278 5.24922C65.1004 5.86611 65.1004 6.48299 65.0278 7.09988C64.4028 7.20602 63.7677 7.2423 63.1227 7.20875C63.1457 6.35801 63.0549 5.52339 62.8506 4.70491C62.4522 4.31136 62.0168 4.27506 61.5442 4.59604C61.4383 4.80202 61.3657 5.01975 61.3265 5.24922C61.2539 7.9345 61.2539 10.6198 61.3265 13.3051C61.4224 14.0523 61.8397 14.3244 62.5784 14.1215C62.6691 14.0308 62.7599 13.9401 62.8506 13.8494C63.0549 13.0308 63.1457 12.1963 63.1227 11.3455C63.7677 11.312 64.4028 11.3483 65.0278 11.4544C65.2204 12.8033 65.0027 14.0734 64.3746 15.2646C63.7831 15.8852 63.0574 16.1392 62.1974 16.0266C60.5745 16.1095 59.6311 15.3474 59.367 13.7405C59.2943 10.7649 59.2943 7.78934 59.367 4.81377C59.508 3.67647 60.1068 2.91443 61.1632 2.52765Z" fill="#FEFFFE"/>
<path opacity="0.947" fill-rule="evenodd" clip-rule="evenodd" d="M87.1812 2.52747C90.0696 2.24059 91.3034 3.52879 90.8826 6.3921C90.302 6.46467 89.7213 6.46467 89.1408 6.3921C89.054 5.98436 88.9996 5.56706 88.9775 5.14017C88.8426 4.42476 88.4252 4.18889 87.7255 4.43257C87.399 4.72429 87.2176 5.08716 87.1812 5.52119C87.2714 6.11811 87.471 6.68057 87.78 7.20857C88.5008 8.18355 89.2628 9.12703 90.0661 10.039C91.1163 11.6343 91.2615 13.3036 90.5015 15.0467C89.5854 15.9788 88.4786 16.2872 87.1812 15.972C86.025 15.5761 85.3899 14.7596 85.2761 13.5226C85.2035 13.0871 85.2035 12.6517 85.2761 12.2162C85.8931 12.0711 86.5099 12.0711 87.1268 12.2162C87.1726 12.6922 87.2452 13.1639 87.3445 13.6315C87.6096 14.1457 88.027 14.309 88.5964 14.1213C88.9983 13.6712 89.1253 13.145 88.9775 12.5428C88.8567 12.0835 88.6754 11.6481 88.4332 11.2365C87.6711 10.293 86.9091 9.34953 86.147 8.40605C85.1146 6.88553 84.9694 5.28887 85.7116 3.6161C86.096 3.1039 86.5859 2.74103 87.1812 2.52747Z" fill="#FEFFFE"/>
<path opacity="0.968" fill-rule="evenodd" clip-rule="evenodd" d="M26.5449 2.63668C27.8155 2.61855 29.0856 2.63669 30.3551 2.69111C31.5621 3.10186 32.1971 3.95461 32.2602 5.24938C32.4721 6.55989 32.2725 7.79368 31.6615 8.95071C32.3252 10.5266 32.4885 12.1595 32.1513 13.8495C32.0095 14.879 31.447 15.5504 30.464 15.8635C29.1582 15.9179 27.8518 15.9361 26.5449 15.9179C26.5449 11.4908 26.5449 7.06376 26.5449 2.63668ZM28.5044 4.37848C28.9053 4.36049 29.3044 4.37863 29.7019 4.43291C29.8577 4.48355 29.9847 4.57428 30.083 4.70507C30.3718 5.60289 30.408 6.51009 30.1918 7.42663C29.9608 7.89003 29.5798 8.10776 29.0488 8.07981C28.897 8.06667 28.7518 8.03039 28.6133 7.97095C28.5046 6.77566 28.4683 5.57817 28.5044 4.37848ZM28.5044 9.82161C28.9053 9.80362 29.3044 9.82177 29.7019 9.87604C29.954 9.99682 30.1173 10.1964 30.1918 10.4748C30.4502 11.6628 30.3776 12.824 29.9741 13.9584C29.8924 14.0265 29.8017 14.081 29.7019 14.1217C29.3044 14.176 28.9053 14.1941 28.5044 14.1761C28.5044 12.7247 28.5044 11.2731 28.5044 9.82161Z" fill="#FEFFFE"/>
<path opacity="0.97" fill-rule="evenodd" clip-rule="evenodd" d="M34.0564 2.63672C35.6531 2.63672 37.2497 2.63672 38.8464 2.63672C38.8798 3.24563 38.8434 3.84438 38.7375 4.43295C37.831 4.48735 36.9238 4.5055 36.0159 4.48738C35.9798 5.61463 36.016 6.73955 36.1248 7.86213C37.026 7.96771 37.9331 8.004 38.8464 7.97099C38.8798 8.5799 38.8434 9.17865 38.7375 9.76722C37.831 9.82162 36.9238 9.83977 36.0159 9.82165C36.0159 11.2369 36.0159 12.6521 36.0159 14.0673C36.9238 14.0492 37.831 14.0673 38.7375 14.1217C38.8434 14.7104 38.8798 15.3091 38.8464 15.918C37.2497 16.0631 35.6531 16.0631 34.0564 15.918C34.0564 11.4908 34.0564 7.0638 34.0564 2.63672Z" fill="#FEFFFE"/>
<path opacity="0.971" fill-rule="evenodd" clip-rule="evenodd" d="M47.5552 2.63672C49.4422 2.63672 51.3292 2.63672 53.2161 2.63672C53.2342 3.21845 53.216 3.79906 53.1617 4.37852C52.5731 4.48447 51.9743 4.52076 51.3654 4.48738C51.3836 8.26147 51.3654 12.0354 51.311 15.8091C50.686 15.9152 50.0509 15.9515 49.4059 15.918C49.4241 12.1802 49.4059 8.44255 49.3515 4.70511C48.7574 4.52601 48.1406 4.41715 47.5008 4.37852C47.4158 3.78884 47.4339 3.20824 47.5552 2.63672Z" fill="#FEFFFE"/>
<path opacity="0.966" fill-rule="evenodd" clip-rule="evenodd" d="M66.824 2.63612C68.2472 2.58792 69.6625 2.64235 71.0696 2.79941C71.829 3.20981 72.2826 3.84484 72.4304 4.70451C72.5955 5.89719 72.6318 7.09468 72.5393 8.29698C72.4809 9.0902 72.1906 9.77966 71.6684 10.3654C71.6502 10.4742 71.6321 10.5831 71.6139 10.692C71.945 12.4011 72.2535 14.1067 72.5393 15.8085C71.9101 15.9508 71.2752 15.9508 70.6342 15.8085C70.3142 14.2882 70.0058 12.7642 69.7088 11.2363C69.4415 11.038 69.1331 10.9654 68.7835 11.0185C68.8017 12.6156 68.7835 14.2122 68.7291 15.8085C68.1041 15.9146 67.469 15.9509 66.824 15.9174C66.824 11.4902 66.824 7.06321 66.824 2.63612ZM68.7835 4.37792C69.1843 4.35993 69.5834 4.37808 69.981 4.43235C70.233 4.55313 70.3963 4.7527 70.4709 5.0311C70.6886 6.22859 70.6886 7.42608 70.4709 8.62357C70.2399 9.08696 69.8588 9.30469 69.3278 9.27674C69.1761 9.2636 69.0308 9.22732 68.8924 9.16788C68.7836 7.57288 68.7473 5.97622 68.7835 4.37792Z" fill="#FEFFFE"/>
<path opacity="0.966" fill-rule="evenodd" clip-rule="evenodd" d="M74.3354 2.63611C74.9804 2.60256 75.6155 2.63885 76.2405 2.74498C76.2768 6.26486 76.3131 9.78476 76.3494 13.3047C76.559 14.1173 77.0308 14.335 77.7646 13.9578C77.9835 13.5151 78.0924 13.0434 78.0912 12.5426C78.1456 9.24065 78.1638 5.93848 78.1456 2.63611C78.7906 2.60256 79.4257 2.63885 80.0507 2.74498C80.1233 6.22858 80.1233 9.71219 80.0507 13.1958C79.7588 15.4792 78.4706 16.3682 76.1861 15.8629C75.1072 15.5093 74.5084 14.7655 74.3899 13.6312C74.3354 9.96638 74.3173 6.30133 74.3354 2.63611Z" fill="#FEFFFE"/>
<path opacity="0.971" fill-rule="evenodd" clip-rule="evenodd" d="M81.8472 2.63611C82.4922 2.60256 83.1273 2.63885 83.7523 2.74498C83.8249 7.09948 83.8249 11.454 83.7523 15.8085C83.1273 15.9146 82.4922 15.9509 81.8472 15.9174C81.8472 11.4902 81.8472 7.0632 81.8472 2.63611Z" fill="#FEFFFE"/>
<path opacity="0.97" fill-rule="evenodd" clip-rule="evenodd" d="M92.6245 2.63672C94.2212 2.63672 95.8178 2.63672 97.4145 2.63672C97.4479 3.24563 97.4115 3.84438 97.3056 4.43295C96.3991 4.48735 95.492 4.5055 94.584 4.48738C94.5479 5.61463 94.5841 6.73955 94.6929 7.86213C95.5941 7.96771 96.5012 8.004 97.4145 7.97099C97.4479 8.5799 97.4115 9.17865 97.3056 9.76722C96.3991 9.82162 95.492 9.83977 94.584 9.82165C94.584 11.2369 94.584 12.6521 94.584 14.0673C95.492 14.0492 96.3991 14.0673 97.3056 14.1217C97.4115 14.7104 97.4479 15.3091 97.4145 15.918C95.8178 16.0631 94.2212 16.0631 92.6245 15.918C92.6245 11.4908 92.6245 7.0638 92.6245 2.63672Z" fill="#FEFFFE"/>
<path opacity="0.975" fill-rule="evenodd" clip-rule="evenodd" d="M103.837 2.63611C104.482 2.60256 105.118 2.63885 105.742 2.74498C105.797 6.48242 105.815 10.22 105.797 13.9578C106.705 13.9398 107.612 13.9578 108.518 14.0123C108.625 14.6372 108.661 15.2723 108.627 15.9174C107.031 15.9174 105.434 15.9174 103.837 15.9174C103.837 11.4902 103.837 7.0632 103.837 2.63611Z" fill="#FEFFFE"/>
<path opacity="0.971" fill-rule="evenodd" clip-rule="evenodd" d="M110.26 2.63611C110.906 2.60256 111.54 2.63885 112.165 2.74498C112.238 7.09948 112.238 11.454 112.165 15.8085C111.54 15.9146 110.906 15.9509 110.26 15.9174C110.26 11.4902 110.26 7.0632 110.26 2.63611Z" fill="#FEFFFE"/>
<path opacity="0.977" fill-rule="evenodd" clip-rule="evenodd" d="M113.961 2.63611C114.57 2.60274 115.169 2.63903 115.758 2.74498C116.577 4.95022 117.375 7.16375 118.153 9.3856C118.189 7.17206 118.226 4.95851 118.262 2.74498C118.886 2.63885 119.521 2.60256 120.167 2.63611C120.167 7.0632 120.167 11.4902 120.167 15.9174C119.558 15.9508 118.959 15.9144 118.37 15.8085C117.529 13.648 116.731 11.4708 115.975 9.27673C115.939 11.454 115.902 13.6312 115.867 15.8085C115.242 15.9146 114.607 15.9509 113.961 15.9174C113.961 11.4902 113.961 7.0632 113.961 2.63611Z" fill="#FEFFFE"/>
<path opacity="0.97" fill-rule="evenodd" clip-rule="evenodd" d="M122.017 2.63672C123.614 2.63672 125.21 2.63672 126.807 2.63672C126.841 3.24563 126.804 3.84438 126.698 4.43295C125.792 4.48735 124.885 4.5055 123.977 4.48738C123.941 5.61463 123.977 6.73955 124.086 7.86213C124.987 7.96771 125.894 8.004 126.807 7.97099C126.841 8.5799 126.804 9.17865 126.698 9.76722C125.792 9.82162 124.885 9.83977 123.977 9.82165C123.977 11.2369 123.977 12.6521 123.977 14.0673C124.885 14.0492 125.792 14.0673 126.698 14.1217C126.804 14.7104 126.841 15.3091 126.807 15.918C125.21 16.0631 123.614 16.0631 122.017 15.918C122.017 11.4908 122.017 7.0638 122.017 2.63672Z" fill="#FEFFFE"/>
<path opacity="0.911" fill-rule="evenodd" clip-rule="evenodd" d="M10.1065 3.94238C10.6244 5.19837 11.1506 6.46844 11.685 7.75258C11.8597 8.65085 11.6601 9.44917 11.0863 10.1476C9.57644 8.26545 9.24985 6.19706 10.1065 3.94238Z" fill="#FEFFFE"/>
<path opacity="0.908" fill-rule="evenodd" clip-rule="evenodd" d="M143.246 3.94238C143.592 4.33845 143.791 4.81018 143.844 5.3576C143.998 7.12716 143.545 8.7238 142.484 10.1476C141.714 9.27804 141.551 8.29827 141.994 7.20826C142.564 6.17641 142.981 5.08778 143.246 3.94238Z" fill="#FEFFFE"/>
<path opacity="0.92" fill-rule="evenodd" clip-rule="evenodd" d="M7.49381 6.2286C7.58922 6.21435 7.6618 6.25064 7.71154 6.33746C8.49172 7.60753 9.2719 8.87759 10.0521 10.1477C10.3294 11.0625 10.2387 11.9334 9.77993 12.7604C7.84189 10.99 7.07985 8.81279 7.49381 6.2286Z" fill="#FEFFFE"/>
<path opacity="0.914" fill-rule="evenodd" clip-rule="evenodd" d="M145.749 6.22852C145.885 6.23694 145.976 6.30951 146.022 6.44624C146.368 8.94861 145.606 11.0533 143.735 12.7603C143.046 11.5242 143.118 10.3267 143.953 9.16781C144.721 8.28611 145.319 7.30634 145.749 6.22852Z" fill="#FEFFFE"/>
<path opacity="0.93" fill-rule="evenodd" clip-rule="evenodd" d="M5.53444 8.8418C6.6966 10.2898 7.91224 11.705 9.18134 13.0874C9.65969 14.104 9.67784 15.12 9.23577 16.1356C7.4041 14.8668 6.18846 13.1612 5.58887 11.0191C5.40753 10.2955 5.38939 9.56978 5.53444 8.8418Z" fill="#FEFFFE"/>
<path opacity="0.924" fill-rule="evenodd" clip-rule="evenodd" d="M147.818 8.8418C148.14 9.97743 148.049 11.1023 147.546 12.2165C146.77 13.8081 145.663 15.1145 144.225 16.1356C143.697 14.6921 143.934 13.3857 144.933 12.2165C146.08 11.2336 147.043 10.1087 147.818 8.8418Z" fill="#FEFFFE"/>
<path opacity="0.926" fill-rule="evenodd" clip-rule="evenodd" d="M3.90138 12.7607C4.27021 13.1689 4.61493 13.6043 4.93558 14.0671C5.88241 14.9775 6.7896 15.921 7.65715 16.8975C8.31475 17.9832 8.40548 19.1082 7.9293 20.2723C5.95845 18.9731 4.63395 17.195 3.95581 14.938C3.7804 14.2138 3.76227 13.4882 3.90138 12.7607Z" fill="#FEFFFE"/>
<path opacity="0.927" fill-rule="evenodd" clip-rule="evenodd" d="M149.451 12.7607C149.518 12.7728 149.573 12.8091 149.614 12.8696C149.791 14.8395 149.247 16.5813 147.981 18.095C147.248 18.9011 146.449 19.6269 145.586 20.2723C145.144 19.0654 145.253 17.9042 145.913 16.7887C146.816 15.7758 147.76 14.796 148.743 13.8494C149.049 13.5267 149.285 13.1638 149.451 12.7607Z" fill="#FEFFFE"/>
<path opacity="0.939" fill-rule="evenodd" clip-rule="evenodd" d="M1.61523 17.0059C2.98201 18.3061 4.4698 19.4492 6.0786 20.435C7.46791 21.555 7.99407 22.9884 7.65711 24.7351C5.88021 23.9012 4.35613 22.74 3.08488 21.2515C2.10792 20.0081 1.61804 18.5929 1.61523 17.0059Z" fill="#FEFFFE"/>
<path opacity="0.939" fill-rule="evenodd" clip-rule="evenodd" d="M151.846 17.0059C151.898 18.3226 151.553 19.5563 150.812 20.7072C149.503 22.4696 147.852 23.8122 145.858 24.7351C145.498 22.8246 146.115 21.3186 147.709 20.2173C149.233 19.3289 150.612 18.2583 151.846 17.0059Z" fill="#FEFFFE"/>
<path opacity="0.957" fill-rule="evenodd" clip-rule="evenodd" d="M68.348 20.054C69.1559 20.0115 69.9542 20.0659 70.743 20.2173C71.7204 20.7734 72.2102 21.6261 72.2126 22.7756C72.2852 23.3925 72.2852 24.0094 72.2126 24.6263C71.5877 24.7324 70.9525 24.7687 70.3075 24.7351C70.3305 23.8844 70.2397 23.0498 70.0354 22.2313C69.6371 21.8378 69.2016 21.8015 68.729 22.1224C68.6231 22.3284 68.5505 22.5461 68.5113 22.7756C68.4387 25.4609 68.4387 28.1461 68.5113 30.8315C68.6072 31.5787 69.0245 31.8508 69.7632 31.6479C69.8539 31.5572 69.9447 31.4664 70.0354 31.3758C70.2397 30.5572 70.3305 29.7227 70.3075 28.8719C70.9525 28.8384 71.5877 28.8746 72.2126 28.9808C72.4052 30.3297 72.1875 31.5998 71.5595 32.791C70.9679 33.4116 70.2422 33.6656 69.3822 33.553C67.7593 33.6359 66.8159 32.8738 66.5518 31.2669C66.4792 28.2914 66.4792 25.3157 66.5518 22.3402C66.6929 21.2029 67.2916 20.4408 68.348 20.054Z" fill="#FEFFFE"/>
<path opacity="0.971" fill-rule="evenodd" clip-rule="evenodd" d="M24.3677 20.1634C25.0127 20.1299 25.6478 20.1662 26.2728 20.2723C26.3454 24.6268 26.3454 28.9813 26.2728 33.3358C25.6478 33.442 25.0127 33.4782 24.3677 33.4447C24.3677 29.0176 24.3677 24.5906 24.3677 20.1634Z" fill="#FEFFFE"/>
<path opacity="0.977" fill-rule="evenodd" clip-rule="evenodd" d="M28.0688 20.1634C28.6777 20.13 29.2765 20.1664 29.8651 20.2723C30.6848 22.4775 31.4832 24.691 32.2601 26.9129C32.2963 24.6994 32.3327 22.4858 32.3689 20.2723C32.9939 20.1662 33.629 20.1299 34.274 20.1634C34.274 24.5906 34.274 29.0176 34.274 33.4447C33.6652 33.4781 33.0664 33.4418 32.4778 33.3358C31.6366 31.1753 30.8383 28.9981 30.0828 26.8041C30.0466 28.9813 30.0102 31.1586 29.9739 33.3358C29.349 33.442 28.7139 33.4782 28.0688 33.4447C28.0688 29.0176 28.0688 24.5906 28.0688 20.1634Z" fill="#FEFFFE"/>
<path opacity="0.971" fill-rule="evenodd" clip-rule="evenodd" d="M40.4793 20.1631C42.3662 20.1631 44.2533 20.1631 46.1402 20.1631C46.1582 20.7448 46.1401 21.3254 46.0857 21.9049C45.4971 22.0108 44.8984 22.0472 44.2895 22.0138C44.3077 25.7878 44.2895 29.5617 44.2351 33.3355C43.6101 33.4416 42.975 33.4779 42.33 33.4443C42.3482 29.7065 42.33 25.9689 42.2756 22.2315C41.6815 22.0524 41.0647 21.9435 40.4249 21.9049C40.3399 21.3152 40.3579 20.7346 40.4793 20.1631Z" fill="#FEFFFE"/>
<path opacity="0.973" fill-rule="evenodd" clip-rule="evenodd" d="M47.7729 20.1634C48.418 20.1299 49.0531 20.1662 49.678 20.2723C49.6962 21.979 49.7507 23.6845 49.8413 25.3889C50.3433 25.5097 50.8514 25.5279 51.3654 25.4433C51.4198 25.3889 51.4743 25.3344 51.5287 25.28C51.5831 23.5749 51.6013 21.8693 51.5831 20.1634C52.2282 20.1299 52.8633 20.1662 53.4882 20.2723C53.5609 24.6268 53.5609 28.9813 53.4882 33.3358C52.8633 33.442 52.2282 33.4782 51.5831 33.4447C51.6013 31.4848 51.5831 29.5253 51.5287 27.5661C50.963 27.3571 50.3642 27.2845 49.7325 27.3484C49.7507 29.3445 49.7325 31.3404 49.678 33.3358C49.0531 33.442 48.418 33.4782 47.7729 33.4447C47.7729 29.0176 47.7729 24.5906 47.7729 20.1634Z" fill="#FEFFFE"/>
<path opacity="0.97" fill-rule="evenodd" clip-rule="evenodd" d="M55.2847 20.1631C56.8814 20.1631 58.4779 20.1631 60.0746 20.1631C60.108 20.772 60.0717 21.3707 59.9658 21.9593C59.0593 22.0138 58.1521 22.0318 57.2442 22.0138C57.2081 23.141 57.2443 24.2659 57.3531 25.3885C58.2542 25.4941 59.1614 25.5303 60.0746 25.4974C60.108 26.1062 60.0717 26.705 59.9658 27.2936C59.0593 27.348 58.1521 27.3661 57.2442 27.348C57.2442 28.7632 57.2442 30.1785 57.2442 31.5937C58.1521 31.5756 59.0593 31.5937 59.9658 31.6481C60.0717 32.2367 60.108 32.8355 60.0746 33.4443C58.4779 33.5894 56.8814 33.5894 55.2847 33.4443C55.2847 29.0172 55.2847 24.5902 55.2847 20.1631Z" fill="#FEFFFE"/>
<path opacity="0.958" fill-rule="evenodd" clip-rule="evenodd" d="M76.0773 20.1631C76.6943 20.1631 77.3111 20.1631 77.928 20.1631C78.7935 24.5795 79.5918 28.9885 80.323 33.3899C79.706 33.4625 79.0892 33.4625 78.4723 33.3899C78.3228 32.8748 78.214 32.3486 78.1457 31.8114C77.3802 31.7755 76.6182 31.8117 75.8596 31.9203C75.7391 32.3896 75.6302 32.8613 75.533 33.3355C74.8839 33.4439 74.2307 33.4801 73.5735 33.4443C74.3613 29.0079 75.1959 24.5807 76.0773 20.1631ZM76.9482 25.0619C77.2658 26.5845 77.5561 28.1267 77.8191 29.6886C77.775 29.7914 77.7024 29.8641 77.6014 29.9063C77.166 29.9789 76.7305 29.9789 76.2951 29.9063C76.2318 29.8091 76.1954 29.7002 76.1862 29.5797C76.4475 28.0737 76.7015 26.5678 76.9482 25.0619Z" fill="#FEFFFE"/>
<path opacity="0.966" fill-rule="evenodd" clip-rule="evenodd" d="M81.9558 20.1635C83.3791 20.1152 84.7943 20.1697 86.2015 20.3268C86.9609 20.7372 87.4144 21.3722 87.5622 22.2319C87.7274 23.4246 87.7636 24.6221 87.6711 25.8243C87.6128 26.6175 87.3224 27.307 86.8002 27.8927C86.782 28.0016 86.7639 28.1105 86.7458 28.2193C87.0768 29.9285 87.3853 31.634 87.6711 33.3359C87.042 33.4781 86.407 33.4781 85.766 33.3359C85.4461 31.8156 85.1376 30.2915 84.8407 28.7636C84.5733 28.5654 84.2649 28.4928 83.9153 28.5459C83.9335 30.1429 83.9153 31.7396 83.8609 33.3359C83.2359 33.442 82.6008 33.4783 81.9558 33.4447C81.9558 29.0176 81.9558 24.5906 81.9558 20.1635ZM83.9153 21.9053C84.3162 21.8873 84.7153 21.9054 85.1128 21.9597C85.3648 22.0804 85.5281 22.2801 85.6027 22.5585C85.8204 23.7559 85.8204 24.9534 85.6027 26.1509C85.3717 26.6144 84.9907 26.8321 84.4597 26.8041C84.3079 26.7909 84.1627 26.7547 84.0242 26.6952C83.9154 25.1002 83.8791 23.5036 83.9153 21.9053Z" fill="#FEFFFE"/>
<path opacity="0.971" fill-rule="evenodd" clip-rule="evenodd" d="M89.4675 20.1634C90.1125 20.1299 90.7476 20.1662 91.3726 20.2723C91.4452 24.6268 91.4452 28.9813 91.3726 33.3358C90.7476 33.442 90.1125 33.4782 89.4675 33.4447C89.4675 29.0176 89.4675 24.5906 89.4675 20.1634Z" fill="#FEFFFE"/>
<path opacity="0.968" fill-rule="evenodd" clip-rule="evenodd" d="M93.1687 20.1631C94.4392 20.1449 95.7093 20.1631 96.9789 20.2175C98.1859 20.6282 98.8209 21.481 98.884 22.7758C99.0958 24.0863 98.8963 25.3201 98.2852 26.4771C98.949 28.053 99.1123 29.6859 98.7751 31.3759C98.6333 32.4054 98.0708 33.0768 97.0878 33.3899C95.7819 33.4443 94.4756 33.4625 93.1687 33.4443C93.1687 29.0172 93.1687 24.5902 93.1687 20.1631ZM95.1282 21.9049C95.5291 21.8869 95.9282 21.905 96.3257 21.9593C96.4815 22.0099 96.6084 22.1007 96.7067 22.2315C96.9956 23.1293 97.0318 24.0365 96.8156 24.953C96.5846 25.4165 96.2036 25.6342 95.6725 25.6062C95.5208 25.593 95.3756 25.5568 95.2371 25.4973C95.1283 24.302 95.0921 23.1045 95.1282 21.9049ZM95.1282 27.348C95.5291 27.33 95.9282 27.3481 96.3257 27.4024C96.5777 27.5232 96.741 27.7228 96.8156 28.0012C97.0739 29.1892 97.0014 30.3504 96.5979 31.4848C96.5162 31.5529 96.4254 31.6074 96.3257 31.6481C95.9282 31.7024 95.5291 31.7205 95.1282 31.7025C95.1282 30.251 95.1282 28.7995 95.1282 27.348Z" fill="#FEFFFE"/>
<path opacity="0.968" fill-rule="evenodd" clip-rule="evenodd" d="M100.572 20.1631C101.842 20.1449 103.112 20.1631 104.382 20.2175C105.589 20.6282 106.224 21.481 106.287 22.7758C106.499 24.0863 106.299 25.3201 105.688 26.4771C106.352 28.053 106.515 29.6859 106.178 31.3759C106.036 32.4054 105.474 33.0768 104.491 33.3899C103.185 33.4443 101.878 33.4625 100.572 33.4443C100.572 29.0172 100.572 24.5902 100.572 20.1631ZM102.531 21.9049C102.932 21.8869 103.331 21.905 103.729 21.9593C103.884 22.0099 104.011 22.1007 104.11 22.2315C104.398 23.1293 104.435 24.0365 104.218 24.953C103.987 25.4165 103.606 25.6342 103.075 25.6062C102.924 25.593 102.778 25.5568 102.64 25.4973C102.531 24.302 102.495 23.1045 102.531 21.9049ZM102.531 27.348C102.932 27.33 103.331 27.3481 103.729 27.4024C103.981 27.5232 104.144 27.7228 104.218 28.0012C104.477 29.1892 104.404 30.3504 104.001 31.4848C103.919 31.5529 103.828 31.6074 103.729 31.6481C103.331 31.7024 102.932 31.7205 102.531 31.7025C102.531 30.251 102.531 28.7995 102.531 27.348Z" fill="#FEFFFE"/>
<path opacity="0.97" fill-rule="evenodd" clip-rule="evenodd" d="M108.083 20.1631C109.68 20.1631 111.276 20.1631 112.873 20.1631C112.907 20.772 112.87 21.3707 112.764 21.9593C111.857 22.0138 110.95 22.0318 110.043 22.0138C110.007 23.141 110.043 24.2659 110.151 25.3885C111.053 25.4941 111.96 25.5303 112.873 25.4974C112.907 26.1062 112.87 26.705 112.764 27.2936C111.857 27.348 110.95 27.3661 110.043 27.348C110.043 28.7632 110.043 30.1785 110.043 31.5937C110.95 31.5756 111.857 31.5937 112.764 31.6481C112.87 32.2367 112.907 32.8355 112.873 33.4443C111.276 33.5894 109.68 33.5894 108.083 33.4443C108.083 29.0172 108.083 24.5902 108.083 20.1631Z" fill="#FEFFFE"/>
<path opacity="0.958" fill-rule="evenodd" clip-rule="evenodd" d="M116.901 20.1631C117.518 20.1631 118.134 20.1631 118.751 20.1631C119.617 24.5795 120.415 28.9885 121.146 33.3899C120.529 33.4625 119.913 33.4625 119.296 33.3899C119.147 32.8748 119.038 32.3486 118.969 31.8114C118.204 31.7755 117.442 31.8117 116.683 31.9203C116.562 32.3896 116.453 32.8613 116.357 33.3355C115.708 33.4439 115.055 33.4801 114.397 33.4443C115.185 29.0079 116.019 24.5807 116.901 20.1631ZM117.772 25.0619C118.09 26.5845 118.379 28.1267 118.643 29.6886C118.598 29.7914 118.526 29.8641 118.425 29.9063C117.989 29.9789 117.554 29.9789 117.119 29.9063C117.055 29.8091 117.019 29.7002 117.01 29.5797C117.271 28.0737 117.525 26.5678 117.772 25.0619Z" fill="#FEFFFE"/>
<path opacity="0.977" fill-rule="evenodd" clip-rule="evenodd" d="M122.779 20.1634C123.388 20.13 123.987 20.1664 124.576 20.2723C125.395 22.4775 126.193 24.691 126.971 26.9129C127.006 24.6994 127.043 22.4858 127.079 20.2723C127.704 20.1662 128.339 20.1299 128.984 20.1634C128.984 24.5906 128.984 29.0176 128.984 33.4447C128.376 33.4781 127.777 33.4418 127.188 33.3358C126.347 31.1753 125.549 28.9981 124.793 26.8041C124.757 28.9813 124.72 31.1586 124.684 33.3358C124.06 33.442 123.425 33.4782 122.779 33.4447C122.779 29.0176 122.779 24.5906 122.779 20.1634Z" fill="#FEFFFE"/>
<path opacity="0.943" fill-rule="evenodd" clip-rule="evenodd" d="M0.635498 21.7959C1.2717 22.2679 1.92488 22.7216 2.59503 23.1567C3.88248 23.8185 5.15255 24.5079 6.40522 25.2251C7.63928 26.2236 8.16544 27.5118 7.98373 29.0897C6.10313 28.4493 4.41575 27.4877 2.92161 26.2048C1.7574 25.0613 0.995365 23.7006 0.635498 22.1225C0.635498 22.0136 0.635498 21.9048 0.635498 21.7959Z" fill="#FEFFFE"/>
<path opacity="0.938" fill-rule="evenodd" clip-rule="evenodd" d="M152.825 21.7959C152.825 22.0136 152.825 22.2313 152.825 22.4491C151.87 25.238 150.019 27.2157 147.273 28.3821C146.681 28.6398 146.083 28.8757 145.477 29.0897C145.368 27.6011 145.858 26.3492 146.947 25.3339C148.29 24.5167 149.67 23.7547 151.084 23.0478C151.687 22.6561 152.267 22.2389 152.825 21.7959Z" fill="#FEFFFE"/>
<path opacity="0.94" fill-rule="evenodd" clip-rule="evenodd" d="M0.853271 27.2393C2.45988 28.2967 4.1654 29.1858 5.96982 29.9064C7.66527 30.7549 8.57246 32.1338 8.69138 34.0432C5.73688 33.4827 3.39634 31.9767 1.66974 29.5254C1.2566 28.812 0.984444 28.05 0.853271 27.2393Z" fill="#FEFFFE"/>
<path opacity="0.941" fill-rule="evenodd" clip-rule="evenodd" d="M152.499 27.2393C152.521 27.9957 152.321 28.7214 151.9 29.4165C150.19 31.9046 147.849 33.465 144.878 34.0976C144.886 32.6035 145.466 31.3878 146.62 30.4507C148.013 29.7201 149.428 29.0306 150.866 28.3823C151.456 28.0525 152 27.6714 152.499 27.2393Z" fill="#FEFFFE"/>
<path opacity="0.949" fill-rule="evenodd" clip-rule="evenodd" d="M0.635498 32.6826C2.55405 33.5943 4.54986 34.3019 6.62294 34.8054C8.65489 35.525 9.76166 36.9221 9.94326 38.9967C7.49622 38.6774 5.26453 37.8246 3.2482 36.4384C2.68574 35.9485 2.15958 35.4224 1.66969 34.8599C1.29469 34.2903 0.94996 33.7097 0.635498 33.1181C0.635498 32.973 0.635498 32.8277 0.635498 32.6826Z" fill="#FEFFFE"/>
<path opacity="0.948" fill-rule="evenodd" clip-rule="evenodd" d="M152.826 32.6826C152.826 32.8641 152.826 33.0455 152.826 33.2269C151.415 35.8871 149.237 37.6108 146.294 38.3979C145.396 38.6464 144.489 38.8461 143.572 38.9967C143.721 37.0193 144.737 35.6585 146.62 34.9143C148.76 34.3525 150.828 33.6086 152.826 32.6826Z" fill="#FEFFFE"/>
<path opacity="0.901" fill-rule="evenodd" clip-rule="evenodd" d="M26.2182 37.1463C28.2567 36.8438 29.0006 37.6783 28.4499 39.6501C28.0191 40.4742 27.4566 41.2 26.7625 41.8274C27.4117 41.9358 28.0648 41.9721 28.7221 41.9363C28.7221 42.1902 28.7221 42.4443 28.7221 42.6983C27.5608 42.6983 26.3997 42.6983 25.2384 42.6983C25.2208 42.4776 25.239 42.2599 25.2929 42.0451C26.2215 41.1653 27.0199 40.1855 27.6879 39.1058C27.8644 38.0945 27.4472 37.7135 26.4359 37.9628C26.1601 38.0189 25.9243 38.146 25.7283 38.3438C25.4661 38.1469 25.3572 37.8929 25.4017 37.5818C25.6754 37.418 25.9476 37.2728 26.2182 37.1463Z" fill="#FEFFFE"/>
<path opacity="0.901" fill-rule="evenodd" clip-rule="evenodd" d="M33.1855 37.1463C35.224 36.8438 35.9679 37.6783 35.4172 39.6501C34.9864 40.4742 34.4239 41.2 33.7298 41.8274C34.379 41.9358 35.0321 41.9721 35.6893 41.9363C35.6893 42.1902 35.6893 42.4443 35.6893 42.6983C34.5281 42.6983 33.367 42.6983 32.2057 42.6983C32.1881 42.4776 32.2063 42.2599 32.2602 42.0451C33.1888 41.1653 33.9872 40.1855 34.6551 39.1058C34.8317 38.0945 34.4144 37.7135 33.4032 37.9628C33.1274 38.0189 32.8916 38.146 32.6956 38.3438C32.4334 38.1469 32.3245 37.8929 32.369 37.5818C32.6427 37.418 32.9149 37.2728 33.1855 37.1463Z" fill="#FEFFFE"/>
<path opacity="0.881" fill-rule="evenodd" clip-rule="evenodd" d="M73.2468 37.1456C74.1123 37.0274 74.9106 37.1907 75.6418 37.6355C75.5103 37.8805 75.3652 38.1164 75.2063 38.3431C74.5456 37.8459 73.8744 37.8097 73.1924 38.2343C72.9899 38.6129 73.0443 38.9577 73.3557 39.2685C73.9405 39.4362 74.5212 39.6177 75.0975 39.8128C75.4111 39.949 75.6106 40.1848 75.6962 40.5204C76.008 41.5836 75.6632 42.3276 74.662 42.7521C73.7161 42.9404 72.8452 42.7771 72.0493 42.2622C72.142 42.0029 72.2871 41.7851 72.4848 41.609C73.2785 42.1634 74.0587 42.1634 74.8253 41.609C74.9541 41.1982 74.8633 40.8534 74.5532 40.5748C73.9118 40.4248 73.2949 40.2071 72.7025 39.9216C72.5347 39.7497 72.4077 39.5501 72.3215 39.3229C72.0132 38.3087 72.3217 37.5829 73.2468 37.1456Z" fill="#FEFFFE"/>
<path opacity="0.89" fill-rule="evenodd" clip-rule="evenodd" d="M125.828 37.1457C126.595 37.0606 127.321 37.1876 128.005 37.5268C128.118 37.8329 128.045 38.105 127.787 38.3432C127.064 37.782 126.357 37.782 125.664 38.3432C125.489 39.3846 125.452 40.437 125.555 41.5002C125.922 42.0564 126.412 42.1835 127.025 41.8813C127.188 41.7906 127.316 41.6635 127.406 41.5002C127.461 41.1756 127.478 40.849 127.461 40.5205C127.098 40.5205 126.734 40.5205 126.372 40.5205C126.372 40.2665 126.372 40.0124 126.372 39.7584C127.025 39.7584 127.678 39.7584 128.331 39.7584C128.331 40.7745 128.331 41.7906 128.331 42.8066C128.078 42.8066 127.823 42.8066 127.569 42.8066C127.587 42.6571 127.568 42.5119 127.515 42.3711C126.825 42.8333 126.081 42.9241 125.283 42.6433C124.999 42.4323 124.8 42.1602 124.685 41.8268C124.612 40.6293 124.612 39.4319 124.685 38.2344C124.914 37.6963 125.295 37.3334 125.828 37.1457Z" fill="#FEFFFE"/>
<path opacity="0.893" fill-rule="evenodd" clip-rule="evenodd" d="M43.2009 37.3637C43.5346 37.2202 43.8793 37.2202 44.2351 37.3637C44.5701 38.1423 44.9329 38.9043 45.3237 39.6498C45.6685 38.8878 46.0132 38.1258 46.3579 37.3637C46.6845 37.2186 47.0111 37.2186 47.3377 37.3637C46.8116 38.4886 46.2853 39.6136 45.7592 40.7385C45.7049 41.3907 45.6867 42.0438 45.7048 42.698C45.4144 42.698 45.1242 42.698 44.8339 42.698C44.8519 42.0076 44.8339 41.3182 44.7794 40.6296C44.2778 39.5178 43.7517 38.4292 43.2009 37.3637Z" fill="#FEFFFE"/>
<path opacity="0.938" fill-rule="evenodd" clip-rule="evenodd" d="M50.6035 37.2549C51.6559 37.2549 52.7082 37.2549 53.7605 37.2549C53.7605 37.5089 53.7605 37.7629 53.7605 38.0169C52.9985 38.0169 52.2365 38.0169 51.4744 38.0169C51.4744 38.525 51.4744 39.0329 51.4744 39.541C52.0913 39.541 52.7082 39.541 53.3251 39.541C53.3251 39.795 53.3251 40.0491 53.3251 40.303C52.7082 40.303 52.0913 40.303 51.4744 40.303C51.4744 40.8474 51.4744 41.3917 51.4744 41.936C52.2365 41.936 52.9985 41.936 53.7605 41.936C53.7605 42.19 53.7605 42.444 53.7605 42.698C52.7082 42.698 51.6559 42.698 50.6035 42.698C50.6035 40.8836 50.6035 39.0693 50.6035 37.2549Z" fill="#FEFFFE"/>
<path opacity="0.891" fill-rule="evenodd" clip-rule="evenodd" d="M58.877 37.2546C59.1761 37.2205 59.4664 37.2567 59.7479 37.3634C60.3332 39.1375 60.9501 40.8974 61.5986 42.6433C61.272 42.7159 60.9454 42.7159 60.6188 42.6433C60.4191 42.2074 60.274 41.7539 60.1834 41.2825C59.6027 41.4088 59.022 41.4269 58.4416 41.3369C58.2884 41.7491 58.1433 42.1663 58.0061 42.5888C57.6795 42.734 57.353 42.734 57.0264 42.5888C57.6227 40.7995 58.2396 39.0214 58.877 37.2546ZM59.2036 38.4521C59.4694 39.0384 59.6871 39.6553 59.8568 40.3027C59.7478 40.5615 59.5483 40.6704 59.2581 40.6293C59.0245 40.6406 58.8249 40.568 58.6593 40.4116C58.8855 39.7696 59.0669 39.1164 59.2036 38.4521Z" fill="#FEFFFE"/>
<path opacity="0.908" fill-rule="evenodd" clip-rule="evenodd" d="M64.7556 37.2548C65.6273 37.2367 66.4982 37.2548 67.3683 37.3093C68.4697 37.9289 68.7418 38.818 68.1848 39.9764C67.9416 40.2159 67.6694 40.4154 67.3683 40.5751C67.5904 41.0012 67.8263 41.4186 68.0759 41.8271C68.2707 42.0153 68.5066 42.0879 68.7835 42.0448C68.7835 42.2988 68.7835 42.5528 68.7835 42.8068C68.369 42.8435 67.9699 42.7891 67.586 42.6435C67.1726 42.0892 66.8278 41.4904 66.5518 40.8473C66.2869 40.6815 65.9965 40.5726 65.6809 40.5207C65.6265 41.2455 65.6084 41.9713 65.6265 42.698C65.3362 42.698 65.046 42.698 64.7556 42.698C64.7556 40.8835 64.7556 39.0692 64.7556 37.2548ZM65.6265 38.0169C66.0635 37.9988 66.4989 38.017 66.9329 38.0713C67.7064 38.5177 67.7791 39.062 67.1506 39.7042C66.6505 39.8813 66.1424 39.8995 65.6265 39.7587C65.6265 39.1781 65.6265 38.5974 65.6265 38.0169Z" fill="#FEFFFE"/>
<path opacity="0.908" fill-rule="evenodd" clip-rule="evenodd" d="M83.5889 37.2548C84.4605 37.2367 85.3314 37.2548 86.2016 37.3093C87.3029 37.9289 87.5751 38.818 87.018 39.9764C86.7748 40.2159 86.5027 40.4154 86.2016 40.5751C86.4237 41.0012 86.6596 41.4186 86.9092 41.8271C87.1039 42.0153 87.3398 42.0879 87.6168 42.0448C87.6168 42.2988 87.6168 42.5528 87.6168 42.8068C87.2022 42.8435 86.8031 42.7891 86.4193 42.6435C86.0058 42.0892 85.6611 41.4904 85.3851 40.8473C85.1201 40.6815 84.8298 40.5726 84.5142 40.5207C84.4598 41.2455 84.4417 41.9713 84.4598 42.698C84.1694 42.698 83.8792 42.698 83.5889 42.698C83.5889 40.8835 83.5889 39.0692 83.5889 37.2548ZM84.4598 38.0169C84.8967 37.9988 85.3322 38.017 85.7661 38.0713C86.5397 38.5177 86.6123 39.062 85.9838 39.7042C85.4837 39.8813 84.9757 39.8995 84.4598 39.7587C84.4598 39.1781 84.4598 38.5974 84.4598 38.0169Z" fill="#FEFFFE"/>
<path opacity="0.911" fill-rule="evenodd" clip-rule="evenodd" d="M90.7739 37.2549C91.0642 37.2549 91.3545 37.2549 91.6448 37.2549C91.6266 38.7068 91.6448 40.1584 91.6992 41.6094C91.9728 42.0135 92.3538 42.1404 92.8423 41.9904C93.1256 41.8943 93.3615 41.731 93.5499 41.5005C93.6043 40.0857 93.6225 38.6705 93.6043 37.2549C93.8947 37.2549 94.1849 37.2549 94.4752 37.2549C94.4752 39.0693 94.4752 40.8836 94.4752 42.698C94.1849 42.698 93.8947 42.698 93.6043 42.698C93.6206 42.5835 93.6025 42.4746 93.5499 42.3714C93.2043 42.7163 92.787 42.8615 92.298 42.8069C91.5671 42.9092 91.0772 42.6189 90.8283 41.936C90.7739 40.3761 90.7557 38.8156 90.7739 37.2549Z" fill="#FEFFFE"/>
<path opacity="0.957" fill-rule="evenodd" clip-rule="evenodd" d="M98.0676 37.2546C98.3667 37.2205 98.657 37.2567 98.9385 37.3634C99.6245 38.5389 100.332 39.7002 101.061 40.847C101.116 39.6501 101.134 38.4526 101.116 37.2546C101.37 37.2546 101.624 37.2546 101.878 37.2546C101.878 39.069 101.878 40.8833 101.878 42.6977C101.579 42.7318 101.288 42.6955 101.007 42.5888C100.321 41.4133 99.6134 40.2521 98.8841 39.1052C98.7959 40.2716 98.8141 41.4327 98.9385 42.5888C98.657 42.6955 98.3667 42.7318 98.0676 42.6977C98.0676 40.8833 98.0676 39.069 98.0676 37.2546Z" fill="#FEFFFE"/>
<path opacity="0.957" fill-rule="evenodd" clip-rule="evenodd" d="M105.361 37.2546C105.66 37.2205 105.951 37.2567 106.232 37.3634C106.918 38.5389 107.626 39.7002 108.355 40.847C108.409 39.6501 108.428 38.4526 108.409 37.2546C108.663 37.2546 108.918 37.2546 109.172 37.2546C109.172 39.069 109.172 40.8833 109.172 42.6977C108.872 42.7318 108.582 42.6955 108.301 42.5888C107.615 41.4133 106.907 40.2521 106.178 39.1052C106.09 40.2716 106.108 41.4327 106.232 42.5888C105.951 42.6955 105.66 42.7318 105.361 42.6977C105.361 40.8833 105.361 39.069 105.361 37.2546Z" fill="#FEFFFE"/>
<path opacity="0.908" fill-rule="evenodd" clip-rule="evenodd" d="M112.764 37.2549C113.055 37.2549 113.344 37.2549 113.635 37.2549C113.635 39.0693 113.635 40.8836 113.635 42.698C113.344 42.698 113.055 42.698 112.764 42.698C112.764 40.8836 112.764 39.0693 112.764 37.2549Z" fill="#FEFFFE"/>
<path opacity="0.957" fill-rule="evenodd" clip-rule="evenodd" d="M117.228 37.2546C117.527 37.2205 117.816 37.2567 118.098 37.3634C118.784 38.5389 119.492 39.7002 120.221 40.847C120.276 39.6501 120.294 38.4526 120.276 37.2546C120.529 37.2546 120.784 37.2546 121.038 37.2546C121.038 39.069 121.038 40.8833 121.038 42.6977C120.738 42.7318 120.449 42.6955 120.167 42.5888C119.481 41.4133 118.773 40.2521 118.044 39.1052C117.956 40.2716 117.974 41.4327 118.098 42.5888C117.816 42.6955 117.527 42.7318 117.228 42.6977C117.228 40.8833 117.228 39.069 117.228 37.2546Z" fill="#FEFFFE"/>
<path opacity="0.954" fill-rule="evenodd" clip-rule="evenodd" d="M1.94189 38.8872C1.98728 38.8193 2.05986 38.783 2.15962 38.7783C4.34024 39.3114 6.55378 39.6199 8.80024 39.7037C11.0913 39.9828 12.6153 41.1984 13.3725 43.3506C10.3336 43.6304 7.46685 43.0681 4.77232 41.6632C3.62647 40.9346 2.68299 40.0092 1.94189 38.8872Z" fill="#FEFFFE"/>
<path opacity="0.953" fill-rule="evenodd" clip-rule="evenodd" d="M151.084 38.7789C151.245 38.7504 151.39 38.7867 151.519 38.8878C150.318 40.6851 148.686 41.9371 146.62 42.6436C144.487 43.31 142.309 43.5096 140.089 43.2423C140.902 41.1402 142.426 39.9608 144.661 39.7043C146.151 39.5849 147.639 39.4397 149.124 39.2688C149.813 39.1934 150.467 39.0301 151.084 38.7789Z" fill="#FEFFFE"/>
<path opacity="0.955" fill-rule="evenodd" clip-rule="evenodd" d="M10.6508 44.0045C13.1483 43.8378 15.0353 44.8176 16.3116 46.9438C14.3252 47.5463 12.2931 47.7459 10.2153 47.5425C7.56521 47.3422 5.35167 46.2717 3.57471 44.3311C5.05394 44.3386 6.54173 44.3204 8.03808 44.2767C8.92705 44.2008 9.79795 44.11 10.6508 44.0045Z" fill="#FEFFFE"/>
<path opacity="0.955" fill-rule="evenodd" clip-rule="evenodd" d="M141.831 44.0039C143.066 44.0641 144.3 44.1548 145.532 44.2761C146.994 44.3217 148.445 44.3399 149.886 44.3305C149.359 44.9841 148.742 45.5466 148.036 46.0179C145.591 47.3633 142.978 47.8714 140.198 47.5419C139.164 47.4544 138.148 47.2729 137.149 46.9976C138.22 45.2178 139.78 44.2199 141.831 44.0039Z" fill="#FEFFFE"/>
<path opacity="0.86" fill-rule="evenodd" clip-rule="evenodd" d="M40.2616 46.1816C40.4793 46.1816 40.697 46.1816 40.9148 46.1816C40.7306 47.6341 40.531 49.0857 40.316 50.5361C40.0938 50.6366 39.8579 50.6729 39.6084 50.645C39.8262 49.1562 40.044 47.6684 40.2616 46.1816Z" fill="#FEFFFE"/>
<path opacity="0.855" fill-rule="evenodd" clip-rule="evenodd" d="M55.0668 46.1816C55.2845 46.1816 55.5022 46.1816 55.7199 46.1816C55.6017 47.0176 55.511 47.8522 55.4478 48.6855C55.8613 48.381 56.2424 48.0362 56.5908 47.6513C56.8812 47.5787 57.1714 47.5787 57.4617 47.6513C57.0399 48.0914 56.6044 48.5088 56.1554 48.9032C56.3081 49.2706 56.4714 49.6336 56.6453 49.9918C56.7661 50.1592 56.9294 50.2317 57.1351 50.2096C57.0979 50.6782 56.8438 50.8415 56.3731 50.6994C56.2734 50.6587 56.1826 50.6043 56.1009 50.5361C55.9178 50.1699 55.7364 49.807 55.5566 49.4475C55.2345 49.7303 55.0893 50.0933 55.1212 50.5361C54.899 50.6366 54.6631 50.6729 54.4136 50.645C54.6314 49.1562 54.8491 47.6684 55.0668 46.1816Z" fill="#FEFFFE"/>
<path opacity="0.86" fill-rule="evenodd" clip-rule="evenodd" d="M58.224 46.1816C58.4417 46.1816 58.6594 46.1816 58.8772 46.1816C58.693 47.6341 58.4934 49.0857 58.2784 50.5361C58.0562 50.6366 57.8203 50.6729 57.5708 50.645C57.7886 49.1562 58.0064 47.6684 58.224 46.1816Z" fill="#FEFFFE"/>
<path opacity="0.885" fill-rule="evenodd" clip-rule="evenodd" d="M75.9685 46.1816C76.1862 46.1816 76.404 46.1816 76.6217 46.1816C76.6217 47.6695 76.6217 49.1572 76.6217 50.645C76.4076 50.671 76.2079 50.6348 76.0229 50.5361C75.4518 50.8516 74.9075 50.8153 74.39 50.4273C74.0757 49.6071 74.0395 48.7725 74.2811 47.9234C74.4082 47.7964 74.5351 47.6695 74.6622 47.5424C75.0892 47.4561 75.5065 47.4743 75.9141 47.5969C75.9684 47.1265 75.9866 46.6548 75.9685 46.1816ZM75.0976 48.0323C75.3922 48.0405 75.6825 48.0767 75.9685 48.1412C75.9866 48.7229 75.9684 49.3035 75.9141 49.883C75.605 50.2061 75.2784 50.2423 74.9343 49.9918C74.6747 49.3013 74.7291 48.6481 75.0976 48.0323Z" fill="#FEFFFE"/>
<path opacity="0.823" fill-rule="evenodd" clip-rule="evenodd" d="M86.3103 46.1811C87.0232 46.1189 87.2227 46.4092 86.9091 47.052C86.7579 47.24 86.5764 47.3852 86.3648 47.4874C86.0272 47.3558 86.009 47.1744 86.3103 46.9431C86.1664 46.6857 86.1664 46.4317 86.3103 46.1811Z" fill="#FEFFFE"/>
<path opacity="0.89" fill-rule="evenodd" clip-rule="evenodd" d="M92.7334 46.1816C92.9511 46.1816 93.1688 46.1816 93.3866 46.1816C93.3685 46.691 93.3867 47.199 93.441 47.7057C94.0121 47.3902 94.5564 47.4266 95.0739 47.8146C95.2274 48.7491 95.2819 49.6925 95.2372 50.645C95.0195 50.645 94.8018 50.645 94.5841 50.645C94.6021 49.9184 94.5841 49.1926 94.5296 48.4678C94.1939 47.922 93.8311 47.922 93.441 48.4678C93.3866 49.1926 93.3685 49.9184 93.3866 50.645C93.1688 50.645 92.9511 50.645 92.7334 50.645C92.7334 49.1572 92.7334 47.6695 92.7334 46.1816Z" fill="#FEFFFE"/>
<path opacity="0.885" fill-rule="evenodd" clip-rule="evenodd" d="M124.63 46.1816C124.848 46.1816 125.065 46.1816 125.283 46.1816C125.283 47.6695 125.283 49.1572 125.283 50.645C125.069 50.671 124.869 50.6348 124.684 50.5361C124.113 50.8516 123.569 50.8153 123.051 50.4273C122.737 49.6071 122.701 48.7725 122.943 47.9234C123.07 47.7964 123.196 47.6695 123.324 47.5424C123.75 47.4561 124.168 47.4743 124.576 47.5969C124.63 47.1265 124.648 46.6548 124.63 46.1816ZM123.759 48.0323C124.054 48.0405 124.344 48.0767 124.63 48.1412C124.648 48.7229 124.63 49.3035 124.576 49.883C124.266 50.2061 123.94 50.2423 123.596 49.9918C123.336 49.3013 123.39 48.6481 123.759 48.0323Z" fill="#FEFFFE"/>
<path opacity="0.803" fill-rule="evenodd" clip-rule="evenodd" d="M99.5918 46.2899C100.208 46.2005 100.389 46.4364 100.136 46.9975C99.4299 47.1236 99.2485 46.8877 99.5918 46.2899Z" fill="#FEFFFE"/>
<path opacity="0.871" fill-rule="evenodd" clip-rule="evenodd" d="M90.1207 46.3993C90.5577 46.3813 90.9931 46.3994 91.4271 46.4538C91.6265 46.5352 91.808 46.6441 91.9714 46.7804C91.876 46.953 91.7671 47.1163 91.6448 47.2702C91.2226 46.9998 90.7872 46.9454 90.3384 47.1069C90.2077 47.2052 90.1169 47.3322 90.0663 47.488C89.9937 48.2138 89.9937 48.9394 90.0663 49.6652C90.1905 49.9888 90.4264 50.1702 90.7739 50.2095C91.0765 50.1339 91.3669 50.025 91.6448 49.8829C91.7671 50.0369 91.876 50.2002 91.9714 50.3728C91.409 50.7379 90.7922 50.8468 90.1207 50.6994C89.8123 50.5361 89.5764 50.3002 89.4131 49.9918C89.3405 49.0483 89.3405 48.1049 89.4131 47.1614C89.5975 46.8502 89.8334 46.5963 90.1207 46.3993Z" fill="#FEFFFE"/>
<path opacity="0.904" fill-rule="evenodd" clip-rule="evenodd" d="M25.1296 46.5077C26.1121 46.4715 27.0919 46.5079 28.0689 46.6165C27.9877 46.7511 27.9515 46.8963 27.9601 47.052C27.5972 47.052 27.2343 47.052 26.8714 47.052C26.7059 48.247 26.5607 49.4444 26.436 50.6444C26.182 50.6444 25.9279 50.6444 25.674 50.6444C25.8204 49.4562 26.0017 48.2769 26.2183 47.1064C25.8572 47.0522 25.4943 47.034 25.1296 47.052C25.1296 46.8705 25.1296 46.6891 25.1296 46.5077Z" fill="#FEFFFE"/>
<path opacity="0.852" fill-rule="evenodd" clip-rule="evenodd" d="M42.9832 46.5082C43.2371 46.5082 43.4912 46.5082 43.7452 46.5082C43.8681 47.5964 43.9951 48.685 44.1262 49.774C44.3726 49.2707 44.6085 48.7626 44.8338 48.25C44.6965 47.6827 44.5514 47.1203 44.3984 46.5626C44.6161 46.49 44.8338 46.49 45.0515 46.5626C45.1137 46.8468 45.2044 47.119 45.3237 47.3791C45.4507 47.1251 45.5777 46.871 45.7047 46.617C45.9224 46.4719 46.1402 46.4719 46.3579 46.617C46.0676 47.1976 45.7773 47.7783 45.487 48.3588C45.582 48.7615 45.6909 49.1606 45.8136 49.5563C46.2746 48.5621 46.6738 47.5461 47.0111 46.5082C47.275 46.4746 47.5289 46.511 47.7731 46.617C47.1925 47.9234 46.6119 49.2297 46.0313 50.5361C45.8136 50.6812 45.5959 50.6812 45.3781 50.5361C45.2849 50.0907 45.1579 49.6553 44.9971 49.2297C44.7794 49.6652 44.5617 50.1006 44.3439 50.5361C44.1217 50.6366 43.8858 50.6728 43.6363 50.6449C43.4421 49.2621 43.2244 47.8831 42.9832 46.5082Z" fill="#FEFFFE"/>
<path opacity="0.892" fill-rule="evenodd" clip-rule="evenodd" d="M63.7759 46.5077C64.4663 46.4897 65.1557 46.5077 65.8443 46.5622C66.5372 46.9155 66.7731 47.478 66.5519 48.2496C66.4346 48.6211 66.1987 48.8933 65.8443 49.066C66.0322 49.4979 66.2863 49.8789 66.6063 50.2091C66.6701 50.1863 66.7245 50.15 66.7696 50.1002C66.8235 50.315 66.8417 50.5327 66.824 50.7534C66.517 50.7808 66.2268 50.7264 65.9531 50.5901C65.6125 50.1816 65.3403 49.728 65.1367 49.2293C64.9182 49.1021 64.6824 49.0296 64.4291 49.0116C64.4291 49.5559 64.4291 50.1002 64.4291 50.6445C64.2113 50.6445 63.9936 50.6445 63.7759 50.6445C63.7759 49.2656 63.7759 47.8867 63.7759 46.5077ZM64.4291 47.1609C64.8299 47.143 65.229 47.161 65.6265 47.2154C66.0653 47.6461 66.029 48.0452 65.5177 48.4128C65.1843 48.4935 64.8578 48.4754 64.5379 48.3584C64.4303 47.9657 64.3939 47.5665 64.4291 47.1609Z" fill="#FEFFFE"/>
<path opacity="0.856" fill-rule="evenodd" clip-rule="evenodd" d="M110.151 46.5078C110.437 46.4786 110.709 46.5149 110.968 46.6167C111.389 47.9353 111.843 49.2417 112.329 50.5357C112.083 50.6606 111.828 50.6788 111.567 50.5902C111.46 50.2102 111.297 49.8655 111.077 49.556C110.73 49.6964 110.385 49.6964 110.042 49.556C109.85 49.8484 109.704 50.175 109.607 50.5357C109.353 50.6808 109.099 50.6808 108.845 50.5357C109.325 49.2052 109.761 47.8625 110.151 46.5078ZM110.478 47.4876C110.744 47.9556 110.924 48.4636 111.022 49.0116C110.732 49.0116 110.442 49.0116 110.151 49.0116C110.26 48.5036 110.369 47.9956 110.478 47.4876Z" fill="#FEFFFE"/>
<path opacity="0.857" fill-rule="evenodd" clip-rule="evenodd" d="M29.1576 47.4883C29.3391 47.4883 29.5205 47.4883 29.702 47.4883C29.702 47.706 29.702 47.9237 29.702 48.1415C29.3658 48.1281 29.0755 48.2369 28.8311 48.468C28.6487 49.1455 28.5217 49.8349 28.45 50.5364C28.2279 50.6369 27.9919 50.6732 27.7424 50.6453C27.8977 49.631 28.0429 48.615 28.1779 47.5971C28.4413 47.5745 28.6953 47.6109 28.9399 47.706C29.0512 47.6674 29.1238 47.5947 29.1576 47.4883Z" fill="#FEFFFE"/>
<path opacity="0.841" fill-rule="evenodd" clip-rule="evenodd" d="M30.7904 47.4882C31.2274 47.4701 31.6629 47.4883 32.0968 47.5426C32.2963 47.5971 32.4234 47.7241 32.4778 47.9237C32.5047 48.8059 32.414 49.6768 32.2057 50.5364C31.7161 50.5131 31.2262 50.5857 30.736 50.7541C29.9949 50.688 29.7046 50.2889 29.8651 49.5566C29.9421 49.3845 30.0328 49.2212 30.1373 49.0667C30.7211 48.9843 31.2836 48.8574 31.8246 48.6857C31.8983 48.4155 31.8077 48.216 31.5525 48.0869C31.1935 48.0279 30.8487 48.0824 30.5183 48.2502C30.3613 48.1727 30.2706 48.0457 30.2461 47.8692C30.4008 47.6925 30.5823 47.5655 30.7904 47.4882ZM30.8993 49.3389C31.1563 49.3578 31.4103 49.3941 31.6613 49.4477C31.6606 49.8974 31.4248 50.1514 30.9537 50.2098C30.3415 49.966 30.3233 49.6757 30.8993 49.3389Z" fill="#FEFFFE"/>
<path opacity="0.865" fill-rule="evenodd" clip-rule="evenodd" d="M37.2134 47.4882C38.6854 47.2725 39.2297 47.8893 38.8463 49.3389C38.2294 49.3389 37.6126 49.3389 36.9956 49.3389C36.8818 49.8022 37.0451 50.0924 37.4855 50.2098C37.8093 50.1425 38.1178 50.0337 38.4109 49.8832C38.7245 50.191 38.6882 50.4269 38.302 50.5908C37.5987 50.882 36.9636 50.7913 36.3969 50.3187C36.246 49.6279 36.2823 48.9385 36.5058 48.2503C36.6902 47.9391 36.9261 47.6852 37.2134 47.4882ZM37.54 48.0325C38.093 48.0456 38.347 48.3359 38.302 48.9034C37.865 48.9215 37.4296 48.9033 36.9956 48.849C37.0853 48.5036 37.2668 48.2314 37.54 48.0325Z" fill="#FEFFFE"/>
<path opacity="0.865" fill-rule="evenodd" clip-rule="evenodd" d="M48.644 47.4882C50.1161 47.2725 50.6604 47.8893 50.277 49.3389C49.66 49.3389 49.0432 49.3389 48.4263 49.3389C48.3124 49.8022 48.4757 50.0924 48.9162 50.2098C49.2399 50.1425 49.5485 50.0337 49.8415 49.8832C50.1552 50.191 50.1189 50.4269 49.7327 50.5908C49.0294 50.882 48.3943 50.7913 47.8276 50.3187C47.6767 49.6279 47.7129 48.9385 47.9364 48.2503C48.1208 47.9391 48.3567 47.6852 48.644 47.4882ZM48.9706 48.0325C49.5236 48.0456 49.7776 48.3359 49.7327 48.9034C49.2957 48.9215 48.8602 48.9033 48.4263 48.849C48.516 48.5036 48.6975 48.2314 48.9706 48.0325Z" fill="#FEFFFE"/>
<path opacity="0.865" fill-rule="evenodd" clip-rule="evenodd" d="M52.0188 47.4882C53.4908 47.2725 54.0351 47.8893 53.6517 49.3389C53.0348 49.3389 52.418 49.3389 51.8011 49.3389C51.6872 49.8022 51.8505 50.0924 52.2909 50.2098C52.6147 50.1425 52.9232 50.0337 53.2163 49.8832C53.5299 50.191 53.4937 50.4269 53.1074 50.5908C52.4042 50.882 51.7691 50.7913 51.2023 50.3187C51.0514 49.6279 51.0877 48.9385 51.3112 48.2503C51.4956 47.9391 51.7315 47.6852 52.0188 47.4882ZM52.3454 48.0325C52.8984 48.0456 53.1524 48.3359 53.1074 48.9034C52.6704 48.9215 52.235 48.9033 51.8011 48.849C51.8908 48.5036 52.0722 48.2314 52.3454 48.0325Z" fill="#FEFFFE"/>
<path opacity="0.873" fill-rule="evenodd" clip-rule="evenodd" d="M68.1304 47.4879C69.5819 47.2702 70.1988 47.8871 69.9811 49.3386C69.3642 49.3386 68.7474 49.3386 68.1304 49.3386C68.0888 49.8009 68.2884 50.0913 68.7292 50.2095C69.0529 50.1422 69.3614 50.0333 69.6545 49.8829C70.1061 50.3236 69.9972 50.5957 69.3279 50.6994C68.6948 50.8527 68.1323 50.7257 67.6405 50.3183C67.4679 49.6045 67.4315 48.8787 67.5317 48.1411C67.6797 47.8664 67.8793 47.6487 68.1304 47.4879ZM68.5659 48.0322C69.1212 48.0524 69.3752 48.3427 69.3279 48.9031C68.9287 48.9031 68.5296 48.9031 68.1304 48.9031C68.1063 48.516 68.2514 48.2257 68.5659 48.0322Z" fill="#FEFFFE"/>
<path opacity="0.871" fill-rule="evenodd" clip-rule="evenodd" d="M71.3962 47.4882C71.8331 47.4701 72.2686 47.4883 72.7025 47.5426C72.8583 47.5933 72.9852 47.684 73.0835 47.8148C73.2404 48.7464 73.2948 49.6898 73.2468 50.6452C73.0001 50.6843 72.8006 50.6117 72.6481 50.4275C72.0717 50.8619 71.4911 50.8619 70.9063 50.4275C70.6477 49.9298 70.7022 49.4763 71.0696 49.0667C71.5634 48.9166 72.0714 48.8622 72.5937 48.9034C72.6304 48.6142 72.5578 48.3602 72.3759 48.1414C71.929 48.0764 71.4936 48.0764 71.0696 48.1414C71.0227 48.0551 70.9863 47.9643 70.9607 47.8692C71.0898 47.7155 71.2349 47.5885 71.3962 47.4882ZM71.7228 49.3389C72.0173 49.347 72.3077 49.3833 72.5937 49.4477C72.6155 49.8981 72.3978 50.1521 71.9405 50.2098C71.3373 50.0247 71.2648 49.7344 71.7228 49.3389Z" fill="#FEFFFE"/>
<path opacity="0.873" fill-rule="evenodd" clip-rule="evenodd" d="M78.2547 47.4879C79.7062 47.2702 80.3231 47.8871 80.1054 49.3386C79.4884 49.3386 78.8716 49.3386 78.2547 49.3386C78.2131 49.8009 78.4127 50.0913 78.8534 50.2095C79.1772 50.1422 79.4857 50.0333 79.7788 49.8829C80.2303 50.3236 80.1215 50.5957 79.4522 50.6994C78.819 50.8527 78.2565 50.7257 77.7648 50.3183C77.5922 49.6045 77.5558 48.8787 77.6559 48.1411C77.804 47.8664 78.0035 47.6487 78.2547 47.4879ZM78.6901 48.0322C79.2455 48.0524 79.4994 48.3427 79.4522 48.9031C79.053 48.9031 78.6539 48.9031 78.2547 48.9031C78.2305 48.516 78.3756 48.2257 78.6901 48.0322Z" fill="#FEFFFE"/>
<path opacity="0.877" fill-rule="evenodd" clip-rule="evenodd" d="M82.0647 47.4883C82.2098 47.4883 82.355 47.4883 82.5002 47.4883C82.5364 47.706 82.5728 47.9237 82.609 48.1415C82.2253 48.1247 81.9168 48.2698 81.6837 48.5769C81.6293 49.2655 81.6112 49.9549 81.6293 50.6453C81.4115 50.6453 81.1938 50.6453 80.9761 50.6453C80.9761 49.6293 80.9761 48.6132 80.9761 47.5971C81.2395 47.5745 81.4935 47.6109 81.7381 47.706C81.873 47.6579 81.9819 47.5853 82.0647 47.4883Z" fill="#FEFFFE"/>
<path opacity="0.84" fill-rule="evenodd" clip-rule="evenodd" d="M83.8065 47.4879C84.4434 47.398 85.024 47.525 85.5483 47.8689C85.4809 48.0602 85.3539 48.1872 85.1673 48.25C84.8008 48.0284 84.4198 47.9922 84.0242 48.1411C83.8885 48.305 83.8885 48.4683 84.0242 48.631C84.4234 48.7398 84.8225 48.8487 85.2217 48.9576C85.8761 50.0007 85.5857 50.5994 84.3508 50.7538C83.9403 50.7375 83.5593 50.6286 83.2077 50.4272C83.1229 50.1653 83.2136 49.9838 83.4799 49.8829C83.8939 50.186 84.3293 50.2404 84.7862 50.0462C84.922 49.8835 84.922 49.7203 84.7862 49.5563C84.4735 49.4175 84.1469 49.3268 83.8065 49.2841C83.6121 49.1987 83.4488 49.0718 83.3166 48.9031C83.1253 48.2853 83.2886 47.8136 83.8065 47.4879Z" fill="#FEFFFE"/>
<path opacity="0.863" fill-rule="evenodd" clip-rule="evenodd" d="M96.7614 47.4882C97.1622 47.4702 97.5613 47.4883 97.9588 47.5426C98.231 47.6696 98.4305 47.8692 98.5576 48.1413C98.6302 48.7945 98.6302 49.4477 98.5576 50.1009C98.1513 50.7046 97.5888 50.9042 96.8702 50.6996C96.5346 50.614 96.2988 50.4145 96.1626 50.1009C96.09 49.4477 96.09 48.7945 96.1626 48.1413C96.3107 47.8667 96.5102 47.6489 96.7614 47.4882ZM97.1968 48.0325C97.8204 48.1144 98.0745 48.4773 97.9588 49.1211C98.0666 49.6685 97.8671 50.0314 97.3601 50.2097C96.8531 50.0314 96.6536 49.6685 96.7614 49.1211C96.6816 48.6505 96.8267 48.2876 97.1968 48.0325Z" fill="#FEFFFE"/>
<path opacity="0.843" fill-rule="evenodd" clip-rule="evenodd" d="M101.769 47.4879C102.406 47.398 102.986 47.525 103.511 47.8689C103.406 48.0234 103.315 48.1867 103.238 48.3588C102.295 47.7691 101.805 48.0232 101.769 49.1209C101.783 50.1987 102.255 50.4527 103.184 49.8829C103.417 50.0498 103.489 50.2493 103.402 50.4816C102.651 50.8899 101.943 50.8354 101.279 50.3183C101.106 49.6045 101.07 48.8787 101.17 48.1411C101.318 47.8664 101.518 47.6487 101.769 47.4879Z" fill="#FEFFFE"/>
<path opacity="0.873" fill-rule="evenodd" clip-rule="evenodd" d="M104.817 47.4879C106.268 47.2702 106.885 47.8871 106.668 49.3386C106.051 49.3386 105.434 49.3386 104.817 49.3386C104.775 49.8009 104.975 50.0913 105.416 50.2095C105.739 50.1422 106.048 50.0333 106.341 49.8829C106.793 50.3236 106.684 50.5957 106.014 50.6994C105.381 50.8527 104.819 50.7257 104.327 50.3183C104.154 49.6045 104.118 48.8787 104.218 48.1411C104.366 47.8664 104.566 47.6487 104.817 47.4879ZM105.252 48.0322C105.808 48.0524 106.062 48.3427 106.014 48.9031C105.615 48.9031 105.216 48.9031 104.817 48.9031C104.793 48.516 104.938 48.2257 105.252 48.0322Z" fill="#FEFFFE"/>
<path opacity="0.871" fill-rule="evenodd" clip-rule="evenodd" d="M117.772 47.4882C118.208 47.4701 118.644 47.4883 119.078 47.5426C119.234 47.5933 119.361 47.684 119.459 47.8148C119.616 48.7464 119.67 49.6898 119.622 50.6452C119.375 50.6843 119.176 50.6117 119.024 50.4275C118.448 50.8619 117.866 50.8619 117.282 50.4275C117.024 49.9298 117.078 49.4763 117.445 49.0667C117.939 48.9166 118.447 48.8622 118.969 48.9034C119.006 48.6142 118.933 48.3602 118.752 48.1414C118.305 48.0764 117.87 48.0764 117.445 48.1414C117.398 48.0551 117.362 47.9643 117.336 47.8692C117.466 47.7155 117.611 47.5885 117.772 47.4882ZM118.098 49.3389C118.393 49.347 118.683 49.3833 118.969 49.4477C118.991 49.8981 118.773 50.1521 118.316 50.2098C117.713 50.0247 117.64 49.7344 118.098 49.3389Z" fill="#FEFFFE"/>
<path opacity="0.877" fill-rule="evenodd" clip-rule="evenodd" d="M121.582 47.4883C121.727 47.4883 121.873 47.4883 122.017 47.4883C122.053 47.706 122.09 47.9237 122.126 48.1415C121.742 48.1247 121.434 48.2698 121.201 48.5769C121.147 49.2655 121.128 49.9549 121.147 50.6453C120.929 50.6453 120.711 50.6453 120.493 50.6453C120.493 49.6293 120.493 48.6132 120.493 47.5971C120.757 47.5745 121.011 47.6109 121.255 47.706C121.39 47.6579 121.499 47.5853 121.582 47.4883Z" fill="#FEFFFE"/>
<path opacity="0.84" fill-rule="evenodd" clip-rule="evenodd" d="M126.807 47.4879C127.444 47.398 128.024 47.525 128.549 47.8689C128.482 48.0602 128.354 48.1872 128.168 48.25C127.801 48.0284 127.42 47.9922 127.025 48.1411C126.889 48.305 126.889 48.4683 127.025 48.631C127.425 48.7398 127.823 48.8487 128.223 48.9576C128.877 50.0007 128.586 50.5994 127.352 50.7538C126.941 50.7375 126.56 50.6286 126.209 50.4272C126.124 50.1653 126.214 49.9838 126.481 49.8829C126.894 50.186 127.33 50.2404 127.787 50.0462C127.923 49.8835 127.923 49.7203 127.787 49.5563C127.475 49.4175 127.148 49.3268 126.807 49.2841C126.612 49.1987 126.449 49.0718 126.317 48.9031C126.126 48.2853 126.289 47.8136 126.807 47.4879Z" fill="#FEFFFE"/>
<path opacity="0.855" fill-rule="evenodd" clip-rule="evenodd" d="M33.2942 47.597C33.5437 47.5691 33.7796 47.6054 34.0018 47.7058C34.1196 48.3678 34.2648 49.021 34.4372 49.6654C34.7159 48.999 35.0245 48.3458 35.3626 47.7058C35.6092 47.581 35.8631 47.5628 36.1246 47.6514C35.6166 48.6312 35.1086 49.6109 34.6005 50.5907C34.3215 50.6906 34.0856 50.6362 33.8929 50.4274C33.6586 49.4899 33.4589 48.5465 33.2942 47.597Z" fill="#FEFFFE"/>
<path opacity="0.847" fill-rule="evenodd" clip-rule="evenodd" d="M59.2036 47.597C59.4531 47.5691 59.689 47.6054 59.9112 47.7058C60.0152 48.3346 60.1603 48.9516 60.3467 49.5565C60.6551 48.9396 60.9636 48.3228 61.272 47.7058C61.5186 47.581 61.7726 47.5628 62.034 47.6514C61.3948 48.9119 60.7416 50.1638 60.0745 51.4072C59.8279 51.532 59.574 51.5502 59.3125 51.4616C59.5078 51.1254 59.6892 50.7808 59.8568 50.4274C59.6047 49.4914 59.3869 48.5479 59.2036 47.597Z" fill="#FEFFFE"/>
<path opacity="0.911" fill-rule="evenodd" clip-rule="evenodd" d="M99.4829 47.5967C99.7006 47.5967 99.9184 47.5967 100.136 47.5967C100.136 48.6127 100.136 49.6288 100.136 50.6448C99.9184 50.6448 99.7006 50.6448 99.4829 50.6448C99.4829 49.6288 99.4829 48.6127 99.4829 47.5967Z" fill="#FEFFFE"/>
<path opacity="0.861" fill-rule="evenodd" clip-rule="evenodd" d="M112.438 47.597C112.687 47.5692 112.923 47.6054 113.145 47.7059C113.329 48.3708 113.547 49.024 113.798 49.6654C113.947 49.2545 114.075 48.8371 114.179 48.4135C114.14 48.1674 114.067 47.9316 113.962 47.7059C114.205 47.5999 114.46 47.5635 114.724 47.597C114.835 48.2972 114.998 48.9867 115.213 49.6654C115.402 49.0083 115.602 48.3551 115.812 47.7059C116.058 47.581 116.313 47.5628 116.574 47.6515C116.193 48.6314 115.867 49.6294 115.595 50.6452C115.331 50.6787 115.076 50.6424 114.832 50.5363C114.755 50.187 114.628 49.8604 114.451 49.5566C114.346 49.9114 114.218 50.2562 114.07 50.5908C113.844 50.6787 113.626 50.6605 113.417 50.5363C113.068 49.562 112.741 48.5822 112.438 47.597Z" fill="#FEFFFE"/>
<path opacity="0.958" fill-rule="evenodd" clip-rule="evenodd" d="M15.8763 52.2775C14.7151 52.2775 13.554 52.2775 12.3927 52.2775C11.0622 52.0333 9.79216 51.5797 8.58255 50.9167C8.23735 50.6619 7.91077 50.3897 7.60278 50.1002C8.40041 50.0043 9.19873 49.9137 9.99776 49.8281C12.0503 49.3239 14.1186 48.9067 16.2029 48.5762C18.0056 48.661 19.4572 49.4048 20.5574 50.8079C20.0327 51.1651 19.4522 51.4191 18.8156 51.5699C17.8302 51.8426 16.8504 52.0785 15.8763 52.2775Z" fill="#FEFFFE"/>
<path opacity="0.961" fill-rule="evenodd" clip-rule="evenodd" d="M141.068 52.2774C139.944 52.2774 138.818 52.2774 137.694 52.2774C136.046 52.0103 134.449 51.5385 132.904 50.8622C134.571 48.8486 136.677 48.1773 139.218 48.8482C141.39 49.4824 143.605 49.8997 145.858 50.1001C144.976 50.9771 143.924 51.5759 142.701 51.8963C142.141 52.0188 141.596 52.1458 141.068 52.2774Z" fill="#FEFFFE"/>
</g>
</g>
</g>
<defs>
<clipPath id="clip0_5_2221">
<rect width="152.19" height="52.25" fill="white" transform="translate(0.689941 0.0800781)"/>
</clipPath>
<clipPath id="clip1_5_2221">
<rect width="152.19" height="52.25" fill="white" transform="translate(0.689941 0.0800781)"/>
</clipPath>
<clipPath id="clip2_5_2221">
<rect width="152.19" height="52.2541" fill="white" transform="translate(0.689941 0.078125)"/>
</clipPath>
</defs>
</svg>
