<svg width="187" height="53" viewBox="0 0 187 53" fill="none" xmlns="http://www.w3.org/2000/svg">
<g clip-path="url(#clip0_5_2426)">
<g clip-path="url(#clip1_5_2426)">
<g clip-path="url(#clip2_5_2426)">
<path opacity="0.902" fill-rule="evenodd" clip-rule="evenodd" d="M16.0661 0.0234375C16.1387 0.0234375 16.2112 0.0234375 16.2838 0.0234375C16.1847 1.18369 16.1666 2.34488 16.2294 3.50703C16.1287 4.31534 15.7113 4.89593 14.9775 5.24882C14.4908 3.76676 14.6178 2.31527 15.3585 0.894335C15.5763 0.586175 15.8121 0.295876 16.0661 0.0234375Z" fill="#FEFFFE"/>
<path opacity="0.906" fill-rule="evenodd" clip-rule="evenodd" d="M170.868 0.0234375C170.977 0.0234375 171.086 0.0234375 171.195 0.0234375C172.451 1.55023 172.851 3.29202 172.392 5.24882C171.666 5.00207 171.213 4.49406 171.031 3.72475C171.011 2.48273 170.956 1.24895 170.868 0.0234375Z" fill="#FEFFFE"/>
<path opacity="0.902" fill-rule="evenodd" clip-rule="evenodd" d="M13.1268 1.87402C13.3158 2.70913 13.4791 3.58002 13.6167 4.48672C13.9039 5.63909 13.5954 6.58256 12.6914 7.31713C12.1914 6.24925 12.0281 5.12433 12.2015 3.9424C12.3345 3.16887 12.6429 2.47942 13.1268 1.87402Z" fill="#FEFFFE"/>
<path opacity="0.902" fill-rule="evenodd" clip-rule="evenodd" d="M173.916 1.87448C174.025 1.86514 174.116 1.90143 174.189 1.98334C175.271 3.68354 175.398 5.46162 174.57 7.31759C173.884 6.84808 173.521 6.1949 173.481 5.35807C173.722 4.20758 173.866 3.04639 173.916 1.87448Z" fill="#FEFFFE"/>
<path opacity="0.947" fill-rule="evenodd" clip-rule="evenodd" d="M49.0513 2.09192C51.9397 1.80504 53.1735 3.09324 52.7527 5.95653C52.1721 6.02911 51.5914 6.02911 51.0109 5.95653C50.9241 5.5488 50.8697 5.1315 50.8476 4.70462C50.7127 3.98921 50.2953 3.75333 49.5957 3.99701C49.2691 4.28873 49.0877 4.6516 49.0513 5.08563C49.1415 5.68255 49.3411 6.245 49.6501 6.773C50.3709 7.74798 51.1329 8.69145 51.9362 9.60341C52.9864 11.1987 53.1316 12.868 52.3716 14.6111C51.4555 15.5432 50.3487 15.8516 49.0513 15.5364C47.8951 15.1405 47.26 14.324 47.1463 13.087C47.0736 12.6516 47.0736 12.2161 47.1463 11.7807C47.7632 11.6355 48.38 11.6355 48.9969 11.7807C49.0427 12.2566 49.1154 12.7283 49.2146 13.1959C49.4797 13.7101 49.8971 13.8734 50.4666 13.6857C50.8684 13.2356 50.9954 12.7094 50.8476 12.1072C50.7268 11.648 50.5455 11.2125 50.3033 10.8009C49.5412 9.85742 48.7792 8.91396 48.0172 7.97048C46.9847 6.44996 46.8395 4.85331 47.5817 3.18055C47.9661 2.66835 48.456 2.30548 49.0513 2.09192Z" fill="#FEFFFE"/>
<path opacity="0.947" fill-rule="evenodd" clip-rule="evenodd" d="M120.465 2.09192C123.353 1.80504 124.588 3.09324 124.166 5.95653C123.586 6.02911 123.005 6.02911 122.424 5.95653C122.337 5.5488 122.283 5.1315 122.261 4.70462C122.126 3.98921 121.709 3.75333 121.009 3.99701C120.683 4.28873 120.501 4.6516 120.465 5.08563C120.555 5.68255 120.754 6.245 121.064 6.773C121.784 7.74798 122.546 8.69145 123.35 9.60341C124.4 11.1987 124.545 12.868 123.785 14.6111C122.869 15.5432 121.763 15.8516 120.465 15.5364C119.309 15.1405 118.674 14.324 118.56 13.087C118.487 12.6516 118.487 12.2161 118.56 11.7807C119.177 11.6355 119.793 11.6355 120.41 11.7807C120.456 12.2566 120.529 12.7283 120.628 13.1959C120.894 13.7101 121.311 13.8734 121.88 13.6857C122.282 13.2356 122.409 12.7094 122.261 12.1072C122.14 11.648 121.959 11.2125 121.717 10.8009C120.955 9.85742 120.193 8.91396 119.431 7.97048C118.399 6.44996 118.253 4.85331 118.995 3.18055C119.38 2.66835 119.869 2.30548 120.465 2.09192Z" fill="#FEFFFE"/>
<path opacity="0.968" fill-rule="evenodd" clip-rule="evenodd" d="M33.8108 2.20113C35.0813 2.18301 36.3514 2.20114 37.621 2.25556C38.8279 2.66631 39.4629 3.51906 39.5261 4.81382C39.7379 6.12433 39.5384 7.35811 38.9273 8.51514C39.591 10.091 39.7543 11.724 39.4172 13.4139C39.2753 14.4434 38.7129 15.1148 37.7298 15.4279C36.424 15.4823 35.1177 15.5005 33.8108 15.4823C33.8108 11.0552 33.8108 6.6282 33.8108 2.20113ZM35.7703 3.94293C36.1711 3.92493 36.5702 3.94308 36.9678 3.99736C37.1236 4.048 37.2505 4.13872 37.3488 4.26951C37.6376 5.16733 37.6739 6.07452 37.4577 6.99107C37.2267 7.45446 36.8457 7.67218 36.3146 7.64424C36.1629 7.6311 36.0176 7.59482 35.8792 7.53538C35.7704 6.34009 35.7342 5.14261 35.7703 3.94293ZM35.7703 9.38603C36.1711 9.36804 36.5702 9.38619 36.9678 9.44046C37.2198 9.56124 37.3831 9.76081 37.4577 10.0392C37.716 11.2272 37.6435 12.3885 37.2399 13.5228C37.1583 13.5909 37.0675 13.6454 36.9678 13.6861C36.5702 13.7404 36.1711 13.7585 35.7703 13.7405C35.7703 12.2891 35.7703 10.8375 35.7703 9.38603Z" fill="#FEFFFE"/>
<path opacity="0.97" fill-rule="evenodd" clip-rule="evenodd" d="M40.9956 2.20117C42.5923 2.20117 44.1889 2.20117 45.7855 2.20117C45.819 2.81008 45.7826 3.40882 45.6767 3.9974C44.7702 4.0518 43.863 4.06994 42.9551 4.05183C42.919 5.17907 42.9552 6.30398 43.064 7.42656C43.9651 7.53214 44.8723 7.56843 45.7855 7.53542C45.819 8.14433 45.7826 8.74307 45.6767 9.33164C44.7702 9.38604 43.863 9.40419 42.9551 9.38608C42.9551 10.8013 42.9551 12.2165 42.9551 13.6317C43.863 13.6136 44.7702 13.6317 45.6767 13.6861C45.7826 14.2747 45.819 14.8735 45.7855 15.4824C44.1889 15.6275 42.5923 15.6275 40.9956 15.4824C40.9956 11.0553 40.9956 6.62824 40.9956 2.20117Z" fill="#FEFFFE"/>
<path opacity="0.971" fill-rule="evenodd" clip-rule="evenodd" d="M54.1678 2.20117C56.0547 2.20117 57.9417 2.20117 59.8286 2.20117C59.8467 2.7829 59.8285 3.3635 59.7742 3.94297C59.1856 4.04891 58.5868 4.08521 57.978 4.05183C57.9962 7.8259 57.978 11.5998 57.9235 15.3735C57.2986 15.4796 56.6635 15.5159 56.0185 15.4824C56.0366 11.7446 56.0185 8.00698 55.964 4.26955C55.37 4.09045 54.7531 3.98159 54.1134 3.94297C54.0283 3.35329 54.0464 2.77269 54.1678 2.20117Z" fill="#FEFFFE"/>
<path opacity="0.969" fill-rule="evenodd" clip-rule="evenodd" d="M65.5984 2.20113C66.9053 2.18301 68.2116 2.20114 69.5174 2.25556C70.462 2.5472 71.0244 3.18223 71.2048 4.16065C71.4202 5.79403 71.4202 7.42696 71.2048 9.05945C71.0244 10.0379 70.462 10.6729 69.5174 10.9645C68.895 10.9875 68.278 11.0419 67.6668 11.1278C67.5761 12.5416 67.5217 13.9568 67.5035 15.3735C66.8785 15.4796 66.2434 15.5158 65.5984 15.4823C65.5984 11.0552 65.5984 6.6282 65.5984 2.20113ZM67.5579 3.94293C67.9587 3.92493 68.3578 3.94308 68.7554 3.99736C68.9112 4.048 69.0381 4.13872 69.1364 4.26951C69.4957 5.83017 69.4957 7.39052 69.1364 8.95059C69.0381 9.08137 68.9112 9.1721 68.7554 9.22274C68.3578 9.27702 67.9587 9.29517 67.5579 9.27717C67.5579 7.49909 67.5579 5.721 67.5579 3.94293Z" fill="#FEFFFE"/>
<path opacity="0.966" fill-rule="evenodd" clip-rule="evenodd" d="M72.8921 2.20057C74.3154 2.15237 75.7306 2.2068 77.1377 2.36387C77.8971 2.77426 78.3507 3.40929 78.4985 4.26895C78.6636 5.46163 78.6999 6.65911 78.6074 7.86141C78.549 8.65462 78.2587 9.34408 77.7365 9.92979C77.7183 10.0386 77.7002 10.1475 77.682 10.2564C78.0131 11.9655 78.3216 13.6711 78.6074 15.3729C77.9782 15.5152 77.3432 15.5152 76.7023 15.3729C76.3823 13.8526 76.0739 12.3286 75.7769 10.8007C75.5096 10.6024 75.2012 10.5298 74.8516 10.583C74.8698 12.18 74.8516 13.7767 74.7972 15.3729C74.1722 15.479 73.5371 15.5153 72.8921 15.4818C72.8921 11.0547 72.8921 6.62764 72.8921 2.20057ZM74.8516 3.94237C75.2524 3.92437 75.6515 3.94252 76.0491 3.9968C76.3011 4.11757 76.4644 4.31715 76.539 4.59554C76.7567 5.79303 76.7567 6.99051 76.539 8.18799C76.308 8.65139 75.9269 8.86911 75.3959 8.84117C75.2442 8.82803 75.0989 8.79174 74.9605 8.7323C74.8517 7.13731 74.8154 5.54066 74.8516 3.94237Z" fill="#FEFFFE"/>
<path opacity="0.971" fill-rule="evenodd" clip-rule="evenodd" d="M80.186 2.20057C80.831 2.16701 81.4661 2.2033 82.0911 2.30943C82.1637 6.66391 82.1637 11.0184 82.0911 15.3729C81.4661 15.479 80.831 15.5153 80.186 15.4818C80.186 11.0547 80.186 6.62763 80.186 2.20057Z" fill="#FEFFFE"/>
<path opacity="0.954" fill-rule="evenodd" clip-rule="evenodd" d="M83.4519 2.20075C84.1552 2.13578 84.8264 2.20835 85.4659 2.41848C85.9259 5.1424 86.3976 7.86396 86.8811 10.5831C87.3528 7.8253 87.8246 5.06745 88.2963 2.30961C88.9222 2.18545 89.5573 2.16731 90.2014 2.25518C89.4702 6.65663 88.6718 11.0655 87.8064 15.4819C87.139 15.5464 86.504 15.4738 85.9013 15.2642C85.0495 10.9148 84.233 6.5603 83.4519 2.20075Z" fill="#FEFFFE"/>
<path opacity="0.958" fill-rule="evenodd" clip-rule="evenodd" d="M92.705 2.20117C93.3219 2.20117 93.9387 2.20117 94.5557 2.20117C95.4211 6.61756 96.2195 11.0265 96.9506 15.4279C96.3337 15.5005 95.7169 15.5005 95.1 15.4279C94.9505 14.9128 94.8416 14.3867 94.7734 13.8494C94.0079 13.8135 93.2458 13.8498 92.4873 13.9583C92.3668 14.4276 92.2579 14.8993 92.1607 15.3735C91.5115 15.4819 90.8584 15.5182 90.2012 15.4824C90.989 11.0459 91.8235 6.6188 92.705 2.20117ZM93.5759 7.09997C93.8935 8.62256 94.1838 10.1648 94.4468 11.7266C94.4027 11.8295 94.3301 11.9021 94.2291 11.9443C93.7936 12.0169 93.3582 12.0169 92.9227 11.9443C92.8595 11.8471 92.8231 11.7383 92.8139 11.6177C93.0751 10.1118 93.3292 8.60584 93.5759 7.09997Z" fill="#FEFFFE"/>
<path opacity="0.971" fill-rule="evenodd" clip-rule="evenodd" d="M97.2774 2.20117C99.1643 2.20117 101.051 2.20117 102.938 2.20117C102.956 2.7829 102.938 3.3635 102.884 3.94297C102.295 4.04891 101.696 4.08521 101.088 4.05183C101.106 7.8259 101.088 11.5998 101.033 15.3735C100.408 15.4796 99.7731 15.5159 99.1281 15.4824C99.1463 11.7446 99.1281 8.00698 99.0736 4.26955C98.4796 4.09045 97.8628 3.98159 97.223 3.94297C97.138 3.35329 97.156 2.77269 97.2774 2.20117Z" fill="#FEFFFE"/>
<path opacity="0.97" fill-rule="evenodd" clip-rule="evenodd" d="M104.353 2.20117C105.95 2.20117 107.547 2.20117 109.143 2.20117C109.177 2.81008 109.14 3.40882 109.034 3.9974C108.128 4.0518 107.221 4.06994 106.313 4.05183C106.277 5.17907 106.313 6.30398 106.422 7.42656C107.323 7.53214 108.23 7.56843 109.143 7.53542C109.177 8.14433 109.14 8.74307 109.034 9.33164C108.128 9.38604 107.221 9.40419 106.313 9.38608C106.313 10.8013 106.313 12.2165 106.313 13.6317C107.221 13.6136 108.128 13.6317 109.034 13.6861C109.14 14.2747 109.177 14.8735 109.143 15.4824C107.547 15.6275 105.95 15.6275 104.353 15.4824C104.353 11.0553 104.353 6.62824 104.353 2.20117Z" fill="#FEFFFE"/>
<path opacity="0.971" fill-rule="evenodd" clip-rule="evenodd" d="M115.24 2.20057C115.885 2.16701 116.52 2.2033 117.145 2.30943C117.218 6.66391 117.218 11.0184 117.145 15.3729C116.52 15.479 115.885 15.5153 115.24 15.4818C115.24 11.0547 115.24 6.62763 115.24 2.20057Z" fill="#FEFFFE"/>
<path opacity="0.975" fill-rule="evenodd" clip-rule="evenodd" d="M125.69 2.20057C126.336 2.16701 126.971 2.2033 127.596 2.30943C127.65 6.04685 127.668 9.78445 127.65 13.5222C128.558 13.5042 129.465 13.5222 130.372 13.5767C130.477 14.2016 130.514 14.8367 130.48 15.4818C128.883 15.4818 127.287 15.4818 125.69 15.4818C125.69 11.0547 125.69 6.62763 125.69 2.20057Z" fill="#FEFFFE"/>
<path opacity="0.958" fill-rule="evenodd" clip-rule="evenodd" d="M134.182 2.20117C134.799 2.20117 135.415 2.20117 136.032 2.20117C136.898 6.61756 137.696 11.0265 138.427 15.4279C137.81 15.5005 137.194 15.5005 136.577 15.4279C136.427 14.9128 136.319 14.3867 136.25 13.8494C135.485 13.8135 134.723 13.8498 133.964 13.9583C133.843 14.4276 133.734 14.8993 133.637 15.3735C132.988 15.4819 132.335 15.5182 131.678 15.4824C132.466 11.0459 133.3 6.6188 134.182 2.20117ZM135.052 7.09997C135.37 8.62256 135.66 10.1648 135.923 11.7266C135.879 11.8295 135.807 11.9021 135.706 11.9443C135.27 12.0169 134.835 12.0169 134.399 11.9443C134.336 11.8471 134.3 11.7383 134.29 11.6177C134.552 10.1118 134.805 8.60584 135.052 7.09997Z" fill="#FEFFFE"/>
<path opacity="0.977" fill-rule="evenodd" clip-rule="evenodd" d="M139.843 2.20057C140.451 2.16719 141.05 2.20348 141.639 2.30943C142.458 4.51466 143.256 6.72819 144.034 8.95002C144.07 6.73649 144.107 4.52296 144.143 2.30943C144.767 2.2033 145.402 2.16701 146.048 2.20057C146.048 6.62763 146.048 11.0547 146.048 15.4818C145.439 15.5152 144.84 15.4788 144.251 15.3729C143.41 13.2124 142.612 11.0352 141.856 8.84116C141.821 11.0184 141.784 13.1956 141.748 15.3729C141.123 15.479 140.488 15.5153 139.843 15.4818C139.843 11.0547 139.843 6.62763 139.843 2.20057Z" fill="#FEFFFE"/>
<path opacity="0.97" fill-rule="evenodd" clip-rule="evenodd" d="M147.68 2.20113C148.987 2.18301 150.293 2.20114 151.599 2.25556C152.79 2.72476 153.389 3.6138 153.396 4.92268C153.469 7.53538 153.469 10.1481 153.396 12.7608C153.389 14.0696 152.79 14.9587 151.599 15.4279C150.293 15.4823 148.987 15.5005 147.68 15.4823C147.68 11.0552 147.68 6.6282 147.68 2.20113ZM149.64 3.94293C150.041 3.92493 150.44 3.94308 150.837 3.99736C151.089 4.11813 151.252 4.31771 151.327 4.5961C151.545 7.42651 151.545 10.2569 151.327 13.0873C151.252 13.3657 151.089 13.5654 150.837 13.6861C150.44 13.7404 150.041 13.7585 149.64 13.7405C149.64 10.4747 149.64 7.20879 149.64 3.94293Z" fill="#FEFFFE"/>
<path opacity="0.908" fill-rule="evenodd" clip-rule="evenodd" d="M10.4052 3.94238C10.9261 5.27647 11.4523 6.6191 11.9837 7.97028C12.1158 8.82291 11.8799 9.54867 11.2761 10.1475C9.82487 8.22881 9.53458 6.16043 10.4052 3.94238Z" fill="#FEFFFE"/>
<path opacity="0.91" fill-rule="evenodd" clip-rule="evenodd" d="M176.747 3.94238C177.34 4.99272 177.503 6.11762 177.237 7.31711C177.021 8.38671 176.567 9.33019 175.876 10.1475C175.31 9.44571 175.111 8.6474 175.277 7.75256C175.83 6.5028 176.32 5.23274 176.747 3.94238Z" fill="#FEFFFE"/>
<path opacity="0.912" fill-rule="evenodd" clip-rule="evenodd" d="M7.79266 6.22852C8.14107 6.5949 8.41322 7.03035 8.60912 7.53486C9.19599 8.30334 9.7403 9.10167 10.2421 9.92983C10.6444 10.9131 10.5719 11.8566 10.0243 12.7602C8.06828 10.9907 7.32438 8.81345 7.79266 6.22852Z" fill="#FEFFFE"/>
<path opacity="0.917" fill-rule="evenodd" clip-rule="evenodd" d="M179.251 6.22852C179.369 6.24158 179.441 6.31416 179.468 6.44624C179.802 7.98439 179.566 9.43589 178.761 10.8007C178.334 11.5353 177.808 12.1885 177.182 12.7602C176.566 11.5752 176.62 10.414 177.345 9.27666C178.119 8.34604 178.754 7.32999 179.251 6.22852Z" fill="#FEFFFE"/>
<path opacity="0.924" fill-rule="evenodd" clip-rule="evenodd" d="M5.83323 8.8418C6.94573 10.2639 8.12507 11.6428 9.37125 12.9786C9.94577 14.0056 10.0002 15.0579 9.53454 16.1356C7.27774 14.6523 6.00768 12.5659 5.72437 9.87599C5.7343 9.52573 5.77059 9.18101 5.83323 8.8418Z" fill="#FEFFFE"/>
<path opacity="0.93" fill-rule="evenodd" clip-rule="evenodd" d="M181.319 8.8418C181.512 9.32162 181.566 9.82964 181.482 10.3659C181.053 12.8193 179.801 14.7426 177.727 16.1356C177.184 14.8085 177.348 13.5748 178.216 12.4342C179.355 11.3149 180.389 10.1175 181.319 8.8418Z" fill="#FEFFFE"/>
<path opacity="0.928" fill-rule="evenodd" clip-rule="evenodd" d="M4.20012 12.7607C5.16497 13.9986 6.23545 15.1598 7.41155 16.2443C8.47699 17.433 8.73101 18.7756 8.17359 20.2722C6.85774 19.3194 5.76912 18.1582 4.90772 16.7886C4.21442 15.5184 3.97855 14.1758 4.20012 12.7607Z" fill="#FEFFFE"/>
<path opacity="0.925" fill-rule="evenodd" clip-rule="evenodd" d="M182.952 12.7607C183.112 13.0347 183.185 13.3432 183.17 13.6861C183.059 15.4492 182.424 16.9913 181.265 18.3127C180.602 19.0672 179.857 19.7204 179.033 20.2722C178.557 19.1082 178.648 17.9832 179.305 16.8975C180.173 15.921 181.08 14.9775 182.027 14.0671C182.363 13.6475 182.671 13.2121 182.952 12.7607Z" fill="#FEFFFE"/>
<path opacity="0.939" fill-rule="evenodd" clip-rule="evenodd" d="M1.80518 17.0059C3.09996 18.234 4.51517 19.3045 6.0508 20.2173C7.64441 21.3185 8.2613 22.8245 7.90146 24.7351C5.37704 23.6439 3.50824 21.8659 2.29506 19.4008C2.00302 18.6282 1.83972 17.8299 1.80518 17.0059Z" fill="#FEFFFE"/>
<path opacity="0.938" fill-rule="evenodd" clip-rule="evenodd" d="M185.238 17.0059C185.349 18.5789 184.895 19.9941 183.877 21.2515C182.606 22.74 181.082 23.9012 179.305 24.7351C178.967 22.9885 179.494 21.5551 180.883 20.435C182.002 19.7153 183.091 18.9533 184.149 18.1489C184.535 17.7822 184.897 17.4011 185.238 17.0059Z" fill="#FEFFFE"/>
<path opacity="0.957" fill-rule="evenodd" clip-rule="evenodd" d="M56.8895 19.5101C57.6974 19.4675 58.4957 19.522 59.2845 19.6734C60.2618 20.2295 60.7517 21.0822 60.7541 22.2317C60.8267 22.8486 60.8267 23.4654 60.7541 24.0823C60.1291 24.1885 59.494 24.2247 58.849 24.1912C58.872 23.3404 58.7812 22.5059 58.5769 21.6873C58.1785 21.2938 57.7431 21.2576 57.2705 21.5785C57.1646 21.7845 57.092 22.0022 57.0528 22.2317C56.9802 24.917 56.9802 27.6022 57.0528 30.2875C57.1487 31.0347 57.566 31.3068 58.3047 31.1039C58.3954 31.0132 58.4862 30.9225 58.5769 30.8318C58.7812 30.0132 58.872 29.1787 58.849 28.3279C59.494 28.2944 60.1291 28.3307 60.7541 28.4368C60.9467 29.7857 60.729 31.0558 60.1009 32.247C59.5094 32.8676 58.7837 33.1216 57.9237 33.009C56.3008 33.0919 55.3574 32.3298 55.0933 30.7229C55.0207 27.7474 55.0207 24.7717 55.0933 21.7962C55.2344 20.6589 55.8331 19.8969 56.8895 19.5101Z" fill="#FEFFFE"/>
<path opacity="0.957" fill-rule="evenodd" clip-rule="evenodd" d="M119.05 19.5101C119.857 19.4675 120.655 19.522 121.445 19.6734C122.422 20.2295 122.912 21.0822 122.914 22.2317C122.987 22.8486 122.987 23.4654 122.914 24.0823C122.289 24.1885 121.655 24.2247 121.009 24.1912C121.032 23.3404 120.942 22.5059 120.737 21.6873C120.339 21.2938 119.903 21.2576 119.431 21.5785C119.325 21.7845 119.252 22.0022 119.213 22.2317C119.14 24.917 119.14 27.6022 119.213 30.2875C119.309 31.0347 119.726 31.3068 120.465 31.1039C120.555 31.0132 120.647 30.9225 120.737 30.8318C120.942 30.0132 121.032 29.1787 121.009 28.3279C121.655 28.2944 122.289 28.3307 122.914 28.4368C123.107 29.7857 122.889 31.0558 122.261 32.247C121.67 32.8676 120.944 33.1216 120.084 33.009C118.461 33.0919 117.518 32.3298 117.253 30.7229C117.18 27.7474 117.18 24.7717 117.253 21.7962C117.395 20.6589 117.994 19.8969 119.05 19.5101Z" fill="#FEFFFE"/>
<path opacity="0.962" fill-rule="evenodd" clip-rule="evenodd" d="M126.344 19.5097C127.034 19.4916 127.724 19.5097 128.412 19.5641C129.603 20.0333 130.202 20.9224 130.208 22.2313C130.312 25.1381 130.275 28.0411 130.099 30.9402C129.958 31.9697 129.395 32.6411 128.412 32.9542C127.723 33.0268 127.033 33.0268 126.344 32.9542C125.266 32.6016 124.667 31.8576 124.547 30.7225C124.474 27.747 124.474 24.7713 124.547 21.7958C124.689 20.6585 125.288 19.8965 126.344 19.5097ZM126.997 21.3604C127.409 21.2857 127.753 21.3945 128.031 21.6869C128.158 22.073 128.231 22.4722 128.249 22.8844C128.322 25.1343 128.322 27.384 128.249 29.6339C128.297 30.2046 128.133 30.6945 127.759 31.1035C127.02 31.3064 126.603 31.0343 126.507 30.2871C126.434 27.6018 126.434 24.9166 126.507 22.2313C126.534 21.8497 126.697 21.5595 126.997 21.3604Z" fill="#FEFFFE"/>
<path opacity="0.957" fill-rule="evenodd" clip-rule="evenodd" d="M133.637 19.5101C134.445 19.4675 135.243 19.522 136.032 19.6734C137.01 20.2295 137.5 21.0822 137.502 22.2317C137.575 22.8486 137.575 23.4654 137.502 24.0823C136.877 24.1885 136.242 24.2247 135.597 24.1912C135.62 23.3404 135.529 22.5059 135.325 21.6873C134.926 21.2938 134.491 21.2576 134.018 21.5785C133.913 21.7845 133.84 22.0022 133.801 22.2317C133.728 24.917 133.728 27.6022 133.801 30.2875C133.896 31.0347 134.313 31.3068 135.053 31.1039C135.143 31.0132 135.234 30.9225 135.325 30.8318C135.529 30.0132 135.62 29.1787 135.597 28.3279C136.242 28.2944 136.877 28.3307 137.502 28.4368C137.695 29.7857 137.477 31.0558 136.849 32.247C136.258 32.8676 135.532 33.1216 134.671 33.009C133.048 33.0919 132.106 32.3298 131.841 30.7229C131.768 27.7474 131.768 24.7717 131.841 21.7962C131.983 20.6589 132.581 19.8969 133.637 19.5101Z" fill="#FEFFFE"/>
<path opacity="0.962" fill-rule="evenodd" clip-rule="evenodd" d="M140.931 19.5097C141.621 19.4916 142.311 19.5097 142.999 19.5641C144.19 20.0333 144.789 20.9224 144.796 22.2313C144.899 25.1381 144.862 28.0411 144.687 30.9402C144.545 31.9697 143.982 32.6411 142.999 32.9542C142.31 33.0268 141.62 33.0268 140.931 32.9542C139.853 32.6016 139.255 31.8576 139.135 30.7225C139.062 27.747 139.062 24.7713 139.135 21.7958C139.276 20.6585 139.875 19.8965 140.931 19.5097ZM141.584 21.3604C141.997 21.2857 142.341 21.3945 142.618 21.6869C142.746 22.073 142.819 22.4722 142.836 22.8844C142.909 25.1343 142.909 27.384 142.836 29.6339C142.884 30.2046 142.721 30.6945 142.346 31.1035C141.607 31.3064 141.19 31.0343 141.094 30.2871C141.021 27.6018 141.021 24.9166 141.094 22.2313C141.122 21.8497 141.285 21.5595 141.584 21.3604Z" fill="#FEFFFE"/>
<path opacity="0.957" fill-rule="evenodd" clip-rule="evenodd" d="M148.225 19.5101C149.033 19.4675 149.831 19.522 150.62 19.6734C151.598 20.2295 152.087 21.0822 152.09 22.2317C152.162 22.8486 152.162 23.4654 152.09 24.0823C151.465 24.1885 150.83 24.2247 150.184 24.1912C150.207 23.3404 150.117 22.5059 149.912 21.6873C149.514 21.2938 149.078 21.2576 148.606 21.5785C148.5 21.7845 148.427 22.0022 148.388 22.2317C148.315 24.917 148.315 27.6022 148.388 30.2875C148.484 31.0347 148.901 31.3068 149.64 31.1039C149.731 31.0132 149.822 30.9225 149.912 30.8318C150.117 30.0132 150.207 29.1787 150.184 28.3279C150.83 28.2944 151.465 28.3307 152.09 28.4368C152.282 29.7857 152.065 31.0558 151.436 32.247C150.845 32.8676 150.119 33.1216 149.259 33.009C147.636 33.0919 146.693 32.3298 146.429 30.7229C146.356 27.7474 146.356 24.7717 146.429 21.7962C146.57 20.6589 147.169 19.8969 148.225 19.5101Z" fill="#FEFFFE"/>
<path opacity="0.969" fill-rule="evenodd" clip-rule="evenodd" d="M21.4004 19.6191C22.7073 19.6009 24.0136 19.6191 25.3194 19.6736C26.264 19.9652 26.8264 20.6002 27.0068 21.5786C27.2222 23.212 27.2222 24.8449 27.0068 26.4774C26.8264 27.4559 26.264 28.0909 25.3194 28.3825C24.697 28.4055 24.08 28.4599 23.4688 28.5458C23.3781 29.9596 23.3237 31.3748 23.3055 32.7914C22.6805 32.8976 22.0454 32.9338 21.4004 32.9003C21.4004 28.4732 21.4004 24.0462 21.4004 19.6191ZM23.3599 21.3609C23.7607 21.343 24.1598 21.361 24.5574 21.4153C24.7132 21.466 24.8401 21.5568 24.9384 21.6875C25.2977 23.2482 25.2977 24.8085 24.9384 26.3686C24.8401 26.4993 24.7132 26.5901 24.5574 26.6407C24.1598 26.6951 23.7607 26.7131 23.3599 26.6952C23.3599 24.9171 23.3599 23.139 23.3599 21.3609Z" fill="#FEFFFE"/>
<path opacity="0.97" fill-rule="evenodd" clip-rule="evenodd" d="M28.6941 19.6191C30.2908 19.6191 31.8873 19.6191 33.484 19.6191C33.5174 20.228 33.4811 20.8267 33.3752 21.4154C32.4687 21.4698 31.5615 21.4879 30.6536 21.4698C30.6175 22.5971 30.6537 23.7219 30.7625 24.8445C31.6636 24.9501 32.5708 24.9864 33.484 24.9534C33.5174 25.5623 33.4811 26.161 33.3752 26.7496C32.4687 26.804 31.5615 26.8221 30.6536 26.804C30.6536 28.2193 30.6536 29.6345 30.6536 31.0497C31.5615 31.0316 32.4687 31.0497 33.3752 31.1041C33.4811 31.6927 33.5174 32.2915 33.484 32.9003C31.8873 33.0454 30.2908 33.0454 28.6941 32.9003C28.6941 28.4732 28.6941 24.0462 28.6941 19.6191Z" fill="#FEFFFE"/>
<path opacity="0.966" fill-rule="evenodd" clip-rule="evenodd" d="M35.0081 19.6186C36.4313 19.5703 37.8465 19.6248 39.2537 19.7818C40.0131 20.1923 40.4666 20.8273 40.6145 21.6869C40.7796 22.8796 40.8159 24.0771 40.7233 25.2794C40.665 26.0726 40.3746 26.7621 39.8524 27.3478C39.8342 27.4566 39.8162 27.5655 39.798 27.6744C40.129 29.3835 40.4376 31.089 40.7233 32.7909C40.0942 32.9332 39.4592 32.9332 38.8182 32.7909C38.4983 31.2706 38.1899 29.7465 37.8929 28.2187C37.6255 28.0204 37.3171 27.9478 36.9676 28.0009C36.9858 29.5979 36.9676 31.1946 36.9131 32.7909C36.2882 32.897 35.6531 32.9333 35.0081 32.8997C35.0081 28.4726 35.0081 24.0457 35.0081 19.6186ZM36.9676 21.3603C37.3684 21.3424 37.7675 21.3605 38.1651 21.4148C38.4171 21.5355 38.5804 21.7352 38.6549 22.0135C38.8727 23.211 38.8727 24.4085 38.6549 25.606C38.4239 26.0694 38.0429 26.2871 37.5119 26.2591C37.3601 26.246 37.2149 26.2097 37.0764 26.1503C36.9677 24.5552 36.9313 22.9587 36.9676 21.3603Z" fill="#FEFFFE"/>
<path opacity="0.974" fill-rule="evenodd" clip-rule="evenodd" d="M42.302 19.6191C43.8987 19.6191 45.4953 19.6191 47.0919 19.6191C47.1254 20.228 47.089 20.8267 46.9831 21.4154C46.0766 21.4698 45.1694 21.4879 44.2615 21.4698C44.2254 22.5971 44.2616 23.7219 44.3704 24.8445C45.0544 24.931 45.7438 24.9854 46.4388 25.0078C46.5839 25.5884 46.5839 26.1691 46.4388 26.7496C45.714 26.804 44.9882 26.8221 44.2615 26.804C44.2797 28.8001 44.2615 30.796 44.2071 32.7915C43.5821 32.8976 42.947 32.9339 42.302 32.9003C42.302 28.4732 42.302 24.0462 42.302 19.6191Z" fill="#FEFFFE"/>
<path opacity="0.97" fill-rule="evenodd" clip-rule="evenodd" d="M48.616 19.6191C50.2126 19.6191 51.8092 19.6191 53.4059 19.6191C53.4393 20.228 53.403 20.8267 53.297 21.4154C52.3905 21.4698 51.4834 21.4879 50.5755 21.4698C50.5393 22.5971 50.5756 23.7219 50.6843 24.8445C51.5855 24.9501 52.4927 24.9864 53.4059 24.9534C53.4393 25.5623 53.403 26.161 53.297 26.7496C52.3905 26.804 51.4834 26.8221 50.5755 26.804C50.5755 28.2193 50.5755 29.6345 50.5755 31.0497C51.4834 31.0316 52.3905 31.0497 53.297 31.1041C53.403 31.6927 53.4393 32.2915 53.4059 32.9003C51.8092 33.0454 50.2126 33.0454 48.616 32.9003C48.616 28.4732 48.616 24.0462 48.616 19.6191Z" fill="#FEFFFE"/>
<path opacity="0.971" fill-rule="evenodd" clip-rule="evenodd" d="M62.1148 19.6191C64.0017 19.6191 65.8887 19.6191 67.7756 19.6191C67.7937 20.2009 67.7755 20.7815 67.7212 21.3609C67.1326 21.4669 66.5339 21.5032 65.925 21.4698C65.9432 25.2438 65.925 29.0178 65.8706 32.7915C65.2456 32.8976 64.6105 32.9339 63.9655 32.9003C63.9837 29.1625 63.9655 25.425 63.911 21.6875C63.317 21.5084 62.7002 21.3996 62.0604 21.3609C61.9754 20.7712 61.9934 20.1907 62.1148 19.6191Z" fill="#FEFFFE"/>
<path opacity="0.97" fill-rule="evenodd" clip-rule="evenodd" d="M73.5454 19.6191C74.8523 19.6009 76.1586 19.6191 77.4644 19.6736C78.6556 20.1428 79.2544 21.0318 79.2607 22.3407C79.3333 24.9534 79.3333 27.5661 79.2607 30.1788C79.2544 31.4876 78.6556 32.3767 77.4644 32.8459C76.1586 32.9003 74.8523 32.9185 73.5454 32.9003C73.5454 28.4732 73.5454 24.0462 73.5454 19.6191ZM75.5049 21.3609C75.9058 21.343 76.3048 21.361 76.7024 21.4153C76.9544 21.5361 77.1177 21.7357 77.1923 22.0141C77.41 24.8445 77.41 27.6749 77.1923 30.5053C77.1177 30.7837 76.9544 30.9834 76.7024 31.1041C76.3048 31.1584 75.9058 31.1765 75.5049 31.1585C75.5049 27.8926 75.5049 24.6268 75.5049 21.3609Z" fill="#FEFFFE"/>
<path opacity="0.958" fill-rule="evenodd" clip-rule="evenodd" d="M82.9076 19.6191C83.5246 19.6191 84.1414 19.6191 84.7583 19.6191C85.6237 24.0356 86.4221 28.4445 87.1533 32.8459C86.5363 32.9185 85.9195 32.9185 85.3026 32.8459C85.1531 32.3308 85.0443 31.8046 84.976 31.2674C84.2105 31.2315 83.4485 31.2677 82.6899 31.3763C82.5694 31.8456 82.4605 32.3173 82.3633 32.7915C81.7142 32.8999 81.061 32.9361 80.4038 32.9003C81.1916 28.4639 82.0262 24.0368 82.9076 19.6191ZM83.7785 24.5179C84.0961 26.0405 84.3864 27.5827 84.6494 29.1446C84.6053 29.2475 84.5327 29.3201 84.4317 29.3623C83.9963 29.4349 83.5608 29.4349 83.1254 29.3623C83.0621 29.2651 83.0258 29.1562 83.0165 29.0357C83.2778 27.5297 83.5319 26.0238 83.7785 24.5179Z" fill="#FEFFFE"/>
<path opacity="0.958" fill-rule="evenodd" clip-rule="evenodd" d="M87.5886 19.6185C88.2336 19.585 88.8687 19.6212 89.4937 19.7274C89.7815 21.1484 90.0899 22.5636 90.419 23.973C90.7594 22.561 91.086 21.1458 91.3988 19.7274C92.0124 19.6008 92.6294 19.5826 93.2494 19.673C93.3103 19.7519 93.3465 19.8426 93.3583 19.9451C92.7233 22.6304 92.0882 25.3156 91.4532 28.0009C91.417 29.5976 91.3806 31.1942 91.3443 32.7909C90.7194 32.897 90.0843 32.9332 89.4393 32.8997C89.4574 31.3752 89.4393 29.8511 89.3848 28.3275C88.7775 25.5087 88.1425 22.6964 87.4797 19.8907C87.5062 19.7925 87.5425 19.7018 87.5886 19.6185Z" fill="#FEFFFE"/>
<path opacity="0.958" fill-rule="evenodd" clip-rule="evenodd" d="M101.196 19.6191C101.813 19.6191 102.43 19.6191 103.047 19.6191C103.913 24.0356 104.711 28.4445 105.442 32.8459C104.825 32.9185 104.208 32.9185 103.591 32.8459C103.442 32.3308 103.333 31.8046 103.265 31.2674C102.499 31.2315 101.737 31.2677 100.979 31.3763C100.858 31.8456 100.749 32.3173 100.652 32.7915C100.003 32.8999 99.3498 32.9361 98.6926 32.9003C99.4805 28.4639 100.315 24.0368 101.196 19.6191ZM102.067 24.5179C102.385 26.0405 102.675 27.5827 102.938 29.1446C102.894 29.2475 102.822 29.3201 102.721 29.3623C102.285 29.4349 101.85 29.4349 101.414 29.3623C101.351 29.2651 101.315 29.1562 101.305 29.0357C101.567 27.5297 101.821 26.0238 102.067 24.5179Z" fill="#FEFFFE"/>
<path opacity="0.971" fill-rule="evenodd" clip-rule="evenodd" d="M105.769 19.6191C107.656 19.6191 109.543 19.6191 111.429 19.6191C111.448 20.2009 111.429 20.7815 111.375 21.3609C110.786 21.4669 110.187 21.5032 109.579 21.4698C109.597 25.2438 109.579 29.0178 109.524 32.7915C108.899 32.8976 108.264 32.9339 107.619 32.9003C107.637 29.1625 107.619 25.425 107.565 21.6875C106.971 21.5084 106.354 21.3996 105.714 21.3609C105.629 20.7712 105.647 20.1907 105.769 19.6191Z" fill="#FEFFFE"/>
<path opacity="0.958" fill-rule="evenodd" clip-rule="evenodd" d="M155.736 19.6191C156.354 19.6191 156.97 19.6191 157.587 19.6191C158.452 24.0356 159.25 28.4445 159.982 32.8459C159.365 32.9185 158.748 32.9185 158.131 32.8459C157.982 32.3308 157.873 31.8046 157.805 31.2674C157.039 31.2315 156.277 31.2677 155.519 31.3763C155.398 31.8456 155.289 32.3173 155.192 32.7915C154.543 32.8999 153.89 32.9361 153.232 32.9003C154.021 28.4639 154.854 24.0368 155.736 19.6191ZM156.607 24.5179C156.925 26.0405 157.215 27.5827 157.478 29.1446C157.433 29.2475 157.362 29.3201 157.26 29.3623C156.825 29.4349 156.389 29.4349 155.954 29.3623C155.891 29.2651 155.855 29.1562 155.845 29.0357C156.106 27.5297 156.36 26.0238 156.607 24.5179Z" fill="#FEFFFE"/>
<path opacity="0.958" fill-rule="evenodd" clip-rule="evenodd" d="M160.309 19.6185C160.954 19.585 161.589 19.6212 162.214 19.7274C162.501 21.1484 162.81 22.5636 163.139 23.973C163.48 22.561 163.806 21.1458 164.119 19.7274C164.733 19.6008 165.349 19.5826 165.969 19.673C166.03 19.7519 166.066 19.8426 166.078 19.9451C165.444 22.6304 164.808 25.3156 164.173 28.0009C164.137 29.5976 164.1 31.1942 164.064 32.7909C163.439 32.897 162.805 32.9332 162.159 32.8997C162.178 31.3752 162.159 29.8511 162.105 28.3275C161.497 25.5087 160.863 22.6964 160.2 19.8907C160.226 19.7925 160.263 19.7018 160.309 19.6185Z" fill="#FEFFFE"/>
<path opacity="0.941" fill-rule="evenodd" clip-rule="evenodd" d="M0.934326 21.7959C1.49252 22.2389 2.07312 22.6561 2.67612 23.0478C4.09006 23.7547 5.46898 24.5167 6.81288 25.3339C7.92449 26.3417 8.41437 27.5936 8.28252 29.0897C6.10024 28.3982 4.2133 27.237 2.62169 25.6061C1.67028 24.513 1.10783 23.243 0.934326 21.7959Z" fill="#FEFFFE"/>
<path opacity="0.943" fill-rule="evenodd" clip-rule="evenodd" d="M186.218 21.7959C186.175 22.8842 185.83 23.9003 185.183 24.844C183.57 26.9043 181.502 28.3195 178.978 29.0897C178.816 27.1826 179.56 25.7492 181.21 24.7896C183.013 23.9807 184.682 22.9827 186.218 21.7959Z" fill="#FEFFFE"/>
<path opacity="0.941" fill-rule="evenodd" clip-rule="evenodd" d="M1.1521 27.2393C1.71605 27.6389 2.29664 28.0199 2.89389 28.3823C4.33178 29.0306 5.74699 29.7201 7.13952 30.4507C8.29307 31.3878 8.87366 32.6034 8.88131 34.0976C6.0502 33.5086 3.78224 32.0571 2.07743 29.7431C1.58486 28.9758 1.27642 28.1412 1.1521 27.2393Z" fill="#FEFFFE"/>
<path opacity="0.941" fill-rule="evenodd" clip-rule="evenodd" d="M186 27.2393C185.983 28.0368 185.747 28.7988 185.292 29.5254C183.566 31.9767 181.225 33.4827 178.271 34.0431C178.38 32.4084 179.106 31.1383 180.448 30.233C181.876 29.5732 183.291 28.8837 184.694 28.1646C185.155 27.8805 185.591 27.572 186 27.2393Z" fill="#FEFFFE"/>
<path opacity="0.947" fill-rule="evenodd" clip-rule="evenodd" d="M0.825439 32.6826C2.86332 33.5858 4.96798 34.3298 7.13945 34.9143C9.0225 35.6585 10.0385 37.0193 10.1876 38.9966C8.08774 38.7259 6.12822 38.0546 4.30903 36.9827C2.72563 35.9704 1.56443 34.6096 0.825439 32.9003C0.825439 32.8277 0.825439 32.7552 0.825439 32.6826Z" fill="#FEFFFE"/>
<path opacity="0.947" fill-rule="evenodd" clip-rule="evenodd" d="M186.435 32.6826C186.435 32.7189 186.435 32.7552 186.435 32.7915C185.324 35.2273 183.509 36.9509 180.992 37.9624C179.65 38.5162 178.271 38.8247 176.855 38.8878C177.259 36.8696 178.421 35.5088 180.339 34.8054C182.441 34.2803 184.473 33.5727 186.435 32.6826Z" fill="#FEFFFE"/>
<path opacity="0.881" fill-rule="evenodd" clip-rule="evenodd" d="M86.3911 36.7101C87.2565 36.5919 88.0548 36.7552 88.7861 37.2C88.6545 37.4449 88.5094 37.6808 88.3506 37.9076C87.6899 37.4104 87.0187 37.3741 86.3367 37.7987C86.1342 38.1773 86.1886 38.5221 86.4999 38.8329C87.0848 39.0007 87.6654 39.1821 88.2417 39.3772C88.5554 39.5134 88.7549 39.7492 88.8405 40.0848C89.1523 41.1481 88.8075 41.892 87.8063 42.3165C86.8604 42.5048 85.9895 42.3415 85.1936 41.8266C85.2862 41.5673 85.4314 41.3496 85.6291 41.1734C86.4228 41.7279 87.203 41.7279 87.9696 41.1734C88.0984 40.7626 88.0076 40.4178 87.6974 40.1392C87.0561 39.9892 86.4392 39.7715 85.8468 39.4861C85.679 39.3142 85.552 39.1145 85.4658 38.8873C85.1575 37.8732 85.466 37.1474 86.3911 36.7101Z" fill="#FEFFFE"/>
<path opacity="0.89" fill-rule="evenodd" clip-rule="evenodd" d="M140.278 36.7102C141.045 36.6251 141.771 36.7521 142.455 37.0912C142.568 37.3973 142.495 37.6695 142.237 37.9077C141.515 37.3465 140.807 37.3465 140.115 37.9077C139.939 38.949 139.902 40.0014 140.006 41.0647C140.373 41.6209 140.862 41.7479 141.475 41.4457C141.639 41.355 141.766 41.228 141.856 41.0647C141.911 40.74 141.928 40.4135 141.911 40.0849C141.548 40.0849 141.185 40.0849 140.822 40.0849C140.822 39.8309 140.822 39.5769 140.822 39.3229C141.475 39.3229 142.128 39.3229 142.782 39.3229C142.782 40.3389 142.782 41.355 142.782 42.371C142.528 42.371 142.273 42.371 142.02 42.371C142.037 42.2216 142.019 42.0763 141.965 41.9356C141.275 42.3977 140.531 42.4885 139.734 42.2077C139.449 41.9968 139.25 41.7246 139.135 41.3913C139.062 40.1938 139.062 38.9963 139.135 37.7988C139.364 37.2607 139.745 36.8979 140.278 36.7102Z" fill="#FEFFFE"/>
<path opacity="0.885" fill-rule="evenodd" clip-rule="evenodd" d="M44.9145 36.8193C45.858 36.8193 46.8014 36.8193 47.745 36.8193C47.745 37.0733 47.745 37.3274 47.745 37.5814C47.0908 37.5633 46.4376 37.5815 45.7854 37.6358C45.6771 38.1207 45.6227 38.6106 45.6221 39.1054C47.0788 38.5904 47.859 39.0984 47.9627 40.6295C48.0481 41.4951 47.6852 42.0575 46.8741 42.3169C46.366 42.3895 45.858 42.3895 45.35 42.3169C44.4795 42.183 44.3162 41.802 44.8601 41.1738C45.4756 41.6318 46.1288 41.7044 46.8196 41.3915C47.2853 40.5377 47.0676 39.9572 46.1664 39.6498C45.8281 39.7252 45.5015 39.8341 45.1867 39.9763C44.9797 39.8636 44.7801 39.7366 44.5879 39.5953C44.764 38.6825 44.8728 37.7572 44.9145 36.8193Z" fill="#FEFFFE"/>
<path opacity="0.893" fill-rule="evenodd" clip-rule="evenodd" d="M55.8008 36.9282C56.1344 36.7847 56.4791 36.7847 56.835 36.9282C57.1699 37.7068 57.5328 38.4688 57.9236 39.2143C58.2684 38.4522 58.613 37.6902 58.9578 36.9282C59.2844 36.7831 59.611 36.7831 59.9375 36.9282C59.4114 38.053 58.8852 39.178 58.359 40.3029C58.3047 40.9551 58.2865 41.6083 58.3046 42.2624C58.0143 42.2624 57.724 42.2624 57.4337 42.2624C57.4518 41.572 57.4337 40.8826 57.3793 40.194C56.8776 39.0822 56.3515 37.9936 55.8008 36.9282Z" fill="#FEFFFE"/>
<path opacity="0.938" fill-rule="evenodd" clip-rule="evenodd" d="M63.3123 36.8193C64.3646 36.8193 65.4169 36.8193 66.4693 36.8193C66.4693 37.0733 66.4693 37.3274 66.4693 37.5814C65.7072 37.5814 64.9452 37.5814 64.1832 37.5814C64.1832 38.0894 64.1832 38.5974 64.1832 39.1054C64.8001 39.1054 65.4169 39.1054 66.0338 39.1054C66.0338 39.3594 66.0338 39.6135 66.0338 39.8675C65.4169 39.8675 64.8001 39.8675 64.1832 39.8675C64.1832 40.4118 64.1832 40.9561 64.1832 41.5004C64.9452 41.5004 65.7072 41.5004 66.4693 41.5004C66.4693 41.7544 66.4693 42.0085 66.4693 42.2624C65.4169 42.2624 64.3646 42.2624 63.3123 42.2624C63.3123 40.448 63.3123 38.6337 63.3123 36.8193Z" fill="#FEFFFE"/>
<path opacity="0.891" fill-rule="evenodd" clip-rule="evenodd" d="M71.8035 36.819C72.1026 36.7849 72.3929 36.8212 72.6744 36.9279C73.2597 38.7019 73.8766 40.4619 74.5251 42.2077C74.1985 42.2803 73.8719 42.2803 73.5453 42.2077C73.3456 41.7718 73.2005 41.3183 73.1099 40.8469C72.5292 40.9732 71.9485 40.9914 71.3681 40.9014C71.2149 41.3135 71.0698 41.7308 70.9326 42.1533C70.6061 42.2984 70.2795 42.2984 69.9529 42.1533C70.5492 40.3639 71.1661 38.5859 71.8035 36.819ZM72.1301 38.0165C72.3959 38.6028 72.6136 39.2198 72.7833 39.8672C72.6743 40.1259 72.4748 40.2348 72.1846 40.1937C71.951 40.2051 71.7514 40.1325 71.5858 39.976C71.812 39.3341 71.9934 38.6809 72.1301 38.0165Z" fill="#FEFFFE"/>
<path opacity="0.908" fill-rule="evenodd" clip-rule="evenodd" d="M77.8999 36.8193C78.7716 36.8012 79.6425 36.8193 80.5126 36.8737C81.614 37.4933 81.8861 38.3824 81.3291 39.5408C81.0859 39.7803 80.8137 39.9799 80.5126 40.1396C80.7347 40.5657 80.9706 40.983 81.2202 41.3915C81.415 41.5797 81.6509 41.6523 81.9278 41.6092C81.9278 41.8632 81.9278 42.1173 81.9278 42.3712C81.5133 42.4079 81.1142 42.3535 80.7303 42.208C80.3169 41.6536 79.9721 41.0549 79.6961 40.4117C79.4312 40.2459 79.1408 40.1371 78.8252 40.0851C78.7708 40.8099 78.7527 41.5357 78.7708 42.2624C78.4805 42.2624 78.1902 42.2624 77.8999 42.2624C77.8999 40.448 77.8999 38.6337 77.8999 36.8193ZM78.7708 37.5813C79.2078 37.5632 79.6432 37.5814 80.0771 37.6357C80.8507 38.0822 80.9233 38.6265 80.2949 39.2687C79.7948 39.4458 79.2867 39.464 78.7708 39.3231C78.7708 38.7425 78.7708 38.1619 78.7708 37.5813Z" fill="#FEFFFE"/>
<path opacity="0.908" fill-rule="evenodd" clip-rule="evenodd" d="M97.1685 36.8193C98.0401 36.8012 98.911 36.8193 99.7811 36.8737C100.883 37.4933 101.155 38.3824 100.598 39.5408C100.354 39.7803 100.082 39.9799 99.7811 40.1396C100.003 40.5657 100.239 40.983 100.489 41.3915C100.684 41.5797 100.919 41.6523 101.196 41.6092C101.196 41.8632 101.196 42.1173 101.196 42.3712C100.782 42.4079 100.383 42.3535 99.9989 42.208C99.5854 41.6536 99.2406 41.0549 98.9647 40.4117C98.6997 40.2459 98.4094 40.1371 98.0938 40.0851C98.0394 40.8099 98.0213 41.5357 98.0394 42.2624C97.749 42.2624 97.4588 42.2624 97.1685 42.2624C97.1685 40.448 97.1685 38.6337 97.1685 36.8193ZM98.0394 37.5813C98.4763 37.5632 98.9118 37.5814 99.3457 37.6357C100.119 38.0822 100.192 38.6265 99.5634 39.2687C99.0633 39.4458 98.5553 39.464 98.0394 39.3231C98.0394 38.7425 98.0394 38.1619 98.0394 37.5813Z" fill="#FEFFFE"/>
<path opacity="0.911" fill-rule="evenodd" clip-rule="evenodd" d="M104.462 36.8193C104.752 36.8193 105.043 36.8193 105.333 36.8193C105.315 38.2712 105.333 39.7228 105.387 41.1738C105.661 41.5779 106.042 41.7049 106.531 41.5548C106.814 41.4587 107.05 41.2954 107.238 41.065C107.293 39.6502 107.311 38.235 107.293 36.8193C107.583 36.8193 107.873 36.8193 108.163 36.8193C108.163 38.6337 108.163 40.448 108.163 42.2624C107.873 42.2624 107.583 42.2624 107.293 42.2624C107.309 42.1479 107.291 42.0391 107.238 41.9359C106.892 42.2807 106.475 42.426 105.986 42.3713C105.255 42.4736 104.765 42.1833 104.517 41.5004C104.462 39.9405 104.444 38.3801 104.462 36.8193Z" fill="#FEFFFE"/>
<path opacity="0.957" fill-rule="evenodd" clip-rule="evenodd" d="M111.865 36.819C112.164 36.7849 112.454 36.8212 112.736 36.9279C113.421 38.1034 114.129 39.2646 114.858 40.4115C114.913 39.2145 114.931 38.017 114.913 36.819C115.167 36.819 115.421 36.819 115.675 36.819C115.675 38.6334 115.675 40.4477 115.675 42.2621C115.376 42.2962 115.086 42.26 114.804 42.1533C114.118 40.9778 113.411 39.8165 112.681 38.6697C112.593 39.836 112.612 40.9972 112.736 42.1533C112.454 42.26 112.164 42.2962 111.865 42.2621C111.865 40.4477 111.865 38.6334 111.865 36.819Z" fill="#FEFFFE"/>
<path opacity="0.957" fill-rule="evenodd" clip-rule="evenodd" d="M119.376 36.819C119.676 36.7849 119.965 36.8212 120.247 36.9279C120.933 38.1034 121.641 39.2646 122.37 40.4115C122.425 39.2145 122.443 38.017 122.425 36.819C122.678 36.819 122.933 36.819 123.187 36.819C123.187 38.6334 123.187 40.4477 123.187 42.2621C122.887 42.2962 122.598 42.26 122.316 42.1533C121.63 40.9778 120.922 39.8165 120.193 38.6697C120.105 39.836 120.123 40.9972 120.247 42.1533C119.965 42.26 119.676 42.2962 119.376 42.2621C119.376 40.4477 119.376 38.6334 119.376 36.819Z" fill="#FEFFFE"/>
<path opacity="0.908" fill-rule="evenodd" clip-rule="evenodd" d="M126.888 36.8193C127.179 36.8193 127.468 36.8193 127.759 36.8193C127.759 38.6337 127.759 40.448 127.759 42.2624C127.468 42.2624 127.179 42.2624 126.888 42.2624C126.888 40.448 126.888 38.6337 126.888 36.8193Z" fill="#FEFFFE"/>
<path opacity="0.957" fill-rule="evenodd" clip-rule="evenodd" d="M131.569 36.819C131.868 36.7849 132.158 36.8212 132.44 36.9279C133.126 38.1034 133.833 39.2646 134.563 40.4115C134.617 39.2145 134.635 38.017 134.617 36.819C134.871 36.819 135.125 36.819 135.379 36.819C135.379 38.6334 135.379 40.4477 135.379 42.2621C135.08 42.2962 134.79 42.26 134.508 42.1533C133.822 40.9778 133.115 39.8165 132.385 38.6697C132.297 39.836 132.316 40.9972 132.44 42.1533C132.158 42.26 131.868 42.2962 131.569 42.2621C131.569 40.4477 131.569 38.6334 131.569 36.819Z" fill="#FEFFFE"/>
<path opacity="0.955" fill-rule="evenodd" clip-rule="evenodd" d="M2.24072 38.7783C4.49502 39.2985 6.78112 39.6069 9.09904 39.7036C11.3336 39.9601 12.8577 41.1395 13.6713 43.2417C10.7715 43.6232 8.01364 43.1696 5.39773 41.8809C4.07128 41.1168 3.01895 40.0826 2.24072 38.7783Z" fill="#FEFFFE"/>
<path opacity="0.954" fill-rule="evenodd" clip-rule="evenodd" d="M184.585 38.7787C184.734 38.7616 184.88 38.7798 185.02 38.8331C183.956 40.4915 182.505 41.689 180.666 42.4256C178.374 43.2246 176.015 43.533 173.59 43.3509C174.346 41.1988 175.871 39.9831 178.162 39.704C179.652 39.5846 181.141 39.4395 182.625 39.2686C183.308 39.1704 183.961 39.0071 184.585 38.7787Z" fill="#FEFFFE"/>
<path opacity="0.956" fill-rule="evenodd" clip-rule="evenodd" d="M10.8407 44.0035C13.3761 43.8558 15.2993 44.8537 16.6104 46.9973C13.8236 47.739 11.0295 47.7753 8.22802 47.1061C6.46166 46.6421 5.01017 45.7168 3.87354 44.3301C5.31446 44.3395 6.76596 44.3213 8.22802 44.2757C9.11789 44.2091 9.98879 44.1184 10.8407 44.0035Z" fill="#FEFFFE"/>
<path opacity="0.954" fill-rule="evenodd" clip-rule="evenodd" d="M175.331 44.0039C176.531 44.0586 177.729 44.1492 178.924 44.2761C180.421 44.3198 181.908 44.338 183.387 44.3305C181.611 46.2711 179.396 47.3416 176.747 47.5419C174.668 47.7453 172.637 47.5457 170.65 46.9432C171.719 45.1581 173.279 44.1783 175.331 44.0039Z" fill="#FEFFFE"/>
<path opacity="0.86" fill-rule="evenodd" clip-rule="evenodd" d="M57.1073 45.7461C57.325 45.7461 57.5427 45.7461 57.7604 45.7461C57.5763 47.1985 57.3767 48.6501 57.1617 50.1006C56.9395 50.2011 56.7036 50.2373 56.4541 50.2094C56.6719 48.7206 56.8897 47.2328 57.1073 45.7461Z" fill="#FEFFFE"/>
<path opacity="0.855" fill-rule="evenodd" clip-rule="evenodd" d="M71.9125 45.7461C72.1302 45.7461 72.3479 45.7461 72.5656 45.7461C72.4474 46.582 72.3567 47.4167 72.2935 48.2499C72.707 47.9454 73.0881 47.6007 73.4365 47.2157C73.7269 47.1431 74.0171 47.1431 74.3074 47.2157C73.8856 47.6559 73.4501 48.0732 73.0011 48.4676C73.1538 48.8351 73.3171 49.198 73.491 49.5563C73.6118 49.7236 73.7751 49.7961 73.9808 49.774C73.9436 50.2426 73.6895 50.4059 73.2188 50.2639C73.1191 50.2232 73.0283 50.1687 72.9466 50.1006C72.7635 49.7344 72.5821 49.3714 72.4023 49.012C72.0802 49.2948 71.935 49.6577 71.9669 50.1006C71.7447 50.2011 71.5088 50.2373 71.2593 50.2094C71.4771 48.7206 71.6948 47.2328 71.9125 45.7461Z" fill="#FEFFFE"/>
<path opacity="0.86" fill-rule="evenodd" clip-rule="evenodd" d="M75.0694 45.7461C75.2872 45.7461 75.5049 45.7461 75.7226 45.7461C75.5384 47.1985 75.3389 48.6501 75.1239 50.1006C74.9017 50.2011 74.6658 50.2373 74.4163 50.2094C74.6341 48.7206 74.8518 47.2328 75.0694 45.7461Z" fill="#FEFFFE"/>
<path opacity="0.885" fill-rule="evenodd" clip-rule="evenodd" d="M92.9228 45.7461C93.1406 45.7461 93.3583 45.7461 93.576 45.7461C93.576 47.2339 93.576 48.7216 93.576 50.2094C93.3619 50.2355 93.1622 50.1992 92.9773 50.1006C92.4062 50.4161 91.8619 50.3797 91.3443 49.9917C91.0301 49.1716 90.9938 48.3369 91.2355 47.4879C91.3625 47.3608 91.4895 47.2339 91.6165 47.1069C92.0436 47.0205 92.4608 47.0387 92.8684 47.1613C92.9227 46.6909 92.9409 46.2192 92.9228 45.7461ZM92.052 47.5968C92.3465 47.6049 92.6369 47.6412 92.9228 47.7056C92.9409 48.2874 92.9227 48.8679 92.8684 49.4474C92.5594 49.7705 92.2328 49.8068 91.8887 49.5563C91.629 48.8658 91.6835 48.2126 92.052 47.5968Z" fill="#FEFFFE"/>
<path opacity="0.823" fill-rule="evenodd" clip-rule="evenodd" d="M103.265 45.7455C103.977 45.6834 104.177 45.9737 103.863 46.6164C103.712 46.8044 103.531 46.9497 103.319 47.0519C102.982 46.9203 102.963 46.7389 103.265 46.5076C103.121 46.2501 103.121 45.9961 103.265 45.7455Z" fill="#FEFFFE"/>
<path opacity="0.89" fill-rule="evenodd" clip-rule="evenodd" d="M109.579 45.7461C109.797 45.7461 110.014 45.7461 110.232 45.7461C110.214 46.2555 110.232 46.7634 110.286 47.2702C110.858 46.9547 111.402 46.991 111.919 47.379C112.073 48.3135 112.127 49.2569 112.083 50.2094C111.865 50.2094 111.647 50.2094 111.43 50.2094C111.448 49.4828 111.43 48.757 111.375 48.0322C111.04 47.4865 110.676 47.4865 110.286 48.0322C110.232 48.757 110.214 49.4828 110.232 50.2094C110.014 50.2094 109.797 50.2094 109.579 50.2094C109.579 48.7216 109.579 47.2339 109.579 45.7461Z" fill="#FEFFFE"/>
<path opacity="0.885" fill-rule="evenodd" clip-rule="evenodd" d="M141.584 45.7461C141.802 45.7461 142.02 45.7461 142.238 45.7461C142.238 47.2339 142.238 48.7216 142.238 50.2094C142.023 50.2355 141.824 50.1992 141.639 50.1006C141.067 50.4161 140.523 50.3797 140.006 49.9917C139.691 49.1716 139.655 48.3369 139.897 47.4879C140.024 47.3608 140.151 47.2339 140.278 47.1069C140.705 47.0205 141.123 47.0387 141.53 47.1613C141.584 46.6909 141.603 46.2192 141.584 45.7461ZM140.713 47.5968C141.008 47.6049 141.298 47.6412 141.584 47.7056C141.603 48.2874 141.584 48.8679 141.53 49.4474C141.221 49.7705 140.894 49.8068 140.55 49.5563C140.29 48.8658 140.344 48.2126 140.713 47.5968Z" fill="#FEFFFE"/>
<path opacity="0.803" fill-rule="evenodd" clip-rule="evenodd" d="M116.546 45.8544C117.162 45.765 117.343 46.0009 117.09 46.562C116.384 46.688 116.203 46.4521 116.546 45.8544Z" fill="#FEFFFE"/>
<path opacity="0.871" fill-rule="evenodd" clip-rule="evenodd" d="M107.075 45.9638C107.512 45.9457 107.947 45.9639 108.381 46.0182C108.581 46.0996 108.762 46.2085 108.926 46.3448C108.83 46.5175 108.721 46.6808 108.599 46.8347C108.177 46.5643 107.742 46.5098 107.293 46.6714C107.162 46.7697 107.071 46.8966 107.021 47.0524C106.948 47.7782 106.948 48.5039 107.021 49.2297C107.145 49.5532 107.381 49.7347 107.728 49.774C108.031 49.6983 108.321 49.5894 108.599 49.4474C108.721 49.6013 108.83 49.7646 108.926 49.9373C108.363 50.3024 107.747 50.4112 107.075 50.2638C106.767 50.1006 106.531 49.8646 106.367 49.5562C106.295 48.6127 106.295 47.6693 106.367 46.7258C106.552 46.4147 106.788 46.1607 107.075 45.9638Z" fill="#FEFFFE"/>
<path opacity="0.904" fill-rule="evenodd" clip-rule="evenodd" d="M42.0842 46.0721C43.0667 46.036 44.0465 46.0723 45.0235 46.181C44.9423 46.3155 44.906 46.4607 44.9146 46.6164C44.5518 46.6164 44.1889 46.6164 43.826 46.6164C43.6604 47.8114 43.5153 49.0089 43.3906 50.2089C43.1366 50.2089 42.8825 50.2089 42.6285 50.2089C42.775 49.0206 42.9563 47.8413 43.1729 46.6709C42.8118 46.6166 42.4489 46.5985 42.0842 46.6164C42.0842 46.4349 42.0842 46.2536 42.0842 46.0721Z" fill="#FEFFFE"/>
<path opacity="0.852" fill-rule="evenodd" clip-rule="evenodd" d="M59.9375 46.0726C60.1915 46.0726 60.4456 46.0726 60.6995 46.0726C60.8224 47.1608 60.9495 48.2494 61.0806 49.3385C61.3269 48.8351 61.5628 48.327 61.7882 47.8144C61.6509 47.2471 61.5058 46.6847 61.3527 46.127C61.5704 46.0544 61.7882 46.0544 62.0059 46.127C62.068 46.4113 62.1587 46.6834 62.278 46.9435C62.4051 46.6895 62.532 46.4355 62.6591 46.1815C62.8768 46.0364 63.0945 46.0364 63.3122 46.1815C63.0219 46.762 62.7317 47.3427 62.4413 47.9233C62.5364 48.326 62.6452 48.725 62.7679 49.1208C63.2289 48.1265 63.6281 47.1105 63.9654 46.0726C64.2293 46.0391 64.4833 46.0754 64.7274 46.1815C64.1469 47.4878 63.5662 48.7942 62.9856 50.1005C62.7679 50.2456 62.5502 50.2456 62.3325 50.1005C62.2393 49.6552 62.1122 49.2197 61.9515 48.7942C61.7337 49.2296 61.516 49.6651 61.2983 50.1005C61.0761 50.201 60.8402 50.2372 60.5907 50.2094C60.3965 48.8265 60.1787 47.4475 59.9375 46.0726Z" fill="#FEFFFE"/>
<path opacity="0.892" fill-rule="evenodd" clip-rule="evenodd" d="M80.6213 46.0722C81.3117 46.0541 82.0012 46.0722 82.6897 46.1266C83.3826 46.48 83.6185 47.0425 83.3973 47.814C83.2801 48.1855 83.0442 48.4577 82.6897 48.6305C82.8776 49.0623 83.1317 49.4433 83.4518 49.7735C83.5155 49.7508 83.57 49.7144 83.615 49.6647C83.6689 49.8794 83.6871 50.0972 83.6695 50.3178C83.3625 50.3453 83.0723 50.2908 82.7986 50.1545C82.458 49.7461 82.1858 49.2925 81.9821 48.7938C81.7636 48.6665 81.5278 48.594 81.2745 48.576C81.2745 49.1203 81.2745 49.6647 81.2745 50.209C81.0568 50.209 80.8391 50.209 80.6213 50.209C80.6213 48.83 80.6213 47.4512 80.6213 46.0722ZM81.2745 46.7254C81.6753 46.7074 82.0744 46.7255 82.472 46.7798C82.9107 47.2106 82.8745 47.6097 82.3631 47.9773C82.0298 48.058 81.7032 48.0399 81.3834 47.9229C81.2757 47.5302 81.2393 47.131 81.2745 46.7254Z" fill="#FEFFFE"/>
<path opacity="0.856" fill-rule="evenodd" clip-rule="evenodd" d="M127.106 46.0723C127.391 46.0431 127.663 46.0793 127.922 46.1811C128.343 47.4998 128.797 48.8061 129.283 50.1002C129.037 50.225 128.782 50.2432 128.521 50.1546C128.414 49.7747 128.251 49.4299 128.031 49.1204C127.685 49.2608 127.34 49.2608 126.997 49.1204C126.804 49.4128 126.658 49.7394 126.561 50.1002C126.308 50.2453 126.053 50.2453 125.799 50.1002C126.279 48.7696 126.715 47.4269 127.106 46.0723ZM127.432 47.052C127.698 47.52 127.879 48.0281 127.977 48.5761C127.686 48.5761 127.396 48.5761 127.106 48.5761C127.215 48.068 127.323 47.5601 127.432 47.052Z" fill="#FEFFFE"/>
<path opacity="0.857" fill-rule="evenodd" clip-rule="evenodd" d="M46.1122 47.0518C46.2937 47.0518 46.4751 47.0518 46.6565 47.0518C46.6565 47.2695 46.6565 47.4872 46.6565 47.7049C46.3204 47.6915 46.03 47.8004 45.7856 48.0315C45.6033 48.709 45.4763 49.3984 45.4046 50.0999C45.1824 50.2004 44.9465 50.2366 44.697 50.2088C44.8523 49.1945 44.9975 48.1785 45.1325 47.1606C45.3959 47.138 45.6499 47.1743 45.8945 47.2695C46.0058 47.2308 46.0784 47.1582 46.1122 47.0518Z" fill="#FEFFFE"/>
<path opacity="0.841" fill-rule="evenodd" clip-rule="evenodd" d="M47.745 47.0517C48.182 47.0336 48.6175 47.0518 49.0514 47.1061C49.2509 47.1605 49.378 47.2876 49.4324 47.4871C49.4593 48.3693 49.3686 49.2402 49.1602 50.0998C48.6707 50.0765 48.1808 50.1491 47.6906 50.3175C46.9495 50.2515 46.6592 49.8524 46.8197 49.1201C46.8967 48.948 46.9874 48.7847 47.0919 48.6302C47.6757 48.5478 48.2382 48.4208 48.7792 48.2492C48.8529 47.979 48.7622 47.7794 48.5071 47.6504C48.148 47.5914 47.8033 47.6458 47.4729 47.8137C47.3159 47.7362 47.2252 47.6092 47.2007 47.4327C47.3554 47.256 47.5369 47.129 47.745 47.0517ZM47.8539 48.9023C48.1109 48.9213 48.3649 48.9575 48.6159 49.0112C48.6152 49.4609 48.3794 49.7149 47.9083 49.7732C47.2961 49.5295 47.2779 49.2392 47.8539 48.9023Z" fill="#FEFFFE"/>
<path opacity="0.865" fill-rule="evenodd" clip-rule="evenodd" d="M54.168 47.0517C55.64 46.8359 56.1843 47.4528 55.8009 48.9024C55.184 48.9024 54.5672 48.9024 53.9502 48.9024C53.8364 49.3657 53.9997 49.6559 54.4401 49.7733C54.7639 49.706 55.0724 49.5971 55.3654 49.4467C55.6791 49.7544 55.6428 49.9903 55.2566 50.1543C54.5533 50.4455 53.9182 50.3548 53.3515 49.8821C53.2006 49.1914 53.2369 48.502 53.4603 47.8137C53.6448 47.5026 53.8807 47.2486 54.168 47.0517ZM54.4945 47.596C55.0476 47.6091 55.3015 47.8994 55.2566 48.4669C54.8196 48.485 54.3842 48.4668 53.9502 48.4125C54.0399 48.0671 54.2214 47.7949 54.4945 47.596Z" fill="#FEFFFE"/>
<path opacity="0.865" fill-rule="evenodd" clip-rule="evenodd" d="M65.5984 47.0517C67.0704 46.8359 67.6147 47.4528 67.2313 48.9024C66.6144 48.9024 65.9976 48.9024 65.3806 48.9024C65.2668 49.3657 65.4301 49.6559 65.8705 49.7733C66.1943 49.706 66.5028 49.5971 66.7959 49.4467C67.1095 49.7544 67.0732 49.9903 66.687 50.1543C65.9837 50.4455 65.3486 50.3548 64.7819 49.8821C64.631 49.1914 64.6673 48.502 64.8908 47.8137C65.0752 47.5026 65.3111 47.2486 65.5984 47.0517ZM65.925 47.596C66.478 47.6091 66.732 47.8994 66.687 48.4669C66.25 48.485 65.8146 48.4668 65.3806 48.4125C65.4704 48.0671 65.6518 47.7949 65.925 47.596Z" fill="#FEFFFE"/>
<path opacity="0.865" fill-rule="evenodd" clip-rule="evenodd" d="M68.9731 47.0517C70.4452 46.8359 70.9895 47.4528 70.6061 48.9024C69.9891 48.9024 69.3723 48.9024 68.7554 48.9024C68.6415 49.3657 68.8048 49.6559 69.2453 49.7733C69.569 49.706 69.8776 49.5971 70.1706 49.4467C70.4842 49.7544 70.448 49.9903 70.0618 50.1543C69.3585 50.4455 68.7234 50.3548 68.1567 49.8821C68.0058 49.1914 68.042 48.502 68.2655 47.8137C68.4499 47.5026 68.6858 47.2486 68.9731 47.0517ZM69.2997 47.596C69.8527 47.6091 70.1067 47.8994 70.0618 48.4669C69.6248 48.485 69.1893 48.4668 68.7554 48.4125C68.8451 48.0671 69.0266 47.7949 69.2997 47.596Z" fill="#FEFFFE"/>
<path opacity="0.873" fill-rule="evenodd" clip-rule="evenodd" d="M84.9759 47.0524C86.4273 46.8346 87.0443 47.4516 86.8265 48.903C86.2096 48.903 85.5928 48.903 84.9759 48.903C84.9343 49.3654 85.1338 49.6557 85.5746 49.7739C85.8984 49.7066 86.2069 49.5978 86.5 49.4473C86.9515 49.888 86.8427 50.1602 86.1734 50.2638C85.5402 50.4172 84.9777 50.2901 84.486 49.8828C84.3133 49.169 84.277 48.4432 84.3771 47.7055C84.5252 47.4309 84.7247 47.2132 84.9759 47.0524ZM85.4113 47.5967C85.9666 47.6168 86.2206 47.9071 86.1734 48.4676C85.7742 48.4676 85.3751 48.4676 84.9759 48.4676C84.9517 48.0805 85.0968 47.7901 85.4113 47.5967Z" fill="#FEFFFE"/>
<path opacity="0.871" fill-rule="evenodd" clip-rule="evenodd" d="M88.2419 47.0517C88.6788 47.0336 89.1143 47.0518 89.5482 47.1061C89.704 47.1567 89.8309 47.2475 89.9292 47.3783C90.0861 48.3099 90.1405 49.2533 90.0925 50.2087C89.8458 50.2478 89.6463 50.1752 89.4938 49.991C88.9174 50.4253 88.3368 50.4253 87.752 49.991C87.4934 49.4932 87.5479 49.0397 87.9153 48.6302C88.4091 48.4801 88.9171 48.4256 89.4393 48.4669C89.4761 48.1776 89.4035 47.9237 89.2216 47.7049C88.7747 47.6399 88.3393 47.6399 87.9153 47.7049C87.8684 47.6185 87.832 47.5277 87.8064 47.4327C87.9355 47.279 88.0806 47.1519 88.2419 47.0517ZM88.5685 48.9023C88.863 48.9105 89.1534 48.9468 89.4393 49.0112C89.4612 49.4616 89.2435 49.7155 88.7862 49.7732C88.183 49.5882 88.1105 49.2978 88.5685 48.9023Z" fill="#FEFFFE"/>
<path opacity="0.873" fill-rule="evenodd" clip-rule="evenodd" d="M95.209 47.0524C96.6605 46.8346 97.2774 47.4516 97.0597 48.903C96.4428 48.903 95.826 48.903 95.209 48.903C95.1675 49.3654 95.367 49.6557 95.8078 49.7739C96.1315 49.7066 96.4401 49.5978 96.7331 49.4473C97.1847 49.888 97.0758 50.1602 96.4065 50.2638C95.7734 50.4172 95.2109 50.2901 94.7192 49.8828C94.5465 49.169 94.5101 48.4432 94.6103 47.7055C94.7583 47.4309 94.9579 47.2132 95.209 47.0524ZM95.6445 47.5967C96.1998 47.6168 96.4538 47.9071 96.4065 48.4676C96.0073 48.4676 95.6082 48.4676 95.209 48.4676C95.1849 48.0805 95.33 47.7901 95.6445 47.5967Z" fill="#FEFFFE"/>
<path opacity="0.877" fill-rule="evenodd" clip-rule="evenodd" d="M99.019 47.0518C99.1642 47.0518 99.3094 47.0518 99.4545 47.0518C99.4907 47.2695 99.5271 47.4872 99.5634 47.7049C99.1796 47.6882 98.8711 47.8333 98.638 48.1404C98.5836 48.8289 98.5655 49.5184 98.5836 50.2088C98.3659 50.2088 98.1481 50.2088 97.9304 50.2088C97.9304 49.1927 97.9304 48.1766 97.9304 47.1606C98.1939 47.138 98.4478 47.1743 98.6925 47.2695C98.8273 47.2214 98.9362 47.1488 99.019 47.0518Z" fill="#FEFFFE"/>
<path opacity="0.84" fill-rule="evenodd" clip-rule="evenodd" d="M100.761 47.0524C101.398 46.9624 101.978 47.0895 102.503 47.4334C102.435 47.6247 102.308 47.7517 102.122 47.8144C101.755 47.5929 101.374 47.5566 100.979 47.7055C100.843 47.8695 100.843 48.0328 100.979 48.1954C101.378 48.3043 101.777 48.4131 102.176 48.522C102.83 49.5651 102.54 50.1639 101.305 50.3182C100.895 50.3019 100.514 50.193 100.162 49.9916C100.077 49.7297 100.168 49.5482 100.434 49.4473C100.848 49.7504 101.284 49.8048 101.741 49.6106C101.876 49.448 101.876 49.2847 101.741 49.1207C101.428 48.9819 101.101 48.8913 100.761 48.8486C100.566 48.7631 100.403 48.6362 100.271 48.4676C100.08 47.8498 100.243 47.3781 100.761 47.0524Z" fill="#FEFFFE"/>
<path opacity="0.863" fill-rule="evenodd" clip-rule="evenodd" d="M113.715 47.0526C114.116 47.0346 114.516 47.0527 114.913 47.107C115.185 47.2341 115.384 47.4336 115.512 47.7058C115.585 48.359 115.585 49.0121 115.512 49.6653C115.106 50.2691 114.543 50.4686 113.824 50.264C113.489 50.1785 113.253 49.9789 113.117 49.6653C113.044 49.0121 113.044 48.359 113.117 47.7058C113.265 47.4311 113.464 47.2134 113.715 47.0526ZM114.151 47.5969C114.775 47.6789 115.028 48.0417 114.913 48.6855C115.021 49.2329 114.821 49.5958 114.314 49.7742C113.807 49.5958 113.608 49.2329 113.715 48.6855C113.636 48.2149 113.781 47.8521 114.151 47.5969Z" fill="#FEFFFE"/>
<path opacity="0.843" fill-rule="evenodd" clip-rule="evenodd" d="M118.614 47.0524C119.251 46.9624 119.832 47.0895 120.356 47.4334C120.252 47.5879 120.161 47.7512 120.084 47.9233C119.14 47.3336 118.65 47.5876 118.614 48.6853C118.629 49.7631 119.1 50.0171 120.03 49.4473C120.263 49.6142 120.334 49.8138 120.247 50.0461C119.496 50.4543 118.789 50.3999 118.125 49.8828C117.951 49.169 117.916 48.4432 118.016 47.7055C118.164 47.4309 118.363 47.2132 118.614 47.0524Z" fill="#FEFFFE"/>
<path opacity="0.873" fill-rule="evenodd" clip-rule="evenodd" d="M121.771 47.0524C123.223 46.8346 123.84 47.4516 123.622 48.903C123.005 48.903 122.389 48.903 121.771 48.903C121.73 49.3654 121.929 49.6557 122.37 49.7739C122.693 49.7066 123.003 49.5978 123.295 49.4473C123.747 49.888 123.638 50.1602 122.969 50.2638C122.335 50.4172 121.774 50.2901 121.282 49.8828C121.108 49.169 121.073 48.4432 121.173 47.7055C121.321 47.4309 121.52 47.2132 121.771 47.0524ZM122.207 47.5967C122.762 47.6168 123.016 47.9071 122.969 48.4676C122.569 48.4676 122.171 48.4676 121.771 48.4676C121.747 48.0805 121.892 47.7901 122.207 47.5967Z" fill="#FEFFFE"/>
<path opacity="0.871" fill-rule="evenodd" clip-rule="evenodd" d="M134.617 47.0517C135.053 47.0336 135.489 47.0518 135.923 47.1061C136.079 47.1567 136.206 47.2475 136.304 47.3783C136.461 48.3099 136.516 49.2533 136.468 50.2087C136.22 50.2478 136.021 50.1752 135.869 49.991C135.293 50.4253 134.712 50.4253 134.127 49.991C133.869 49.4932 133.924 49.0397 134.29 48.6302C134.785 48.4801 135.292 48.4256 135.814 48.4669C135.851 48.1776 135.779 47.9237 135.597 47.7049C135.15 47.6399 134.715 47.6399 134.29 47.7049C134.244 47.6185 134.208 47.5277 134.182 47.4327C134.311 47.279 134.456 47.1519 134.617 47.0517ZM134.944 48.9023C135.239 48.9105 135.528 48.9468 135.814 49.0112C135.836 49.4616 135.618 49.7155 135.161 49.7732C134.558 49.5882 134.485 49.2978 134.944 48.9023Z" fill="#FEFFFE"/>
<path opacity="0.877" fill-rule="evenodd" clip-rule="evenodd" d="M138.536 47.0518C138.681 47.0518 138.827 47.0518 138.972 47.0518C139.008 47.2695 139.045 47.4872 139.08 47.7049C138.696 47.6882 138.388 47.8333 138.155 48.1404C138.101 48.8289 138.082 49.5184 138.101 50.2088C137.883 50.2088 137.665 50.2088 137.448 50.2088C137.448 49.1927 137.448 48.1766 137.448 47.1606C137.711 47.138 137.965 47.1743 138.21 47.2695C138.345 47.2214 138.453 47.1488 138.536 47.0518Z" fill="#FEFFFE"/>
<path opacity="0.84" fill-rule="evenodd" clip-rule="evenodd" d="M143.761 47.0524C144.398 46.9624 144.978 47.0895 145.503 47.4334C145.436 47.6247 145.308 47.7517 145.122 47.8144C144.755 47.5929 144.374 47.5566 143.979 47.7055C143.843 47.8695 143.843 48.0328 143.979 48.1954C144.379 48.3043 144.777 48.4131 145.177 48.522C145.831 49.5651 145.54 50.1639 144.306 50.3182C143.895 50.3019 143.514 50.193 143.163 49.9916C143.078 49.7297 143.168 49.5482 143.435 49.4473C143.849 49.7504 144.284 49.8048 144.741 49.6106C144.877 49.448 144.877 49.2847 144.741 49.1207C144.429 48.9819 144.102 48.8913 143.761 48.8486C143.567 48.7631 143.403 48.6362 143.272 48.4676C143.08 47.8498 143.243 47.3781 143.761 47.0524Z" fill="#FEFFFE"/>
<path opacity="0.855" fill-rule="evenodd" clip-rule="evenodd" d="M50.1401 47.1614C50.3896 47.1336 50.6256 47.1698 50.8477 47.2703C50.9655 47.9323 51.1108 48.5855 51.2832 49.2298C51.5619 48.5635 51.8704 47.9103 52.2085 47.2703C52.4551 47.1454 52.7091 47.1272 52.9706 47.2159C52.4625 48.1956 51.9545 49.1754 51.4465 50.1551C51.1675 50.2551 50.9316 50.2006 50.7389 49.9918C50.5045 49.0543 50.3048 48.1109 50.1401 47.1614Z" fill="#FEFFFE"/>
<path opacity="0.847" fill-rule="evenodd" clip-rule="evenodd" d="M76.158 47.1614C76.4075 47.1336 76.6434 47.1698 76.8656 47.2703C76.9695 47.8991 77.1146 48.516 77.301 49.1209C77.6094 48.504 77.9179 47.8872 78.2263 47.2703C78.4729 47.1454 78.7269 47.1272 78.9884 47.2159C78.3491 48.4764 77.696 49.7283 77.0289 50.9716C76.7823 51.0965 76.5283 51.1146 76.2668 51.026C76.4621 50.6899 76.6436 50.3452 76.8111 49.9918C76.559 49.0558 76.3413 48.1123 76.158 47.1614Z" fill="#FEFFFE"/>
<path opacity="0.911" fill-rule="evenodd" clip-rule="evenodd" d="M116.437 47.1611C116.655 47.1611 116.872 47.1611 117.09 47.1611C117.09 48.1771 117.09 49.1933 117.09 50.2093C116.872 50.2093 116.655 50.2093 116.437 50.2093C116.437 49.1933 116.437 48.1771 116.437 47.1611Z" fill="#FEFFFE"/>
<path opacity="0.861" fill-rule="evenodd" clip-rule="evenodd" d="M129.392 47.1615C129.641 47.1336 129.877 47.1699 130.099 47.2703C130.283 47.9353 130.501 48.5884 130.752 49.2299C130.902 48.8189 131.029 48.4015 131.133 47.9779C131.094 47.7318 131.021 47.496 130.916 47.2703C131.16 47.1643 131.414 47.128 131.678 47.1615C131.789 47.8617 131.952 48.5511 132.168 49.2299C132.356 48.5728 132.556 47.9196 132.766 47.2703C133.012 47.1455 133.267 47.1273 133.528 47.2159C133.147 48.1959 132.821 49.1938 132.549 50.2096C132.285 50.2432 132.03 50.2068 131.787 50.1008C131.709 49.7514 131.582 49.4248 131.406 49.121C131.3 49.4759 131.173 49.8207 131.025 50.1552C130.798 50.2432 130.58 50.225 130.371 50.1008C130.022 49.1264 129.695 48.1467 129.392 47.1615Z" fill="#FEFFFE"/>
<path opacity="0.96" fill-rule="evenodd" clip-rule="evenodd" d="M16.0663 52.2775C14.9414 52.2775 13.8164 52.2775 12.6915 52.2775C11.0643 52.0451 9.57651 51.4463 8.2282 50.4813C8.09896 50.3703 7.99009 50.2433 7.90161 50.1002C8.8846 50.0001 9.86436 49.873 10.8409 49.7192C12.7083 49.2341 14.5952 48.8531 16.5017 48.5762C18.2904 48.7083 19.7419 49.4704 20.8562 50.8623C19.3164 51.5574 17.7197 52.0291 16.0663 52.2775Z" fill="#FEFFFE"/>
<path opacity="0.959" fill-rule="evenodd" clip-rule="evenodd" d="M174.569 52.2775C173.408 52.2775 172.247 52.2775 171.086 52.2775C169.57 52.0089 168.082 51.5917 166.623 51.0256C166.521 50.9833 166.449 50.9107 166.405 50.8078C167.505 49.4048 168.957 48.661 170.759 48.5762C172.844 48.9067 174.912 49.3239 176.964 49.8281C177.763 49.9137 178.561 50.0043 179.359 50.1002C178.713 50.7515 177.951 51.2413 177.073 51.5699C176.239 51.8597 175.404 52.0955 174.569 52.2775Z" fill="#FEFFFE"/>
</g>
</g>
</g>
<defs>
<clipPath id="clip0_5_2426">
<rect width="185.61" height="52.25" fill="white" transform="translate(0.879883 0.0800781)"/>
</clipPath>
<clipPath id="clip1_5_2426">
<rect width="185.61" height="52.25" fill="white" transform="translate(0.879883 0.0800781)"/>
</clipPath>
<clipPath id="clip2_5_2426">
<rect width="185.61" height="52.2538" fill="white" transform="translate(0.879883 0.078125)"/>
</clipPath>
</defs>
</svg>
