<svg width="19" height="21" viewBox="0 0 19 21" fill="none" xmlns="http://www.w3.org/2000/svg">
<mask id="mask0_61_96" style="mask-type:luminance" maskUnits="userSpaceOnUse" x="0" y="0" width="19" height="21">
<path d="M18.95 0.25H0.949951V20.25H18.95V0.25Z" fill="white"/>
</mask>
<g mask="url(#mask0_61_96)">
<mask id="mask1_61_96" style="mask-type:alpha" maskUnits="userSpaceOnUse" x="0" y="0" width="19" height="21">
<path d="M18.5997 16.5202L17.0781 17.0916L15.1362 11.7282H9.78086V5.21189C11.0396 4.95457 11.8993 3.78447 11.7702 2.50436C11.6411 1.22425 10.5651 0.25 9.28037 0.25C7.99568 0.25 6.91968 1.22425 6.79056 2.50436C6.66144 3.78447 7.52114 4.95457 8.77987 5.21189V12.7307H14.4355L16.4375 18.3948L18.95 17.4625L18.5997 16.5202ZM7.77888 2.70563C7.77888 1.87512 8.45112 1.20187 9.28037 1.20187C10.1096 1.20187 10.7819 1.87512 10.7819 2.70563C10.7819 3.53613 10.1096 4.20939 9.28037 4.20939C8.45112 4.20939 7.77888 3.53613 7.77888 2.70563ZM12.854 14.7357L13.855 14.9161C13.2309 18.3016 10.085 20.6168 6.67263 20.202C3.26024 19.7872 0.758737 16.7855 0.961443 13.3489C1.16415 9.91226 4.00112 7.22644 7.43854 7.2169V8.21941C4.5284 8.22029 2.12157 10.4893 1.94491 13.3985C1.76825 16.3076 3.88278 18.852 6.77137 19.2061C9.65996 19.5602 12.3248 17.6017 12.854 14.7357ZM10.7618 8.21941H13.2644V9.22191H10.7618V8.21941Z" fill="white"/>
</mask>
<g mask="url(#mask1_61_96)">
<path d="M18.5997 16.5202L17.0781 17.0916L15.1362 11.7282H9.78086V5.21189C11.0396 4.95457 11.8993 3.78447 11.7702 2.50436C11.6411 1.22425 10.5651 0.25 9.28037 0.25C7.99568 0.25 6.91968 1.22425 6.79056 2.50436C6.66144 3.78447 7.52114 4.95457 8.77987 5.21189V12.7307H14.4355L16.4375 18.3948L18.95 17.4625L18.5997 16.5202ZM7.77888 2.70563C7.77888 1.87512 8.45112 1.20187 9.28037 1.20187C10.1096 1.20187 10.7819 1.87512 10.7819 2.70563C10.7819 3.53613 10.1096 4.20939 9.28037 4.20939C8.45112 4.20939 7.77888 3.53613 7.77888 2.70563ZM12.854 14.7357L13.855 14.9161C13.2309 18.3016 10.085 20.6168 6.67263 20.202C3.26024 19.7872 0.758737 16.7855 0.961443 13.3489C1.16415 9.91226 4.00112 7.22644 7.43854 7.2169V8.21941C4.5284 8.22029 2.12157 10.4893 1.94491 13.3985C1.76825 16.3076 3.88278 18.852 6.77137 19.2061C9.65996 19.5602 12.3248 17.6017 12.854 14.7357ZM10.7618 8.21941H13.2644V9.22191H10.7618V8.21941Z" fill="black"/>
<path d="M21.95 -1.75H-2.05005V22.25H21.95V-1.75Z" fill="#535455"/>
</g>
</g>
</svg>
