<svg width="37" height="40" viewBox="0 0 37 40" fill="none" xmlns="http://www.w3.org/2000/svg">
<g clip-path="url(#clip0_1310_1508)">
<g clip-path="url(#clip1_1310_1508)">
<path d="M3.02344 15.1396L3.37591 18.7712H14.9861V31.3213H9.33589C8.07553 31.3213 6.98608 30.3493 6.98608 29.2172C6.98608 28.085 8.19303 27.1023 9.50678 26.344L3.7177 22.3279L4.7858 33.3827L18.5002 38.595L32.2145 33.3827L33.2826 22.3279L27.4935 26.344C28.818 27.1023 30.0142 28.085 30.0142 29.2172C30.0142 30.3493 28.9248 31.3213 27.6644 31.3213H22.0142V18.7712H33.6244L33.9769 15.1396H3.02344Z" fill="white"/>
<path d="M2.8416 13.1747L1.78418 2.26946L8.23548 6.92636L5.94976 9.45774L9.5706 11.9571L15.0179 9.52183L12.9137 6.81955L18.4999 1.4043L24.086 6.81955L21.9819 9.52183L27.4292 11.9571L31.05 9.45774L28.7643 6.92636L35.2156 2.26946L34.1582 13.1747H2.8416Z" fill="white"/>
</g>
</g>
<defs>
<clipPath id="clip0_1310_1508">
<rect width="36" height="39.84" fill="white" transform="translate(0.5 0.0800781)"/>
</clipPath>
<clipPath id="clip1_1310_1508">
<rect width="36" height="39.84" fill="white" transform="translate(0.5 0.0800781)"/>
</clipPath>
</defs>
</svg>
