<svg width="180" height="73" viewBox="0 0 180 73" fill="none" xmlns="http://www.w3.org/2000/svg">
<g clip-path="url(#clip0_5_2743)">
<g clip-path="url(#clip1_5_2743)">
<g clip-path="url(#clip2_5_2743)">
<path d="M67.3464 18.6074C80.4896 18.6074 93.6327 18.6074 107.174 18.6074C107.066 19.9532 107.066 19.9532 107.003 20.6176C106.996 20.6916 106.989 20.7656 106.982 20.8395C106.967 20.9915 106.953 21.1436 106.938 21.2956C106.919 21.4903 106.901 21.685 106.882 21.8797C106.868 22.0311 106.854 22.1825 106.839 22.3339C106.832 22.4058 106.825 22.4778 106.819 22.5497C106.809 22.6492 106.8 22.7486 106.79 22.848C106.785 22.9044 106.779 22.9608 106.774 23.0189C106.756 23.1565 106.756 23.1565 106.71 23.2958C101.793 23.2958 96.8755 23.2958 91.8093 23.2958C91.8093 28.6112 91.8093 33.9267 91.8093 39.4032C95.92 39.9271 95.92 39.9271 101 38.6605C101.03 38.6386 101.059 38.6167 101.09 38.5941C101.544 38.237 101.869 37.6475 101.975 37.0822C102.051 36.2643 101.783 35.6097 101.274 34.9811C100.588 34.165 99.6747 33.5928 98.7722 33.0438C98.9755 32.8198 99.2118 32.6625 99.4627 32.4955C99.5546 32.4335 99.6465 32.3716 99.7383 32.3096C99.7856 32.2777 99.833 32.2458 99.8817 32.2129C100.115 32.0548 100.346 31.8937 100.577 31.7324C100.872 31.5265 101.168 31.3209 101.465 31.1174C101.946 30.7872 102.425 30.453 102.904 30.1194C103.959 29.3842 103.959 29.3842 104.428 29.0625C104.754 28.8388 105.079 28.6124 105.403 28.3859C105.529 28.2981 105.655 28.2106 105.781 28.1233C105.822 28.0956 105.862 28.0678 105.903 28.0391C105.941 28.0136 105.978 27.9881 106.017 27.9618C106.05 27.9392 106.083 27.9165 106.117 27.8932C106.199 27.8448 106.199 27.8448 106.292 27.8448C106.049 30.4769 105.799 33.1084 105.546 35.7396C105.485 36.3779 105.423 37.0161 105.363 37.6544C105.314 38.1637 105.265 38.673 105.216 39.1823C105.189 39.4654 105.162 39.7485 105.135 40.0317C105.11 40.2949 105.085 40.558 105.059 40.8212C105.05 40.9175 105.041 41.0138 105.032 41.1101C105.019 41.2413 105.007 41.3724 104.994 41.5036C104.988 41.5608 104.988 41.5608 104.983 41.6191C104.964 41.8061 104.946 41.9746 104.853 42.1419C104.735 42.2035 104.631 42.248 104.506 42.2908C104.471 42.3039 104.435 42.317 104.398 42.3305C104.279 42.3738 104.16 42.416 104.041 42.4582C103.956 42.4887 103.872 42.5194 103.788 42.5502C103.612 42.6145 103.436 42.6785 103.259 42.7423C102.894 42.8749 102.532 43.0136 102.169 43.1525C101.966 43.2302 101.763 43.3075 101.561 43.3849C101.498 43.4086 101.498 43.4086 101.435 43.4328C100.927 43.6268 100.418 43.82 99.9095 44.0132C99.8116 44.0504 99.7138 44.0876 99.6159 44.1247C99.2696 44.2563 98.9232 44.3879 98.5769 44.5195C98.2319 44.6505 97.887 44.7815 97.5421 44.9126C97.4694 44.9402 97.4694 44.9402 97.3953 44.9683C96.7401 45.2173 96.085 45.4666 95.43 45.7162C94.7261 45.9845 94.0221 46.2523 93.3179 46.5198C93.2695 46.5382 93.2211 46.5566 93.1713 46.5756C92.776 46.7258 92.3807 46.8759 91.9853 47.0261C91.3081 47.2833 90.6309 47.5407 89.9537 47.7981C89.8596 47.8339 89.7655 47.8696 89.6714 47.9054C89.3975 48.0095 89.1237 48.1137 88.8498 48.2179C88.7662 48.2497 88.6826 48.2815 88.599 48.3133C88.5208 48.343 88.4427 48.3727 88.3645 48.4025C88.2922 48.43 88.2198 48.4575 88.1474 48.485C87.9286 48.5682 87.7121 48.6556 87.4981 48.7508C87.2081 48.8364 86.9788 48.7396 86.7112 48.633C86.6502 48.6094 86.6502 48.6094 86.5879 48.5852C86.4991 48.5508 86.4103 48.5161 86.3216 48.4812C86.1282 48.4051 85.9343 48.3301 85.7405 48.255C85.6365 48.2147 85.5326 48.1743 85.4287 48.1339C84.8706 47.917 84.3108 47.7049 83.7509 47.4931C83.4639 47.3845 83.177 47.2757 82.8901 47.167C82.8347 47.146 82.7793 47.125 82.7223 47.1034C82.231 46.9171 81.7399 46.7302 81.249 46.543C80.5528 46.2777 79.8565 46.0127 79.1601 45.7481C79.1117 45.7297 79.0632 45.7113 79.0133 45.6923C78.6677 45.561 78.3221 45.4297 77.9764 45.2984C77.5819 45.1485 77.1873 44.9987 76.7927 44.8487C76.7201 44.8211 76.7201 44.8211 76.646 44.793C75.9907 44.544 75.3356 44.2947 74.6807 44.0451C74.064 43.8101 73.4473 43.5753 72.8304 43.3409C72.6324 43.2656 72.4345 43.1902 72.2366 43.1147C71.7785 42.9401 71.3199 42.7673 70.8592 42.5996C70.7395 42.5556 70.6198 42.5116 70.5 42.4676C70.3896 42.4272 70.2789 42.3879 70.1682 42.3485C70.1023 42.3243 70.0364 42.3001 69.9706 42.2757C69.9139 42.2554 69.8572 42.235 69.7988 42.2139C69.6387 42.1262 69.6285 42.0798 69.5746 41.9098C69.5544 41.7919 69.5544 41.7919 69.5421 41.6642C69.5372 41.6153 69.5324 41.5664 69.5273 41.516C69.5224 41.4626 69.5174 41.4092 69.5123 41.3542C69.5067 41.2972 69.5011 41.2403 69.4954 41.1816C69.48 41.0236 69.4649 40.8656 69.45 40.7076C69.4338 40.5372 69.4172 40.3668 69.4006 40.1963C69.3683 39.8626 69.3363 39.5288 69.3044 39.195C69.2673 38.8064 69.2298 38.4179 69.1923 38.0294C69.1254 37.3364 69.0588 36.6433 68.9924 35.9503C68.928 35.2773 68.8633 34.6044 68.7984 33.9316C68.7944 33.8901 68.7904 33.8487 68.7863 33.8059C68.7703 33.6393 68.7542 33.4727 68.7381 33.3061C68.6689 32.588 68.5998 31.8699 68.5308 31.1518C68.5196 31.0354 68.5084 30.919 68.4972 30.8026C68.458 30.3952 68.4188 29.9879 68.3798 29.5805C68.3637 29.412 68.3475 29.2436 68.3313 29.0751C68.3138 28.8927 68.2963 28.7103 68.2789 28.5279C68.2737 28.4743 68.2685 28.4207 68.2632 28.3655C68.2563 28.2925 68.2563 28.2925 68.2492 28.2181C68.2451 28.1759 68.2411 28.1338 68.2369 28.0904C68.2284 27.9841 68.2284 27.9841 68.2284 27.8448C68.4382 27.9165 68.6087 28.0316 68.7883 28.1582C68.8203 28.1804 68.8523 28.2027 68.8852 28.2256C68.9914 28.2996 69.0973 28.3739 69.2032 28.4483C69.2795 28.5017 69.3559 28.5552 69.4322 28.6086C69.5506 28.6914 69.6689 28.7743 69.7872 28.8572C70.0512 29.0423 70.3164 29.2258 70.5824 29.408C70.8585 29.5974 71.1333 29.7887 71.4081 29.9801C71.7093 30.1899 72.0106 30.3993 72.3133 30.6068C72.6627 30.8463 73.0103 31.0885 73.358 31.3306C73.6155 31.5099 73.8735 31.6885 74.1323 31.8659C74.4178 32.0616 74.7018 32.2593 74.9853 32.4577C75.024 32.4848 75.0627 32.5119 75.1025 32.5398C75.3186 32.6912 75.5339 32.8437 75.7483 32.9974C75.6077 33.1459 75.4435 33.2433 75.2696 33.3484C74.7657 33.6589 74.2863 33.9842 73.8529 34.3894C73.7658 34.4702 73.6766 34.5448 73.584 34.6191C73.0333 35.0925 72.594 35.8251 72.5311 36.5511C72.5053 37.3133 72.7798 37.9254 73.2914 38.4824C75.4548 40.5408 81.755 39.3972 82.7112 39.4032C82.7112 34.0877 82.7112 28.7723 82.7112 23.2958C77.794 23.2958 72.8768 23.2958 67.8106 23.2958C67.7039 22.6023 67.7039 22.6023 67.6732 22.2738C67.6695 22.2365 67.6659 22.1992 67.6621 22.1608C67.6504 22.0401 67.6389 21.9194 67.6275 21.7987C67.6193 21.7138 67.6111 21.6288 67.6029 21.5439C67.5859 21.3671 67.569 21.1903 67.5521 21.0134C67.5306 20.7871 67.5088 20.5607 67.4869 20.3343C67.47 20.1594 67.4532 19.9845 67.4365 19.8096C67.4285 19.7261 67.4204 19.6426 67.4124 19.5591C67.4012 19.4428 67.3901 19.3264 67.3791 19.21C67.3757 19.1757 67.3724 19.1415 67.369 19.1062C67.3532 18.9383 67.3464 18.7766 67.3464 18.6074Z" fill="white"/>
<path d="M87.2138 0.921875C87.3437 0.981092 87.4382 1.04206 87.5383 1.14367C87.564 1.16956 87.5897 1.19546 87.6162 1.22214C87.6572 1.26406 87.6572 1.26406 87.699 1.30683C87.7421 1.35029 87.7421 1.35029 87.7861 1.39464C87.878 1.4873 87.9695 1.58027 88.061 1.67328C88.181 1.79499 88.3011 1.91655 88.4214 2.03793C88.465 2.08188 88.465 2.08188 88.5094 2.12672C88.6742 2.29204 88.8425 2.44909 89.0207 2.59991C89.2932 2.84289 89.5441 3.11081 89.8006 3.37039C90.0597 3.63226 90.3168 3.89134 90.5975 4.13024C90.8608 4.3657 91.1041 4.6244 91.3523 4.87564C91.6867 5.21733 91.6867 5.21733 92.04 5.53913C92.3484 5.80196 92.6261 6.09966 92.9107 6.38764C93.3053 6.7865 93.3053 6.7865 93.7219 7.16201C93.873 7.29398 94.0127 7.43737 94.1535 7.58012C94.1828 7.60965 94.2121 7.63918 94.2423 7.66961C94.3134 7.74121 94.3843 7.81296 94.4552 7.88475C94.391 8.07193 94.3048 8.19888 94.1767 8.34894C94.0024 8.557 93.8344 8.7684 93.6696 8.98399C93.5031 9.20155 93.3353 9.41803 93.1671 9.63417C93.1261 9.68682 93.1261 9.68682 93.0843 9.74054C92.9423 9.92309 92.8001 10.1055 92.6576 10.2877C92.3681 10.6581 92.0813 11.0291 91.8093 11.4126C91.8501 11.4257 91.891 11.4388 91.9331 11.4522C92.0718 11.4999 92.2026 11.5533 92.3361 11.6139C92.3851 11.636 92.4341 11.6581 92.4846 11.6809C92.5385 11.7053 92.5923 11.7298 92.6478 11.7549C92.7693 11.8098 92.891 11.8646 93.0126 11.9194C93.0455 11.9342 93.0784 11.9491 93.1123 11.9643C93.5118 12.1443 93.9125 12.3217 94.3131 12.4994C95.005 12.8063 95.6962 13.1145 96.3863 13.4255C96.5021 13.4776 96.618 13.5297 96.7338 13.5818C97.0474 13.7227 97.3608 13.8638 97.673 14.0077C97.7627 14.049 97.8526 14.0901 97.9425 14.131C98.0491 14.1797 98.1554 14.2288 98.2615 14.2784C98.3077 14.2994 98.3538 14.3203 98.4014 14.3419C98.4408 14.3602 98.4803 14.3784 98.521 14.3972C98.6556 14.4364 98.732 14.4244 98.865 14.3834C98.9994 14.3007 98.9994 14.3007 99.1406 14.1919C99.1982 14.1496 99.2558 14.1073 99.3134 14.0652C99.3452 14.042 99.377 14.0187 99.4097 13.9948C99.6104 13.8506 99.8153 13.7127 100.02 13.574C100.108 13.5139 100.197 13.4537 100.285 13.3936C100.328 13.3646 100.37 13.3356 100.414 13.3057C100.585 13.1897 100.755 13.073 100.925 12.956C100.969 12.9255 100.969 12.9255 101.014 12.8944C101.073 12.854 101.132 12.8136 101.19 12.7732C101.344 12.6677 101.497 12.5624 101.65 12.457C101.696 12.4256 101.696 12.4256 101.742 12.3936C101.901 12.2848 102.059 12.1761 102.217 12.0675C102.249 12.0455 102.281 12.0234 102.314 12.0007C102.378 11.9573 102.441 11.914 102.504 11.8707C102.719 11.7229 102.932 11.5724 103.144 11.4193C103.228 11.3662 103.228 11.3662 103.321 11.3662C103.043 11.0133 102.747 10.6826 102.439 10.3549C102.309 10.216 102.183 10.0739 102.059 9.92973C101.948 9.80329 101.834 9.67962 101.72 9.55584C101.553 9.37454 101.388 9.19147 101.227 9.00515C101.091 8.85064 100.951 8.6995 100.81 8.54849C100.682 8.40917 100.56 8.26637 100.443 8.11684C100.513 7.92343 100.651 7.83598 100.815 7.72518C100.874 7.684 100.933 7.64277 100.992 7.60152C101.024 7.57972 101.055 7.55793 101.088 7.53547C101.257 7.41711 101.425 7.29539 101.592 7.17395C101.663 7.12239 101.735 7.07083 101.806 7.01928C101.842 6.99352 101.877 6.96775 101.914 6.9412C102.089 6.81466 102.264 6.68824 102.439 6.5618C102.509 6.51151 102.579 6.46123 102.648 6.41094C104.18 5.30462 105.712 4.19829 107.244 3.09197C107.278 3.06703 107.313 3.04209 107.348 3.01639C107.417 2.96658 107.486 2.91678 107.555 2.867C107.739 2.73411 107.923 2.60091 108.107 2.46731C108.146 2.4393 108.184 2.4113 108.224 2.38245C108.298 2.32832 108.373 2.27411 108.447 2.2198C108.497 2.18363 108.497 2.18363 108.548 2.14672C108.577 2.12528 108.607 2.10384 108.637 2.08175C108.706 2.03593 108.706 2.03593 108.752 2.03593C108.758 2.36527 108.736 2.68611 108.703 3.01375C108.698 3.06895 108.693 3.12414 108.687 3.18101C108.673 3.33321 108.658 3.48538 108.643 3.63755C108.627 3.80205 108.611 3.96656 108.596 4.13107C108.565 4.45288 108.533 4.77467 108.502 5.09646C108.466 5.47122 108.43 5.846 108.394 6.22079C108.329 6.88935 108.264 7.55789 108.2 8.22642C108.137 8.8752 108.074 9.52399 108.011 10.1728C107.943 10.8796 107.875 11.5864 107.807 12.2932C107.799 12.3685 107.792 12.4438 107.785 12.5191C107.781 12.5562 107.778 12.5933 107.774 12.6315C107.749 12.8928 107.723 13.1541 107.698 13.4154C107.667 13.7336 107.637 14.0518 107.606 14.37C107.59 14.5324 107.574 14.6948 107.559 14.8572C107.542 15.033 107.525 15.2089 107.507 15.3847C107.503 15.4362 107.498 15.4878 107.493 15.5409C107.488 15.5879 107.483 15.6349 107.479 15.6833C107.475 15.7239 107.471 15.7645 107.467 15.8064C107.453 15.9153 107.453 15.9153 107.406 16.1009C94.1098 16.1009 80.8135 16.1009 67.1143 16.1009C67.0715 15.9724 67.0549 15.8696 67.0419 15.7356C67.0373 15.6887 67.0327 15.6418 67.0279 15.5935C67.0205 15.5161 67.0205 15.5161 67.013 15.437C67.0076 15.3822 67.0023 15.3275 66.9968 15.2711C66.9819 15.1188 66.9673 14.9665 66.9526 14.8142C66.9368 14.6501 66.9209 14.486 66.9049 14.3218C66.8736 14.0001 66.8426 13.6784 66.8115 13.3566C66.7863 13.095 66.7611 12.8334 66.7357 12.5718C66.7303 12.516 66.7303 12.516 66.7248 12.459C66.7175 12.3834 66.7102 12.3079 66.7029 12.2323C66.6342 11.5228 66.5658 10.8134 66.4974 10.1039C66.4349 9.45522 66.3721 8.80658 66.3092 8.15795C66.2446 7.4919 66.1802 6.82583 66.116 6.15974C66.0799 5.78581 66.0438 5.41188 66.0075 5.03797C65.9765 4.71947 65.9458 4.40096 65.9152 4.08243C65.8996 3.92 65.884 3.75758 65.8681 3.59518C65.8509 3.41883 65.834 3.24245 65.8172 3.06606C65.8122 3.01513 65.8072 2.9642 65.802 2.91173C65.7744 2.61876 65.762 2.33018 65.7682 2.03593C66.0724 2.22007 66.3586 2.4182 66.6385 2.63758C66.8422 2.79633 67.0508 2.94673 67.2623 3.09487C67.5384 3.28829 67.8132 3.48327 68.0862 3.68091C68.1209 3.70597 68.1555 3.73103 68.1912 3.75685C68.2614 3.80768 68.3315 3.85851 68.4017 3.90936C68.5759 4.03551 68.7503 4.16137 68.9247 4.28726C68.9943 4.33755 69.0639 4.38784 69.1336 4.43813C69.168 4.46302 69.2025 4.48791 69.238 4.51356C70.178 5.19244 71.118 5.87132 72.058 6.5502C72.0925 6.5751 72.1269 6.60001 72.1625 6.62567C72.2319 6.6758 72.3013 6.72594 72.3707 6.77608C72.5481 6.90427 72.7256 7.03233 72.9033 7.16017C73.2977 7.44414 73.69 7.73022 74.0772 8.024C74.0073 8.1842 73.914 8.29636 73.7958 8.42437C73.7584 8.46518 73.721 8.50599 73.6825 8.54803C73.6442 8.58956 73.606 8.63109 73.5666 8.67387C73.4969 8.75114 73.4272 8.82851 73.3577 8.90597C72.9399 9.37016 72.5222 9.83435 72.1044 10.2985C72.0701 10.3367 72.0358 10.3749 72.0005 10.4142C71.9294 10.4931 71.8579 10.5717 71.7862 10.65C71.5764 10.8797 71.3798 11.1127 71.1992 11.3662C71.2318 11.3775 71.2644 11.3888 71.298 11.4005C71.4519 11.4681 71.5716 11.5536 71.7069 11.6534C71.9933 11.8621 72.2841 12.0635 72.5773 12.2627C72.6209 12.2923 72.6646 12.322 72.7096 12.3526C72.7977 12.4125 72.8859 12.4724 72.9741 12.5323C73.17 12.6654 73.3654 12.7991 73.5608 12.9328C73.5969 12.9575 73.6329 12.9822 73.6701 13.0077C74.0901 13.2952 74.5093 13.5836 74.9285 13.8723C74.9618 13.8952 74.9951 13.9181 75.0294 13.9417C75.0926 13.9852 75.1558 14.0287 75.219 14.0723C75.2759 14.1114 75.3329 14.1503 75.39 14.189C75.4668 14.2421 75.5414 14.2983 75.6159 14.3546C75.7377 14.4403 75.7377 14.4403 75.8495 14.4214C76.0239 14.3708 76.1858 14.2979 76.3505 14.2222C76.3868 14.2058 76.4231 14.1893 76.4606 14.1724C76.5391 14.1368 76.6175 14.1011 76.6959 14.0653C76.8629 13.989 77.0302 13.9133 77.1975 13.8375C77.2837 13.7985 77.3699 13.7594 77.4561 13.7203C77.8713 13.532 78.2878 13.3467 78.7046 13.162C78.8427 13.1008 78.9808 13.0395 79.1189 12.9782C79.1521 12.9634 79.1853 12.9487 79.2195 12.9335C79.5385 12.7919 79.8571 12.6492 80.1755 12.5064C80.2278 12.4829 80.2802 12.4594 80.3341 12.4353C80.624 12.3053 80.9138 12.175 81.2035 12.0444C81.3669 11.9708 81.5303 11.8973 81.6937 11.8239C81.774 11.7877 81.8543 11.7515 81.9346 11.7153C82.0465 11.6647 82.1586 11.6143 82.2707 11.564C82.3215 11.541 82.3215 11.541 82.3732 11.5175C82.6077 11.4126 82.6077 11.4126 82.7112 11.4126C82.4383 11.0444 82.1638 10.6782 81.8756 10.3218C81.6603 10.0554 81.4535 9.78384 81.2493 9.50892C81.066 9.26316 80.8759 9.02358 80.6834 8.7851C80.4705 8.52089 80.2666 8.25064 80.0653 7.97759C80.134 7.81794 80.2242 7.71441 80.347 7.59227C80.3849 7.55454 80.4227 7.51682 80.4616 7.47794C80.5013 7.4389 80.5409 7.39986 80.5817 7.35963C80.6202 7.32113 80.6588 7.28262 80.6985 7.24295C80.867 7.07562 81.0359 6.9111 81.2167 6.75709C81.4981 6.51499 81.7541 6.24542 82.0149 5.98156C82.6026 5.38681 82.6026 5.38681 82.8919 5.14058C83.1282 4.9293 83.3472 4.69838 83.5699 4.47294C84.1317 3.90421 84.1317 3.90421 84.3344 3.73168C84.614 3.49334 84.8669 3.22547 85.125 2.96432C85.7139 2.36836 85.7139 2.36836 86.0018 2.12331C86.2379 1.91266 86.4572 1.68313 86.68 1.4586C86.732 1.40639 86.7839 1.3542 86.8359 1.30202C86.962 1.17543 87.088 1.04869 87.2138 0.921875Z" fill="white"/>
<path d="M162.784 60.71C163.918 60.71 165.051 60.71 166.219 60.71C166.403 60.9551 166.587 61.2001 166.776 61.4527C166.878 61.5873 166.981 61.7218 167.084 61.8559C167.109 61.8887 167.134 61.9214 167.16 61.9551C167.347 62.2001 167.536 62.4447 167.724 62.6893C167.94 62.9699 168.155 63.2514 168.37 63.5327C168.496 63.6982 168.623 63.8635 168.749 64.0289C168.902 64.2284 169.054 64.4278 169.207 64.6273C169.469 64.9713 169.733 65.3149 169.997 65.658C170.09 65.7786 170.182 65.8996 170.275 66.0206C170.315 66.0736 170.315 66.0736 170.356 66.1277C170.409 66.1967 170.462 66.2658 170.515 66.3349C170.539 66.3667 170.563 66.3984 170.588 66.4311C170.609 66.4591 170.631 66.4871 170.653 66.516C170.736 66.624 170.822 66.7306 170.908 66.8373C170.908 64.8153 170.908 62.7933 170.908 60.71C171.964 60.71 173.021 60.71 174.11 60.71C174.11 64.6774 174.11 68.6449 174.11 72.7325C173.222 72.7325 172.334 72.7325 171.418 72.7325C171.219 72.4721 171.02 72.2117 170.815 71.9434C170.66 71.7422 170.505 71.541 170.351 71.3399C170.273 71.2394 170.196 71.1388 170.118 71.0382C170.08 70.9879 170.041 70.9376 170.002 70.8874C169.151 69.781 168.3 68.6747 167.449 67.5684C167.43 67.5435 167.411 67.5186 167.391 67.493C167.353 67.4426 167.314 67.3921 167.275 67.3417C167.18 67.2183 167.085 67.0948 166.99 66.9715C166.953 66.9234 166.916 66.8753 166.878 66.8257C166.859 66.8017 166.841 66.7777 166.822 66.7529C166.706 66.6024 166.59 66.4516 166.475 66.3006C166.448 66.2645 166.42 66.2284 166.392 66.1913C166.337 66.1199 166.283 66.0486 166.229 65.9772C166.204 65.9449 166.179 65.9125 166.154 65.8792C166.132 65.8502 166.11 65.8212 166.087 65.7914C166.037 65.7248 166.037 65.7248 165.987 65.6768C165.972 67.9899 165.956 70.3029 165.941 72.6861C164.899 72.6861 163.857 72.6861 162.784 72.6861C162.784 68.734 162.784 64.7818 162.784 60.71Z" fill="white"/>
<path d="M22.2097 61.9544C23.3575 63.0282 24.0355 64.5829 24.0982 66.1498C24.1582 68.0715 23.706 69.7706 22.4001 71.2248C21.8846 71.7659 21.2818 72.1523 20.6022 72.4536C20.5272 72.4872 20.5272 72.4872 20.4507 72.5215C18.9684 73.136 17.1816 73.0813 15.7067 72.481C15.1951 72.2529 14.7178 71.9798 14.2892 71.6181C14.2526 71.5877 14.216 71.5573 14.1783 71.526C12.9312 70.4515 12.2776 68.8761 12.154 67.2547C12.0551 65.4956 12.48 63.7841 13.6394 62.4271C13.6696 62.3901 13.6999 62.353 13.7311 62.3149C14.6847 61.1917 16.075 60.6061 17.5154 60.4456C19.2438 60.3218 20.9147 60.773 22.2097 61.9544ZM16.1939 64.2982C15.5406 65.1707 15.3856 66.3341 15.5342 67.392C15.6703 68.2417 16.0189 69.0277 16.703 69.5757C17.326 69.9788 18.0039 70.0922 18.7302 69.9631C19.4698 69.757 19.9525 69.2999 20.3237 68.6473C20.8443 67.7171 20.903 66.4659 20.6207 65.4502C20.3908 64.727 19.9642 64.0275 19.294 63.6418C18.1738 63.0995 17.0046 63.3475 16.1939 64.2982Z" fill="white"/>
<path d="M125.045 60.71C132.427 60.71 132.427 60.71 133.565 61.7932C134.14 62.4136 134.367 63.212 134.344 64.0431C134.299 64.8469 133.942 65.5081 133.354 66.0482C133.176 66.1977 132.989 66.3337 132.797 66.4659C132.841 66.4868 132.885 66.5077 132.93 66.5292C133.7 66.9097 134.313 67.4695 134.602 68.2992C134.695 68.6199 134.723 68.915 134.718 69.2482C134.717 69.2972 134.717 69.3463 134.716 69.3968C134.7 70.1823 134.424 70.9126 133.865 71.4792C131.59 73.5284 127.514 72.6861 125.045 72.6861C125.045 68.734 125.045 64.7818 125.045 60.71ZM128.155 63.1238C128.155 63.9356 128.155 64.7475 128.155 65.584C128.42 65.5859 128.684 65.5878 128.956 65.5898C129.038 65.5906 129.121 65.5915 129.205 65.5923C130.12 65.6029 130.12 65.6029 130.896 65.1695C131.196 64.8421 131.245 64.5703 131.234 64.1299C131.208 63.8321 131.115 63.6729 130.912 63.4603C130.517 63.1636 130.056 63.1163 129.579 63.1192C129.525 63.1193 129.525 63.1193 129.469 63.1194C129.335 63.1196 129.201 63.1203 129.066 63.1209C128.616 63.1223 128.616 63.1223 128.155 63.1238ZM128.155 67.6728C128.155 68.5307 128.155 69.3885 128.155 70.2723C128.481 70.2752 128.807 70.278 129.142 70.281C129.243 70.2823 129.345 70.2835 129.45 70.2849C130.085 70.2895 130.724 70.2928 131.208 69.8219C131.497 69.5021 131.523 69.1993 131.512 68.7818C131.486 68.4571 131.377 68.2818 131.15 68.0558C130.694 67.6844 130.091 67.6647 129.529 67.6683C129.494 67.6683 129.459 67.6684 129.422 67.6684C129.293 67.6687 129.164 67.6693 129.035 67.6699C128.599 67.6714 128.599 67.6714 128.155 67.6728Z" fill="white"/>
<path d="M112.605 60.71C119.003 60.71 119.003 60.71 119.765 60.974C119.8 60.9857 119.834 60.9975 119.869 61.0096C120.609 61.2755 121.218 61.7632 121.584 62.4619C121.946 63.2575 121.986 64.1324 121.7 64.9573C121.446 65.5787 120.959 66.1184 120.357 66.4195C120.497 66.5303 120.641 66.6137 120.798 66.698C121.518 67.1167 121.966 67.711 122.214 68.5084C122.393 69.3262 122.259 70.2027 121.842 70.9236C121.693 71.1464 121.522 71.3378 121.332 71.5256C121.289 71.5691 121.289 71.5691 121.245 71.6134C119.234 73.5219 114.202 72.6861 112.605 72.6861C112.605 68.734 112.605 64.7818 112.605 60.71ZM115.715 63.1238C115.715 63.9356 115.715 64.7475 115.715 65.584C115.972 65.5859 116.228 65.5878 116.493 65.5898C116.612 65.591 116.612 65.591 116.734 65.5923C117.652 65.5988 117.652 65.5988 118.447 65.1831C118.734 64.8694 118.809 64.5785 118.797 64.1584C118.763 63.8739 118.665 63.6557 118.458 63.4559C117.917 63.055 117.246 63.1063 116.609 63.1151C116.314 63.1179 116.019 63.1208 115.715 63.1238ZM115.715 67.6728C115.715 68.5307 115.715 69.3885 115.715 70.2723C116.041 70.2752 116.366 70.278 116.701 70.281C116.803 70.2823 116.905 70.2835 117.009 70.2849C117.646 70.2895 118.221 70.282 118.732 69.8545C118.989 69.5912 119.066 69.3411 119.08 68.9813C119.071 68.5945 118.96 68.3002 118.683 68.0268C118.096 67.5767 117.263 67.6666 116.568 67.6699C116.287 67.6709 116.005 67.6718 115.715 67.6728Z" fill="white"/>
<path d="M0.409912 60.71C7.47254 60.71 7.47254 60.71 8.864 61.9923C9.61912 62.7876 9.90352 63.8675 9.88631 64.943C9.82986 66.011 9.48611 66.9144 8.71894 67.6728C8.66805 67.7244 8.66805 67.7244 8.61613 67.7771C8.38048 68.0022 7.90287 68.4155 7.55846 68.4155C7.7865 68.6977 8.01792 68.9763 8.25475 69.2511C8.41975 69.4425 8.58284 69.6351 8.74215 69.8313C8.9459 70.0822 9.15606 70.3271 9.36681 70.572C9.5644 70.8017 9.75973 71.0333 9.95519 71.2649C10.0198 71.3413 10.0846 71.4176 10.1494 71.4939C10.3546 71.7355 10.5591 71.9778 10.7614 72.2219C10.7939 72.2612 10.8265 72.3004 10.86 72.3409C10.9454 72.4518 11.0154 72.5656 11.0863 72.6861C10.5892 72.7045 10.0922 72.7184 9.59481 72.727C9.36377 72.7311 9.13296 72.7366 8.90205 72.7456C7.28256 72.8071 7.28256 72.8071 6.92515 72.516C6.77742 72.3571 6.67354 72.1876 6.58319 71.991C6.51727 71.8561 6.42465 71.7505 6.32545 71.6388C6.12947 71.399 5.93429 71.1585 5.73908 70.9181C5.49293 70.6151 5.24616 70.3125 4.99779 70.0112C4.96392 69.97 4.93006 69.9289 4.89516 69.8864C4.86076 69.8451 4.82635 69.8038 4.7909 69.7612C4.70882 69.658 4.63233 69.5553 4.55699 69.4475C4.53556 69.4178 4.51413 69.3881 4.49205 69.3575C4.45053 69.2997 4.41009 69.2412 4.37098 69.1818C4.30565 69.0866 4.30565 69.0866 4.16986 68.9726C4.01668 68.9573 3.8635 68.9419 3.70567 68.9262C3.70567 70.1669 3.70567 71.4077 3.70567 72.6861C2.61807 72.6861 1.53047 72.6861 0.409912 72.6861C0.409912 68.734 0.409912 64.7818 0.409912 60.71ZM3.65925 63.3094C3.65925 64.3817 3.65925 65.454 3.65925 66.5588C5.02485 66.6416 5.02485 66.6416 6.21231 66.0946C6.57475 65.7178 6.65357 65.3161 6.64956 64.8093C6.63532 64.3949 6.50853 64.0682 6.21974 63.7653C5.49926 63.1582 4.54159 63.3094 3.65925 63.3094Z" fill="white"/>
<path d="M92.6448 60.71C99.5882 60.71 99.5882 60.71 100.815 61.7776C100.855 61.8086 100.855 61.8086 100.897 61.8402C101.582 62.3728 101.9 63.2314 102.047 64.0578C102.175 65.1703 102.021 66.2732 101.372 67.2086C100.937 67.7533 100.417 68.1491 99.7933 68.462C99.8276 68.5019 99.8619 68.5418 99.8972 68.5829C100.199 68.9341 100.499 69.2865 100.797 69.6402C100.862 69.7166 100.927 69.7929 100.992 69.8692C101.189 70.1016 101.385 70.3345 101.578 70.5711C101.782 70.8226 101.993 71.0685 102.205 71.3144C102.424 71.5691 102.641 71.8254 102.857 72.0827C102.878 72.1072 102.898 72.1317 102.92 72.157C102.979 72.2277 103.039 72.2988 103.098 72.3699C103.132 72.4107 103.166 72.4516 103.201 72.4937C103.275 72.5933 103.275 72.5933 103.275 72.6861C102.78 72.6969 102.285 72.7051 101.789 72.7102C101.559 72.7126 101.33 72.7158 101.1 72.7211C100.877 72.7262 100.655 72.7289 100.433 72.7301C100.349 72.731 100.264 72.7327 100.18 72.7352C99.5185 72.7541 99.5185 72.7541 99.2792 72.5855C99.1733 72.4693 99.0881 72.3545 99.0042 72.2219C98.96 72.166 98.9153 72.1104 98.8697 72.0556C98.8312 72.0058 98.7929 71.9558 98.7547 71.9057C98.5845 71.6857 98.4102 71.4702 98.2296 71.2587C98.0542 71.0533 97.8827 70.8455 97.7148 70.6339C97.3729 70.2049 97.0267 69.7788 96.676 69.357C96.5904 69.2511 96.5904 69.2511 96.528 69.1597C96.4704 69.0717 96.4704 69.0717 96.3583 68.9726C96.2204 68.9573 96.0826 68.9419 95.9405 68.9262C95.9405 70.1669 95.9405 71.4077 95.9405 72.6861C94.8529 72.6861 93.7653 72.6861 92.6448 72.6861C92.6448 68.734 92.6448 64.7818 92.6448 60.71ZM95.8477 63.3094C95.8477 64.3817 95.8477 65.454 95.8477 66.5588C97.2691 66.6396 97.2691 66.6396 98.4457 66.0616C98.7552 65.7507 98.8706 65.3338 98.8852 64.9022C98.866 64.4751 98.7308 64.0969 98.4472 63.7736C97.7373 63.1508 96.7179 63.3094 95.8477 63.3094Z" fill="white"/>
<path d="M40.2376 60.6631C41.509 60.6631 42.7804 60.6631 44.0903 60.6631C44.241 61.0247 44.3883 61.3855 44.5273 61.7514C44.5557 61.8257 44.5557 61.8257 44.5846 61.9015C44.6462 62.0631 44.7077 62.2247 44.7692 62.3864C44.8128 62.5008 44.8564 62.6152 44.9 62.7296C45.2162 63.5591 45.5314 64.3889 45.8465 65.2188C46.1394 65.9901 46.4336 66.7609 46.7281 67.5316C47.0623 68.4063 47.3955 69.2815 47.7276 70.157C47.8924 70.5913 48.0577 71.0255 48.2251 71.4588C48.254 71.5337 48.2828 71.6085 48.3117 71.6834C48.3641 71.8194 48.4169 71.9554 48.4698 72.0912C48.4927 72.1505 48.5156 72.2098 48.5384 72.2691C48.5581 72.3198 48.5778 72.3704 48.598 72.4225C48.6394 72.5464 48.6394 72.5464 48.6394 72.6856C47.5365 72.6856 46.4336 72.6856 45.2972 72.6856C45.0303 71.9284 45.0303 71.9284 44.9473 71.6928C44.925 71.6294 44.9026 71.5659 44.8802 71.5025C44.8623 71.4517 44.8623 71.4517 44.844 71.3998C44.76 71.1619 44.6737 70.9249 44.585 70.6887C44.5545 70.5968 44.5545 70.5968 44.5545 70.5039C42.2108 70.5269 42.2108 70.5269 39.8198 70.5504C39.5747 71.255 39.3296 71.9597 39.0771 72.6856C37.9588 72.6856 36.8406 72.6856 35.6885 72.6856C36.0613 71.6203 36.0613 71.6203 36.1969 71.2709C36.2126 71.2302 36.2282 71.1895 36.2444 71.1475C36.2777 71.0609 36.3111 70.9743 36.3445 70.8878C36.4365 70.6496 36.528 70.4112 36.6196 70.1728C36.6386 70.1235 36.6575 70.0741 36.6771 70.0233C36.88 69.4955 37.0807 68.9669 37.2812 68.4383C37.5926 67.6179 37.9051 66.7978 38.2183 65.9781C38.5352 65.1486 38.8516 64.3189 39.167 63.4889C39.192 63.4231 39.192 63.4231 39.2175 63.3559C39.5585 62.4587 39.8979 61.5608 40.2376 60.6631ZM42.1407 63.5875C42.1291 63.6204 42.1174 63.6532 42.1054 63.6871C41.9351 64.1672 41.7647 64.6472 41.5943 65.1273C41.5833 65.1585 41.5722 65.1896 41.5609 65.2217C41.5385 65.2847 41.5161 65.3477 41.4938 65.4107C41.4376 65.569 41.3814 65.7273 41.3253 65.8857C41.2199 66.1828 41.1144 66.4799 41.0086 66.7768C40.9606 66.9115 40.9127 67.0462 40.8648 67.1808C40.8419 67.2451 40.819 67.3093 40.7961 67.3735C40.7645 67.4619 40.733 67.5504 40.7015 67.6389C40.6836 67.6892 40.6657 67.7395 40.6472 67.7914C40.6064 67.8919 40.6064 67.8919 40.6089 67.9509C41.6352 67.9509 42.6616 67.9509 43.719 67.9509C43.6625 67.6969 43.6133 67.4773 43.5278 67.2377C43.5085 67.1834 43.4893 67.1291 43.4695 67.0732C43.4488 67.0156 43.4281 66.958 43.4067 66.8987C43.3849 66.8372 43.363 66.7757 43.3411 66.7142C43.2836 66.5527 43.2259 66.3912 43.168 66.2298C43.1105 66.0691 43.0533 65.9083 42.996 65.7475C42.8969 65.4693 42.7974 65.1912 42.6975 64.9133C42.6285 64.7213 42.5603 64.5291 42.4924 64.3368C42.4589 64.2429 42.4255 64.149 42.3921 64.0551C42.3772 64.0125 42.3623 63.9699 42.3469 63.9259C42.3332 63.8876 42.3195 63.8494 42.3053 63.8099C42.2936 63.7768 42.2819 63.7436 42.2698 63.7095C42.2386 63.6246 42.2386 63.6246 42.1407 63.5875Z" fill="white"/>
<path d="M152.061 60.6631C153.333 60.6631 154.604 60.6631 155.914 60.6631C156.062 61.0547 156.211 61.4462 156.364 61.8497C156.716 62.7775 157.068 63.705 157.423 64.6319C157.757 65.5057 158.089 66.3799 158.421 67.2546C158.762 68.1553 159.104 69.0557 159.448 69.9556C159.468 70.009 159.488 70.0624 159.509 70.1174C159.702 70.6221 159.895 71.1266 160.091 71.63C160.111 71.6825 160.111 71.6825 160.132 71.7361C160.193 71.8919 160.254 72.0476 160.315 72.2031C160.335 72.2544 160.355 72.3058 160.376 72.3587C160.401 72.424 160.401 72.424 160.427 72.4907C160.463 72.5928 160.463 72.5928 160.463 72.6856C159.36 72.6856 158.257 72.6856 157.121 72.6856C156.813 71.9922 156.583 71.2663 156.332 70.5504C154.769 70.535 153.207 70.5197 151.597 70.5039C151.551 70.6724 151.505 70.8409 151.458 71.0146C151.415 71.146 151.371 71.2762 151.324 71.4064C151.312 71.4405 151.3 71.4746 151.287 71.5097C151.262 71.5806 151.237 71.6514 151.212 71.7223C151.173 71.831 151.135 71.9398 151.096 72.0486C151.072 72.1179 151.047 72.1872 151.022 72.2564C151.011 72.2889 150.999 72.3213 150.987 72.3548C150.906 72.5819 150.906 72.5819 150.854 72.6856C149.751 72.6856 148.649 72.6856 147.512 72.6856C147.545 72.5214 147.577 72.3914 147.635 72.2382C147.651 72.1964 147.667 72.1545 147.683 72.1114C147.7 72.0662 147.717 72.0209 147.735 71.9743C147.753 71.9264 147.771 71.8785 147.79 71.8291C147.85 71.6706 147.91 71.5123 147.971 71.354C148.013 71.2425 148.055 71.131 148.097 71.0195C148.206 70.7325 148.315 70.4456 148.424 70.1587C148.502 69.9546 148.579 69.7505 148.657 69.5463C149.096 68.388 149.537 67.2306 149.98 66.0733C150.234 65.4065 150.488 64.7392 150.741 64.0717C151.05 63.2596 151.36 62.4482 151.673 61.6379C151.69 61.5933 151.707 61.5487 151.725 61.5028C151.773 61.3786 151.821 61.2544 151.869 61.1302C151.883 61.0934 151.897 61.0565 151.912 61.0186C152.009 60.7667 152.009 60.7667 152.061 60.6631ZM153.964 63.5875C153.801 63.9676 153.655 64.351 153.52 64.7418C153.5 64.7973 153.481 64.8528 153.461 64.91C153.41 65.0566 153.359 65.2032 153.308 65.3498C153.217 65.6104 153.126 65.8709 153.035 66.1315C153.016 66.1874 152.996 66.2433 152.976 66.3009C152.835 66.7039 152.691 67.1054 152.541 67.5051C152.526 67.5437 152.512 67.5824 152.497 67.6222C152.485 67.6556 152.472 67.6891 152.459 67.7235C152.426 67.8185 152.426 67.8185 152.433 67.9509C153.459 67.9509 154.485 67.9509 155.543 67.9509C155.434 67.5861 155.434 67.5861 155.315 67.226C155.299 67.1803 155.283 67.1346 155.266 67.0875C155.249 67.0395 155.232 66.9915 155.215 66.942C155.197 66.8907 155.179 66.8394 155.16 66.7866C155.102 66.6215 155.044 66.4564 154.986 66.2914C154.956 66.2075 154.956 66.2075 154.926 66.1219C154.627 65.2747 154.325 64.429 154.011 63.5875C153.996 63.5875 153.98 63.5875 153.964 63.5875Z" fill="white"/>
<path d="M81.7827 60.6631C83.0541 60.6631 84.3256 60.6631 85.6355 60.6631C86.0298 61.6858 86.422 62.7092 86.8109 63.7339C87.1038 64.5055 87.3978 65.2767 87.6925 66.0477C88.0718 67.0402 88.4492 68.0334 88.8255 69.0271C89.0346 69.5791 89.2444 70.1309 89.4557 70.6821C89.4905 70.7728 89.5252 70.8635 89.56 70.9543C89.5827 71.0135 89.6054 71.0728 89.6281 71.1321C89.6392 71.161 89.6503 71.19 89.6617 71.2198C89.7376 71.4179 89.8138 71.6159 89.8899 71.8138C89.929 71.9159 89.9682 72.0179 90.0072 72.1199C90.0344 72.1901 90.0344 72.1901 90.062 72.2618C90.0783 72.3043 90.0946 72.3468 90.1113 72.3906C90.1255 72.4277 90.1398 72.4647 90.1544 72.5028C90.1846 72.5928 90.1846 72.5928 90.1846 72.6856C89.0817 72.6856 87.9787 72.6856 86.8424 72.6856C86.7294 72.403 86.6183 72.1223 86.5167 71.8358C86.4986 71.7847 86.4986 71.7847 86.4801 71.7326C86.4549 71.6617 86.4298 71.5907 86.4047 71.5198C86.3663 71.411 86.3275 71.3024 86.2886 71.1938C86.2641 71.1244 86.2395 71.0551 86.215 70.9857C86.2034 70.9534 86.1918 70.921 86.1799 70.8877C86.1327 70.7533 86.0997 70.6475 86.0997 70.5039C84.5219 70.5039 82.9441 70.5039 81.3185 70.5039C81.2955 70.6418 81.2955 70.6418 81.2721 70.7825C81.2526 70.8501 81.2312 70.9173 81.2079 70.9838C81.1951 71.0208 81.1822 71.0578 81.169 71.0959C81.1551 71.1349 81.1413 71.174 81.127 71.2142C81.1128 71.2549 81.0986 71.2956 81.0839 71.3376C81.0539 71.4231 81.0237 71.5087 80.9935 71.5942C80.9471 71.7256 80.901 71.8572 80.8551 71.9887C80.8258 72.0719 80.7966 72.1551 80.7673 72.2383C80.7535 72.2778 80.7396 72.3173 80.7254 72.358C80.6276 72.6339 80.6276 72.6339 80.5758 72.6856C80.4719 72.69 80.3678 72.6911 80.2637 72.6909C80.2311 72.6909 80.1985 72.6909 80.1649 72.6909C80.0567 72.6909 79.9484 72.6905 79.8402 72.6902C79.7653 72.6901 79.6905 72.69 79.6156 72.69C79.4182 72.6898 79.2207 72.6893 79.0233 72.6888C78.822 72.6884 78.6207 72.6881 78.4194 72.6879C78.0242 72.6874 77.6289 72.6866 77.2336 72.6856C77.3308 72.3424 77.4481 72.01 77.5756 71.6769C77.5954 71.6248 77.6152 71.5727 77.6356 71.519C77.6895 71.3774 77.7434 71.2359 77.7975 71.0945C77.8549 70.944 77.9121 70.7935 77.9694 70.643C78.0994 70.3013 78.2297 69.9598 78.3601 69.6182C78.4138 69.4776 78.4674 69.3371 78.5211 69.1965C78.6814 68.7765 78.8418 68.3566 79.0023 67.9367C79.2959 67.1683 79.588 66.3992 79.8795 65.6299C80.203 64.7764 80.5271 63.9231 80.8525 63.0702C80.8934 62.9629 80.9344 62.8556 80.9753 62.7482C81.0324 62.5984 81.0896 62.4486 81.1468 62.2988C81.1627 62.257 81.1787 62.2153 81.1951 62.1722C81.3878 61.6679 81.586 61.1659 81.7827 60.6631ZM83.6859 63.5411C83.6742 63.5739 83.6626 63.6068 83.6506 63.6406C83.4802 64.1207 83.3099 64.6008 83.1395 65.0809C83.1229 65.1276 83.1229 65.1276 83.106 65.1753C83.0837 65.2383 83.0613 65.3013 83.039 65.3643C82.9828 65.5226 82.9266 65.681 82.8705 65.8394C82.7653 66.1361 82.6599 66.4328 82.5538 66.7292C82.5058 66.8634 82.4578 66.9976 82.4099 67.1319C82.3871 67.1958 82.3642 67.2597 82.3412 67.3236C82.3096 67.4117 82.2781 67.4998 82.2467 67.588C82.2288 67.638 82.2108 67.6881 82.1923 67.7397C82.1493 67.852 82.1493 67.852 82.1541 67.9509C83.1804 67.9509 84.2067 67.9509 85.2642 67.9509C85.1576 67.5527 85.1576 67.5527 85.0312 67.1643C85.0142 67.1165 84.9971 67.0687 84.9795 67.0194C84.9613 66.9693 84.9432 66.9191 84.9245 66.8675C84.9052 66.8136 84.8859 66.7597 84.866 66.7042C84.8045 66.5327 84.7428 66.3613 84.681 66.1899C84.6408 66.078 84.6007 65.9661 84.5605 65.8541C84.4803 65.6306 84.4 65.407 84.3196 65.1835C84.1229 64.6364 83.9277 64.0887 83.7323 63.5411C83.717 63.5411 83.7017 63.5411 83.6859 63.5411Z" fill="white"/>
<path d="M137.346 60.71C139.981 60.71 142.616 60.71 145.331 60.71C145.748 63.3094 145.748 63.3094 145.748 63.4487C144.048 63.4487 142.348 63.4487 140.596 63.4487C140.596 64.0921 140.596 64.7354 140.596 65.3983C142.02 65.3983 143.445 65.3983 144.913 65.3983C144.913 66.2102 144.913 67.022 144.913 67.8585C143.488 67.8585 142.064 67.8585 140.596 67.8585C140.596 68.5478 140.596 69.2372 140.596 69.9474C142.311 69.9474 144.027 69.9474 145.795 69.9474C145.67 70.8624 145.525 71.7745 145.377 72.6861C142.727 72.6861 140.077 72.6861 137.346 72.6861C137.346 68.734 137.346 64.7818 137.346 60.71Z" fill="white"/>
<path d="M75.1447 61.4521C75.1912 61.4985 75.1912 61.4985 75.1967 61.6292C75.1966 61.6877 75.1965 61.7461 75.1964 61.8064C75.1964 61.8385 75.1965 61.8707 75.1965 61.9038C75.1964 62.0105 75.1961 62.1173 75.1957 62.224C75.1956 62.2979 75.1955 62.3717 75.1955 62.4455C75.1953 62.6402 75.1949 62.8348 75.1944 63.0295C75.1939 63.228 75.1937 63.4265 75.1934 63.625C75.1929 64.0148 75.1921 64.4045 75.1912 64.7943C75.0016 64.7228 74.868 64.6373 74.7096 64.51C73.814 63.8195 72.7007 63.4596 71.5705 63.541C70.9037 63.6281 70.289 63.9379 69.8443 64.4462C69.39 65.0381 69.1547 65.7231 69.1103 66.4654C69.1083 66.4964 69.1064 66.5274 69.1045 66.5593C69.0779 67.4532 69.3448 68.4162 69.9592 69.0843C70.5728 69.6516 71.352 69.8869 72.1777 69.8672C73.2235 69.7911 74.1719 69.4126 75.0321 68.8232C75.2237 68.6935 75.2237 68.6935 75.3768 68.6935C75.3483 69.3102 75.284 69.9224 75.2156 70.5357C75.1968 70.7057 75.1788 70.8758 75.1609 71.0459C75.1489 71.1542 75.1369 71.2625 75.1248 71.3708C75.1196 71.4215 75.1143 71.4723 75.109 71.5246C75.1035 71.5715 75.0981 71.6183 75.0925 71.6666C75.088 71.7077 75.0836 71.7489 75.0789 71.7913C75.0473 71.9143 75.0111 71.9574 74.9127 72.0357C73.5228 72.8505 71.6155 73.1412 70.049 72.7592C68.5435 72.3622 67.3439 71.5339 66.5396 70.182C65.9349 69.1226 65.711 67.9605 65.7101 66.7526C65.71 66.7162 65.71 66.6799 65.71 66.6424C65.7121 65.0868 66.1568 63.6354 67.1607 62.4269C67.1917 62.3888 67.2228 62.3506 67.2548 62.3112C68.1677 61.2321 69.5734 60.6296 70.9583 60.4947C72.4713 60.3882 73.8335 60.7044 75.1447 61.4521Z" fill="white"/>
<path d="M24.8264 60.7095C26.0672 60.7095 27.308 60.7095 28.5864 60.7095C29.2757 62.0881 29.965 63.4668 30.6752 64.8872C30.8356 64.6894 30.8356 64.6894 30.9569 64.4795C30.9735 64.4464 30.9901 64.4134 31.0072 64.3793C31.0247 64.3438 31.0422 64.3082 31.0602 64.2716C31.0792 64.2336 31.0982 64.1956 31.1177 64.1564C31.18 64.0315 31.2419 63.9063 31.3039 63.7811C31.3472 63.6941 31.3905 63.6072 31.4339 63.5202C31.5477 63.2917 31.6613 63.0631 31.7747 62.8344C31.9567 62.4676 32.1392 62.1011 32.3217 61.7346C32.3855 61.6063 32.4491 61.478 32.5128 61.3497C32.5516 61.2716 32.5904 61.1935 32.6292 61.1154C32.647 61.0795 32.6648 61.0436 32.6831 61.0066C32.8052 60.7612 32.8052 60.7612 32.8569 60.7095C32.9671 60.7051 33.0759 60.7037 33.186 60.7042C33.2205 60.7042 33.2549 60.7042 33.2903 60.7042C33.4046 60.7042 33.5189 60.7046 33.6332 60.705C33.7122 60.705 33.7912 60.7051 33.8703 60.7052C34.0787 60.7053 34.2871 60.7058 34.4955 60.7063C34.708 60.7068 34.9205 60.707 35.133 60.7072C35.5503 60.7077 35.9675 60.7085 36.3848 60.7095C36.3172 60.8824 36.2406 61.0419 36.1501 61.2041C36.1219 61.2549 36.0937 61.3057 36.0646 61.358C36.034 61.4126 36.0034 61.4672 35.9728 61.5218C35.9412 61.5785 35.9095 61.6353 35.8779 61.692C35.6699 62.0644 35.4594 62.4354 35.2469 62.8054C35.0686 63.116 34.8938 63.4284 34.7195 63.7412C34.5034 64.1288 34.2829 64.5134 34.058 64.8959C33.8285 65.2864 33.6081 65.6807 33.3933 66.0794C33.1431 66.5414 32.8766 66.9938 32.6092 67.446C32.5837 67.4901 32.5582 67.5341 32.532 67.5795C32.5131 67.6084 32.4942 67.6374 32.4748 67.6671C32.3047 67.942 32.2663 68.1553 32.2693 68.4751C32.2688 68.5209 32.2683 68.5667 32.2678 68.6138C32.2665 68.7638 32.2668 68.9137 32.2671 69.0637C32.2665 69.1682 32.2658 69.2727 32.265 69.3772C32.2631 69.6512 32.2626 69.9253 32.2624 70.1993C32.2619 70.5287 32.2597 70.858 32.2578 71.1874C32.255 71.6868 32.2545 72.1862 32.2535 72.6856C31.1812 72.6856 30.1089 72.6856 29.0041 72.6856C29.0096 72.2016 29.0096 72.2016 29.0152 71.7077C29.0162 71.5011 29.017 71.2944 29.0171 71.0877C29.0174 70.7609 29.0182 70.4342 29.0231 70.1075C29.097 68.4949 29.097 68.4949 28.4335 67.0795C28.2857 66.8866 28.1765 66.6701 28.0613 66.4568C27.8207 66.0307 27.5779 65.6059 27.3348 65.1813C27.0885 64.751 26.8453 64.3191 26.6038 63.8861C26.4004 63.5222 26.1942 63.16 25.9869 62.7983C25.7404 62.3681 25.4954 61.937 25.2529 61.5044C25.2259 61.4564 25.199 61.4084 25.1712 61.359C25.1336 61.2919 25.1336 61.2919 25.0953 61.2234C25.0736 61.1845 25.0518 61.1456 25.0294 61.1055C24.9587 60.9751 24.8928 60.8422 24.8264 60.7095Z" fill="white"/>
<path d="M50.9141 60.71C51.9863 60.71 53.0586 60.71 54.1634 60.71C54.1634 63.697 54.1634 66.6841 54.1634 69.7617C55.8791 69.7617 57.5947 69.7617 59.3623 69.7617C59.2159 70.7378 59.0673 71.7137 58.8982 72.6861C56.2634 72.6861 53.6287 72.6861 50.9141 72.6861C50.9141 68.734 50.9141 64.7818 50.9141 60.71Z" fill="white"/>
<path d="M105.781 60.71C106.854 60.71 107.926 60.71 109.031 60.71C109.031 64.6621 109.031 68.6142 109.031 72.6861C107.958 72.6861 106.886 72.6861 105.781 72.6861C105.781 68.734 105.781 64.7818 105.781 60.71Z" fill="white"/>
<path d="M179.124 60.8953C179.477 61.1696 179.721 61.6057 179.808 62.0447C179.883 62.709 179.767 63.3268 179.356 63.8661C179.042 64.2121 178.621 64.4523 178.152 64.4807C177.573 64.4946 177.124 64.4362 176.667 64.0506C176.266 63.6679 176.045 63.2096 176.003 62.6549C175.988 61.9888 176.16 61.4825 176.608 60.9883C177.31 60.3098 178.366 60.3392 179.124 60.8953ZM176.756 61.2203C176.371 61.6648 176.263 62.092 176.276 62.6739C176.318 63.1241 176.52 63.5661 176.863 63.8665C177.281 64.1765 177.674 64.2949 178.195 64.2375C178.651 64.1441 178.984 63.8866 179.258 63.5151C179.555 63.0424 179.619 62.5424 179.511 61.9943C179.353 61.4656 179.041 61.1218 178.567 60.8489C177.938 60.5709 177.231 60.7597 176.756 61.2203Z" fill="white"/>
<path d="M177.174 61.3594C178.361 61.3594 178.361 61.3594 178.659 61.6205C178.775 61.8149 178.813 61.9698 178.799 62.1949C178.722 62.4179 178.594 62.5428 178.427 62.7055C178.443 62.7261 178.458 62.7467 178.474 62.768C178.544 62.8611 178.613 62.9545 178.683 63.0479C178.707 63.0803 178.731 63.1127 178.756 63.1461C178.78 63.1773 178.803 63.2084 178.826 63.2404C178.848 63.2691 178.869 63.2978 178.891 63.3274C178.938 63.4018 178.938 63.4018 178.938 63.4947C178.724 63.5374 178.547 63.549 178.335 63.4947C178.165 63.355 178.049 63.1725 177.928 62.9915C177.838 62.8343 177.838 62.8343 177.685 62.7984C177.685 63.0281 177.685 63.2579 177.685 63.4947C177.516 63.4947 177.348 63.4947 177.174 63.4947C177.174 62.79 177.174 62.0854 177.174 61.3594ZM177.685 61.7771C177.685 61.9763 177.685 62.1754 177.685 62.3806C177.944 62.4038 177.944 62.4038 178.175 62.3052C178.255 62.1957 178.255 62.1957 178.236 62.0499C178.205 61.9119 178.205 61.9119 178.102 61.8236C178 61.8022 178 61.8022 177.888 61.7946C177.821 61.7888 177.754 61.7831 177.685 61.7771Z" fill="white"/>
</g>
</g>
</g>
<defs>
<clipPath id="clip0_5_2743">
<rect width="179.41" height="72" fill="white" transform="translate(0.409912 0.919922)"/>
</clipPath>
<clipPath id="clip1_5_2743">
<rect width="179.41" height="72" fill="white" transform="translate(0.409912 0.919922)"/>
</clipPath>
<clipPath id="clip2_5_2743">
<rect width="179.41" height="71.9961" fill="white" transform="translate(0.409912 0.921875)"/>
</clipPath>
</defs>
</svg>
