<svg width="208" height="73" viewBox="0 0 208 73" fill="none" xmlns="http://www.w3.org/2000/svg">
<g clip-path="url(#clip0_5_2764)">
<g clip-path="url(#clip1_5_2764)">
<g clip-path="url(#clip2_5_2764)">
<path fill-rule="evenodd" clip-rule="evenodd" d="M78.7691 59.0915L78.7679 59.0929L78.7661 59.0915H78.7691ZM78.7691 59.0915L99.6367 36.2428L80.7574 15.3203H95.0217L106.86 28.316L118.729 15.3203H133.033L114.101 36.2538L134.907 59.0915H120.248L106.866 44.2576L93.4558 59.0915H78.7691ZM7.56453 31.1256C9.62843 31.1256 10.6727 32.3048 11.0841 33.9298H13.5539C13.2554 30.8807 10.7512 29.1278 7.56453 29.1085C3.34039 29.1085 0.810059 32.4603 0.810059 36.4959C0.810059 40.5315 3.34039 43.8888 7.56453 43.8888C10.9865 43.8888 13.3765 41.5525 13.5801 38.18H11.1695C10.9672 40.2316 9.75503 41.8744 7.56453 41.8744C4.54571 41.8744 3.27711 39.2065 3.27711 36.4973C3.27711 33.7881 4.54434 31.1256 7.56453 31.1256ZM17.093 39.0263C17.093 40.632 17.9598 42.0506 19.8324 42.0506C21.1382 42.0506 21.9362 41.4768 22.3215 40.3555H24.457C23.9658 42.5817 22.0697 43.8297 19.8324 43.8297C16.6293 43.8297 14.8364 41.5911 14.8364 38.4566C14.8364 35.5452 16.738 33.0603 19.7747 33.0603C22.9943 33.0603 24.9757 35.9662 24.5959 39.0263H17.093ZM22.3477 37.5431C22.2624 36.1258 21.295 34.8393 19.776 34.8393C18.2556 34.8393 17.1467 36.024 17.093 37.5431H22.3477ZM28.6137 29.4415H26.3599V43.5545H28.6137V29.4415ZM32.5281 39.0263C32.5281 40.632 33.395 42.0506 35.2759 42.0506C36.5761 42.0506 37.3645 41.4768 37.758 40.3555H39.8949C39.3954 42.5817 37.5076 43.8297 35.2759 43.8297C32.0727 43.8297 30.277 41.5911 30.277 38.4566C30.277 35.5452 32.1704 33.0603 35.2098 33.0603C38.4309 33.0603 40.4053 35.9662 40.0297 39.0263H32.5281ZM37.7842 37.5431C37.7002 36.1258 36.7302 34.8393 35.2098 34.8393C33.6907 34.8393 32.5804 36.024 32.5267 37.5431H37.7828H37.7842ZM43.9758 29.4415H41.7289V43.5558H43.8616V42.1552H43.9015C44.5771 43.4953 46.0535 43.8324 47.4404 43.8324C50.462 43.8324 51.8448 41.2401 51.8448 38.4938C51.8448 35.5163 50.2858 33.063 47.0593 33.063C45.9145 33.063 44.6321 33.6739 44.0198 34.6646H43.9758V29.4415ZM43.9015 38.458C43.9015 36.2854 44.866 34.8393 46.7676 34.8393C48.6196 34.8393 49.5951 36.5964 49.5951 38.458C49.5951 40.2316 48.8191 42.0506 46.7676 42.0506C44.9458 42.0506 43.9015 40.5136 43.9015 38.458ZM53.8427 33.3341H55.9588V35.3058H55.9932C56.2506 34.2174 57.599 33.0603 58.979 33.0603C59.3638 33.0603 59.5407 33.0829 59.6875 33.1017C59.7355 33.1079 59.7802 33.1136 59.828 33.118V35.2893C59.7692 35.2816 59.7097 35.2734 59.6497 35.2651C59.3867 35.229 59.1148 35.1916 58.8593 35.1916C57.3196 35.1916 56.0937 36.4396 56.0937 38.6865V43.5531H53.8427V33.3341ZM63.8388 29.4415H61.5811V31.577H63.8388V29.4415ZM63.8388 33.3354H61.5811V43.5558H63.8388V33.3354ZM65.7527 33.334H67.4506V30.2725H69.7029V33.334H71.7338V35.0113H69.7029V40.4668C69.7029 41.3956 69.7719 41.873 70.7889 41.873C71.1039 41.873 71.4218 41.873 71.7338 41.7919V43.5352C71.5556 43.5481 71.3804 43.5667 71.2065 43.5852C70.8975 43.6181 70.5897 43.6508 70.2729 43.6508C67.9228 43.6508 67.4866 42.7386 67.4506 41.0448V35.0127H65.7527V33.3354V33.334ZM75.5424 33.334H73.0766L76.9446 43.5118L76.6926 44.2974C76.4082 45.1698 76.1586 45.7257 75.1093 45.7257C74.8345 45.7257 74.5585 45.677 74.2825 45.6283C74.2015 45.614 74.1211 45.5998 74.0401 45.5867V47.4882C74.5543 47.5625 75.0721 47.6024 75.6 47.6024C77.8301 47.6024 78.4247 46.1046 79.1099 44.3787C79.1459 44.288 79.1825 44.1966 79.2191 44.1048L83.1927 33.334H80.8414L78.2501 40.9622H78.2105L75.5424 33.334ZM140.716 33.9298C140.294 32.3048 139.255 31.1256 137.192 31.1256C134.174 31.1256 132.905 33.7881 132.905 36.4973C132.905 39.2065 134.175 41.8744 137.192 41.8744C139.386 41.8744 140.595 40.2316 140.792 38.18H143.205C143.003 41.5525 140.616 43.8888 137.194 43.8888C132.969 43.8888 130.434 40.5315 130.434 36.4959C130.434 32.4603 132.969 29.1085 137.194 29.1085C140.381 29.1278 142.885 30.8807 143.183 33.9298H140.718H140.716ZM147.351 33.3341H145.233V43.5531H147.489V38.6865C147.489 36.4396 148.721 35.1916 150.26 35.1916C150.506 35.1916 150.76 35.226 151.015 35.2606C151.087 35.2704 151.159 35.2802 151.231 35.2893V33.118C151.181 33.1135 151.135 33.1077 151.086 33.1014C150.939 33.0826 150.763 33.0603 150.377 33.0603C148.998 33.0603 147.652 34.2174 147.392 35.3058H147.351V33.3341ZM162.047 43.5545H159.841V42.1276H159.799C159.243 43.1485 158.023 43.831 156.891 43.831C154.225 43.831 153.08 42.4854 153.08 39.816V33.3354H155.341V39.6014C155.341 41.397 156.068 42.052 157.291 42.052C159.166 42.052 159.799 40.8466 159.799 39.2657V33.3368H162.047V43.5545ZM166.952 29.4415H164.698V31.577H166.952V29.4415ZM166.952 33.3354H164.698V43.5558H166.952V33.3354ZM171.486 40.2701C171.599 41.5745 172.587 42.0492 173.787 42.0492C174.638 42.0492 176.128 41.873 176.06 40.7048C176.009 39.6988 174.812 39.4472 173.444 39.1597C173.207 39.1099 172.965 39.0589 172.722 39.0028C171.07 38.6561 169.449 38.0617 169.449 35.984C169.449 33.744 171.855 33.0588 173.71 33.0588C175.807 33.0588 177.7 33.927 177.989 36.1932H175.631C175.435 35.1309 174.545 34.8378 173.554 34.8378C172.903 34.8378 171.698 35.0002 171.698 35.8877C171.698 36.8331 172.916 37.0847 174.31 37.3727L174.311 37.3728C174.544 37.421 174.782 37.4702 175.019 37.5237C176.656 37.9007 178.316 38.491 178.316 40.5095C178.316 42.9352 175.863 43.8282 173.758 43.8282C171.181 43.8282 169.267 42.6793 169.224 40.2687H171.486V40.2701ZM184.638 42.0506C182.765 42.0506 181.885 40.632 181.885 39.0263H181.887H189.408C189.778 35.9662 187.805 33.0603 184.577 33.0603C181.542 33.0603 179.646 35.5452 179.646 38.4566C179.646 41.5911 181.439 43.8297 184.638 43.8297C186.876 43.8297 188.764 42.5817 189.265 40.3555H187.128C186.733 41.4768 185.95 42.0506 184.638 42.0506ZM184.576 34.8393C186.1 34.8393 187.073 36.1258 187.149 37.5431H181.885C181.952 36.024 183.052 34.8393 184.576 34.8393ZM193.318 40.2701C193.437 41.5745 194.419 42.0492 195.624 42.0492C196.474 42.0492 197.958 41.873 197.901 40.7048C197.853 39.6994 196.653 39.4475 195.283 39.1602C195.045 39.1102 194.801 39.0591 194.558 39.0028C192.9 38.6561 191.277 38.0617 191.277 35.984C191.277 33.744 193.694 33.0588 195.549 33.0588C197.644 33.0588 199.539 33.927 199.821 36.1932H197.465C197.267 35.1309 196.38 34.8378 195.394 34.8378C194.737 34.8378 193.533 35.0002 193.533 35.8877C193.533 36.8319 194.751 37.084 196.139 37.3716C196.374 37.4201 196.612 37.4697 196.852 37.5237C198.493 37.9007 200.152 38.491 200.152 40.5095C200.152 42.9352 197.698 43.8282 195.597 43.8282C193.025 43.8282 191.103 42.6793 191.069 40.2687H193.321L193.318 40.2701ZM207.2 35.8108C207.2 34.2903 206.001 33.0603 204.496 33.0603H204.486C202.983 33.0603 201.758 34.2615 201.758 35.8108C201.758 37.3614 202.973 38.5778 204.486 38.5778C206.001 38.5778 207.2 37.3325 207.2 35.8108ZM202.289 35.8121C202.289 34.5311 203.279 33.4951 204.486 33.4951H204.495C205.719 33.4951 206.702 34.5325 206.702 35.8259C206.702 37.1192 205.719 38.1553 204.495 38.1484C203.279 38.1484 202.289 37.0945 202.289 35.8121ZM203.482 37.4151H203.973V36.0956H204.306C204.705 36.0956 204.901 36.2387 204.972 36.6322C205.032 37.034 205.104 37.3119 205.181 37.4151H205.691C205.647 37.3133 205.569 37.1344 205.502 36.6597C205.439 36.207 205.256 35.9621 204.992 35.9098V35.8864C205.317 35.7956 205.589 35.5438 205.589 35.1393C205.589 34.849 205.485 34.6426 205.304 34.5064C205.121 34.3729 204.813 34.2739 204.35 34.2739C203.98 34.2739 203.739 34.3069 203.482 34.344V37.4151ZM204.321 35.7158H203.975V34.677C203.987 34.6757 203.999 34.6742 204.011 34.6727C204.089 34.6634 204.184 34.6522 204.321 34.6522C204.878 34.6522 205.071 34.9219 205.071 35.1902C205.071 35.5699 204.733 35.7158 204.321 35.7158Z" fill="white"/>
</g>
</g>
</g>
<defs>
<clipPath id="clip0_5_2764">
<rect width="206.39" height="72" fill="white" transform="translate(0.810059 0.919922)"/>
</clipPath>
<clipPath id="clip1_5_2764">
<rect width="206.39" height="72" fill="white" transform="translate(0.810059 0.919922)"/>
</clipPath>
<clipPath id="clip2_5_2764">
<rect width="206.39" height="59.9971" fill="white" transform="translate(0.810059 6.9209)"/>
</clipPath>
</defs>
</svg>
