<svg width="207" height="73" viewBox="0 0 207 73" fill="none" xmlns="http://www.w3.org/2000/svg">
<g clip-path="url(#clip0_5_2768)">
<g clip-path="url(#clip1_5_2768)">
<g clip-path="url(#clip2_5_2768)">
<path fill-rule="evenodd" clip-rule="evenodd" d="M17.0925 42.8714C15.5776 40.5942 13.7091 39.7604 11.8984 38.9569L11.8798 38.9486C10.9235 38.5223 10.019 38.1192 9.17816 37.5191C8.54801 37.0678 7.97557 36.3261 7.37152 35.539C6.56936 34.4934 5.6571 33.3073 4.39399 32.5189L4.19311 32.3923L9.90052 28.12C11.2008 28.6608 12.2093 29.9776 13.0996 31.1402L13.1116 31.156C13.6947 31.9179 14.2441 32.6358 14.7975 33.0294C14.8401 33.0597 15.524 33.4999 15.524 33.4999L13.6196 34.9584C13.3967 34.8277 13.1794 34.6888 12.9675 34.536C12.5258 34.2204 12.0859 33.6535 11.6306 33.0668C11.1073 32.3923 10.5636 31.6916 9.97348 31.3163L8.12413 32.7156C8.85867 33.2015 9.40537 33.9243 9.90772 34.5886C10.3144 35.1264 10.6921 35.6257 11.1168 35.9299C11.9501 36.5256 12.8687 36.9333 13.8104 37.3511C15.6286 38.1582 17.5328 39.0032 19.0738 41.3139C19.682 40.8378 20.3095 40.3494 20.8997 39.8967C19.3581 37.6011 17.4595 36.7572 15.6459 35.951L15.5363 35.9023L19.0285 33.1669C18.13 32.7693 17.2769 32.384 16.483 31.8158C15.8198 31.3411 15.268 30.5637 14.686 29.7395L14.6812 29.7328C13.5129 28.0888 12.1918 26.2299 9.38593 25.5195C9.26347 25.7961 8.88921 26.4152 7.84904 27.1183L0.39418 32.9413C2.85828 33.7063 4.11038 35.4672 5.22069 37.0288L5.2326 37.0455C5.81308 37.8582 6.36315 38.6284 7.00416 39.0862C7.82372 39.6733 8.71876 40.0709 9.66605 40.4916L9.66797 40.4924C11.5172 41.3125 13.4229 42.1628 14.9874 44.5033C15.1965 44.3382 15.418 44.1717 15.6547 43.9983C15.7557 43.9243 16.1758 43.5934 16.7719 43.1239L17.0925 42.8714ZM13.0897 46.1159C11.5761 43.8242 9.70523 42.99 7.89212 42.1816L7.87766 42.1751C6.91453 41.75 6.00367 41.3455 5.15748 40.7387C4.21772 40.0659 3.27654 38.7188 2.43584 37.4943L0.199951 39.2279C0.817747 39.7563 1.29103 40.3603 1.71344 40.9066L1.72487 40.9211C2.13342 41.4428 2.51972 41.9359 2.95459 42.2495C3.69917 42.78 4.55966 43.1734 5.47296 43.5911L5.53304 43.6186L5.53876 43.6211C7.5421 44.5313 9.80267 45.5585 11.3629 48.305C11.3832 48.2642 11.409 48.2219 11.4349 48.1792L11.447 48.1593L11.4619 48.1344C11.6147 47.8083 12.0233 47.1395 13.0897 46.1159ZM32.1011 45.9866C30.1789 45.9866 28.1852 45.699 26.4488 45.1734L25.7086 41.6854H26.5836C27.2124 43.4768 29.2543 45.0055 32.3226 45.0055C35.1667 45.0055 37.3833 43.931 37.3833 42.0431C37.3833 39.9546 34.9654 39.1384 32.4037 38.2737C29.5176 37.2994 26.4488 36.2635 26.4488 33.2771C26.4488 30.1936 29.8473 28.5934 34.3549 28.5934C35.5022 28.5934 36.6503 28.7175 37.7824 28.84C38.1438 28.879 38.5035 28.9179 38.8611 28.9525L39.4528 32.0112H38.5887C38.1828 30.3381 36.4972 29.5744 33.8376 29.5744C31.0293 29.5744 29.4043 30.6711 29.4043 32.4171C29.4043 34.5206 31.9546 35.3549 34.6403 36.2336C37.6273 37.2107 40.7819 38.2428 40.7819 41.1364C40.7819 44.2405 36.4601 45.9866 32.1011 45.9866ZM47.0477 45.9851C48.192 45.9707 48.616 45.9742 49.1948 45.9788C49.5501 45.9818 49.9635 45.9851 50.6375 45.9851V29.1726C48.7911 29.196 45.4173 29.196 43.6809 29.1726V30.2073C45.6374 30.2307 47.0423 30.2541 47.0423 31.9396L47.0477 45.9851ZM83.1909 45.9851H81.8452L73.2884 32.0786C72.3075 30.7549 71.5905 30.1949 69.1894 30.1949V29.1726C70.3798 29.189 72.1215 29.1825 73.5854 29.1771C74.2226 29.1748 74.8075 29.1726 75.2713 29.1726L83.5899 42.8013L90.2934 31.5062C90.9462 30.1043 89.4636 30.1486 88.1839 30.1868C87.8941 30.1955 87.6145 30.2039 87.3721 30.1949V29.1726C88.7911 29.196 92.4113 29.196 93.5392 29.1726L83.1909 45.9851ZM61.679 29.1726C58.183 29.2208 57.1098 29.2208 54.6964 29.1726V30.2073C57.5418 30.2789 58.1196 30.3752 58.1196 32.351L58.1225 45.9851C60.0001 45.9523 65.0718 45.9656 69.1678 45.9765C70.8915 45.9811 72.4425 45.9851 73.5098 45.9851L74.9875 42.0954H74.1176C72.77 44.5646 71.2623 44.6137 68.0321 44.7188L68.0285 44.7188L67.7831 44.7269L67.5983 44.7331H61.679V29.1726ZM176.75 39.5348C176.278 38.2882 174.708 37.5782 172.113 37.5782C171.906 37.5659 168.325 37.5782 168.325 37.5782L168.31 44.7303H174.271C174.423 44.7251 174.572 44.7202 174.716 44.7155C177.937 44.6098 179.411 44.5614 180.757 42.0954L181.661 42.0926L180.18 45.9851C179.114 45.9851 177.562 45.9811 175.835 45.9765C171.73 45.9656 166.643 45.9522 164.766 45.9851L164.793 32.351C164.793 30.3766 164.217 30.2802 161.37 30.2073V29.174C163.784 29.2221 179.059 29.1726 179.059 29.1726L179.636 32.2988H178.794C178.32 31.0535 176.753 30.3435 174.159 30.3435L168.325 30.3518V36.4514L177.017 36.4499L177.592 39.5348H176.75ZM107.183 37.5782C109.777 37.5782 111.346 38.2882 111.82 39.5348H112.66L112.084 36.4499L103.392 36.4514V30.3518L109.227 30.3435C111.821 30.3435 113.388 31.0535 113.864 32.2988H114.706L114.13 29.1726C114.13 29.1726 98.8526 29.2221 96.4383 29.174V30.2073C99.2846 30.2802 99.8611 30.3766 99.8611 32.351L99.8341 45.9851C101.711 45.9522 106.799 45.9656 110.904 45.9765C112.631 45.9811 114.184 45.9851 115.251 45.9851L116.729 42.0926L115.825 42.0954C114.479 44.5614 113.005 44.6098 109.786 44.7155L109.785 44.7155L109.575 44.7224L109.34 44.7303H103.378L103.392 37.5782C103.392 37.5782 106.974 37.5659 107.183 37.5782ZM200.599 45.9851L197.055 39.6559L188.47 39.6586L186.383 43.7699C185.832 44.9089 187.462 44.9203 188.769 44.9294C188.992 44.9309 189.206 44.9324 189.398 44.9394V45.9851C187.973 45.9617 184.533 45.9617 183.4 45.9851L190.541 32.5973C192.06 29.8744 187.821 30.1881 187.821 30.1881V29.1933L194.765 29.1726L204.272 45.9824C204.272 45.9824 202.132 45.9851 200.599 45.9851ZM192.506 31.5282L189.066 38.5304L196.412 38.5289L192.506 31.5282ZM134.025 33.2895C134.025 34.997 132.284 36.6481 127.825 36.6481C127.208 36.6481 126.446 36.6013 125.902 36.5312V30.1097L125.969 30.1024C126.595 30.0334 127.202 29.9666 128.078 29.9666C132.356 29.9666 134.025 31.2256 134.025 33.2895ZM158.469 41.0442C158.385 38.1799 155.307 37.1531 152.404 36.1846C149.78 35.3094 147.298 34.4817 147.298 32.3882C147.298 30.6573 148.896 29.5662 151.65 29.5662C154.262 29.5662 155.918 30.3243 156.316 31.9851H157.165L156.584 28.9497C156.24 28.9158 155.894 28.8779 155.546 28.8398C154.427 28.7174 153.294 28.5934 152.159 28.5934C147.736 28.5934 144.399 30.1826 144.399 33.2427C144.399 36.2118 147.396 37.2387 150.223 38.2072C152.725 39.0642 155.092 39.8754 155.133 41.9454C155.174 43.9749 151.478 45.4403 147.114 45.4816C143.605 45.516 140.614 44.3864 137.717 41.5451L132.647 37.2012C135.534 36.8503 137.797 35.1635 137.797 33.1477C137.797 31.4636 136.273 28.9497 129.419 28.9497C128.743 28.9497 127.748 28.9517 126.629 28.954C123.912 28.9594 120.461 28.9663 119.048 28.9497V29.9666C120.97 29.9914 122.347 30.0148 122.347 31.6741L122.331 45.5036C124.144 45.4802 125.939 45.5036 125.883 45.5036L125.902 37.6759H129.202L133.855 41.6276C134.106 41.8402 134.356 42.0669 134.615 42.3016C136.604 44.1026 139.125 46.3861 146.365 46.559C151.57 46.6814 158.592 45.2862 158.469 41.0442ZM203.808 30.0313V30.7398H204.542C204.821 30.7453 205.013 30.678 205.013 30.3642C205.013 30.0313 204.655 30.0313 204.413 30.0313H203.808ZM205.497 30.4358C205.497 30.8967 205.262 31.0852 204.821 31.1155L205.427 32.1708H204.858L204.299 31.1155H203.808V32.1708H203.317V29.6735H204.528C204.741 29.6735 205.02 29.6776 205.208 29.7877C205.434 29.9335 205.497 30.1757 205.497 30.4358ZM206.59 30.9091C206.59 32.1887 205.548 33.2316 204.274 33.2316C202.989 33.2316 201.952 32.1887 201.952 30.9091C201.952 29.6364 202.989 28.5934 204.274 28.5934C205.548 28.5934 206.59 29.6364 206.59 30.9091ZM202.389 30.9091C202.389 31.9589 203.226 32.7955 204.274 32.7955C205.316 32.7955 206.154 31.9589 206.154 30.9091C206.154 29.8661 205.316 29.031 204.274 29.031C203.226 29.031 202.389 29.8661 202.389 30.9091Z" fill="white"/>
</g>
</g>
</g>
<defs>
<clipPath id="clip0_5_2768">
<rect width="206.39" height="72" fill="white" transform="translate(0.199951 0.919922)"/>
</clipPath>
<clipPath id="clip1_5_2768">
<rect width="206.39" height="72" fill="white" transform="translate(0.199951 0.919922)"/>
</clipPath>
<clipPath id="clip2_5_2768">
<rect width="206.39" height="59.9971" fill="white" transform="translate(0.199951 6.9209)"/>
</clipPath>
</defs>
</svg>
