<svg width="41" height="40" viewBox="0 0 41 40" fill="none" xmlns="http://www.w3.org/2000/svg">
<g clip-path="url(#clip0_1310_1537)">
<g clip-path="url(#clip1_1310_1537)">
<path d="M24.8152 17.7507C24.8152 16.1739 24.2333 14.7826 22.9727 13.6696C21.8091 12.5565 20.3545 12 18.6091 12C16.8636 12 15.4091 12.5565 14.2455 13.6696C13.0818 14.7826 12.5 16.1739 12.5 17.7507C12.5 19.3275 13.0818 20.7188 14.3424 21.8319C15.5061 22.9449 17.0576 23.5014 18.7061 23.5014C20.4515 23.5014 21.9061 22.9449 23.0697 21.8319C24.2333 20.7188 24.8152 19.3275 24.8152 17.7507ZM18.6091 22.2029C17.2515 22.2029 16.1848 21.7391 15.2152 20.9043C14.3424 20.0696 13.8576 18.9565 13.8576 17.7507C13.8576 16.5449 14.3424 15.4319 15.2152 14.5971C16.1848 13.7623 17.2515 13.2986 18.6091 13.2986C19.9667 13.2986 21.0333 13.7623 22.003 14.5971C22.9727 15.4319 23.3606 16.5449 23.3606 17.7507C23.3606 18.9565 22.8758 20.0696 21.9061 20.9043C21.0333 21.7391 19.9667 22.2029 18.6091 22.2029Z" fill="white"/>
<path d="M28.2083 26.5624L24.0386 22.6667C23.7477 22.3884 23.3598 22.3884 23.0689 22.6667C22.972 22.7595 22.875 22.945 22.875 23.1305C22.875 23.316 22.972 23.5015 23.0689 23.5942L27.2386 27.4899C27.3356 27.5826 27.5295 27.6754 27.7235 27.6754C27.9174 27.6754 28.1114 27.5826 28.2083 27.4899C28.3053 27.3971 28.4023 27.2116 28.4023 27.0261C28.4023 26.8406 28.4023 26.6551 28.2083 26.5624Z" fill="white"/>
</g>
</g>
<defs>
<clipPath id="clip0_1310_1537">
<rect width="16" height="16" fill="white" transform="translate(12.5 12)"/>
</clipPath>
<clipPath id="clip1_1310_1537">
<rect width="16" height="16" fill="white" transform="translate(12.5 12)"/>
</clipPath>
</defs>
</svg>
