<svg width="247" height="101" viewBox="0 0 247 101" fill="none" xmlns="http://www.w3.org/2000/svg">
<path d="M7.25806 88.4542H9.43187V76.9848H7.25806V75.5977H13.324C16.2224 75.5977 19.2658 75.7633 19.2658 79.4277C19.2658 81.4566 18.0857 82.823 16.0361 83.0093V83.0507C17.0299 83.1542 17.5474 83.589 17.858 84.1894C18.1892 84.8105 18.3341 85.5558 18.6447 86.3632L19.2451 88.4542H20.9013V89.862H17.7338L16.7814 86.6944C16.0154 84.148 15.767 83.6304 13.0756 83.6304H11.3779V88.4542H13.5518V89.862H7.25806V88.4542ZM11.3572 82.2433H12.9514C15.1045 82.2433 17.2162 82.2433 17.2162 79.4277C17.2162 76.9848 14.856 76.9848 12.9514 76.9848H11.3572V82.2433Z" fill="white"/>
<path d="M26.8017 79.6758C30.0313 79.6758 32.0188 81.6219 32.0188 84.8722C32.0188 88.1226 30.0313 90.0687 26.8017 90.0687C23.572 90.0687 21.5017 88.1226 21.5017 84.8722C21.5017 81.6219 23.572 79.6758 26.8017 79.6758ZM26.8017 88.6816C29.0583 88.6816 30.0934 86.9425 30.0934 84.8929C30.0934 82.8433 29.0376 81.1043 26.8017 81.1043C24.5657 81.1043 23.4271 82.8433 23.4271 84.8929C23.4271 86.9425 24.5657 88.6816 26.8017 88.6816Z" fill="white"/>
<path d="M44.399 81.2912H43.3018L39.2233 90.7939C38.4987 92.4915 38.0225 93.6716 35.9936 93.6716C35.5382 93.6716 35.0827 93.6095 34.6272 93.5473V92.2017C34.9585 92.2224 35.3104 92.2845 35.6831 92.2845C37.1944 92.2845 37.2565 91.0423 37.8569 89.8622L33.9854 81.3119H32.8882V79.9248H37.8569V81.3119H35.9315L38.7885 87.9783L41.6041 81.3119H39.6788V79.9248H44.3783L44.399 81.2912Z" fill="white"/>
<path d="M52.3697 87.7915H52.3283C51.8935 89.365 50.5893 90.0689 48.9951 90.0689C47.0077 90.0689 45.0823 89.22 45.0823 86.9841C45.0823 83.9615 48.0428 83.7752 50.4443 83.7752H52.3697V83.1748C52.3697 81.5806 51.5416 81.0631 49.9682 81.0631C48.6225 81.0631 47.5045 81.3529 47.3803 82.7607H45.4549C45.5791 80.4627 47.5873 79.6553 49.7404 79.6553C52.1006 79.6553 54.1709 80.1521 54.1709 82.74V88.4333H55.9099V89.8411H52.3697V87.7915ZM49.2022 88.6818C51.3967 88.6818 52.3697 87.0876 52.3697 85.183H50.8584C49.5748 85.183 46.9869 85.183 46.9869 87.0048C47.0076 88.3091 48.1463 88.6818 49.2022 88.6818Z" fill="white"/>
<path d="M57.1521 88.4542H58.8704V76.9848H57.1521V75.5977H60.6716V88.4749H62.3899V89.862H57.1521V88.4542Z" fill="white"/>
<path d="M82.803 80.6908H81.1467C80.8983 78.1029 79.3663 76.7572 76.8405 76.7572C73.5694 76.7572 71.6441 78.7033 71.6441 82.7197C71.6441 86.1564 73.3831 88.6821 76.8405 88.6821C78.9522 88.6821 80.8155 87.3571 80.8155 85.0177H82.8651C82.8651 88.6407 80.0081 90.0692 76.8405 90.0692C72.0788 90.0692 69.5945 87.295 69.5945 82.7197C69.5945 78.1443 72.0788 75.3701 76.8405 75.3701C78.1241 75.3701 80.2772 75.9705 81.1053 77.3576H81.1467V75.5979H82.803V80.6908Z" fill="white"/>
<path d="M91.6432 87.7915H91.6017C91.167 89.365 89.8627 90.0689 88.2686 90.0689C86.2811 90.0689 84.3557 89.22 84.3557 86.9841C84.3557 83.9615 87.3162 83.7752 89.7178 83.7752H91.6432V83.1748C91.6432 81.5806 90.815 81.0631 89.2416 81.0631C87.8959 81.0631 86.778 81.3529 86.6537 82.7607H84.7284C84.8526 80.4627 86.8608 79.6553 89.0139 79.6553C91.374 79.6553 93.4443 80.1521 93.4443 82.74V88.4333H95.1834V89.8411H91.6432V87.7915ZM88.4963 88.6818C90.6908 88.6818 91.6639 87.0876 91.6639 85.183H90.1525C88.869 85.183 86.3018 85.183 86.3018 87.0048C86.2811 88.3091 87.4197 88.6818 88.4963 88.6818Z" fill="white"/>
<path d="M96.0945 88.4538H97.8128V81.2906H96.0945V79.9035H99.614V81.9324H99.6554C99.9659 80.4211 101.208 79.6758 102.719 79.6758C103.051 79.6758 103.278 79.6965 103.527 79.7172V81.1871C103.237 81.1457 102.864 81.0836 102.45 81.0836C99.9452 81.0836 99.614 83.7336 99.614 85.7624V88.4745H101.664V89.8823H96.0945V88.4538Z" fill="white"/>
<path d="M104.686 88.4544H106.404V81.2912H104.686V79.9041H108.206V88.4544H109.924V89.8622H104.686V88.4544ZM108.206 77.6267H106.156V75.5771H108.206V77.6267Z" fill="white"/>
<path d="M111.249 88.4542H112.988V76.9848H111.249V75.5977H114.789V81.7257H114.831C115.39 80.4421 116.922 79.6968 118.288 79.6968C121.373 79.6968 123.195 81.705 123.195 84.8933C123.195 88.0815 121.456 90.0897 118.288 90.0897C116.901 90.0897 115.328 89.303 114.831 87.8331H114.789V89.862H111.249V88.4542ZM118.288 88.6819C120.193 88.6819 121.269 87.1292 121.269 84.8933C121.269 82.8851 120.213 81.1046 118.288 81.1046C115.866 81.1046 114.789 82.8851 114.789 84.8933C114.789 87.1292 115.907 88.6819 118.288 88.6819Z" fill="white"/>
<path d="M123.94 88.4542H125.679V76.9848H123.94V75.5977H127.48V81.7257H127.522C128.081 80.4421 129.613 79.6968 130.958 79.6968C134.043 79.6968 135.865 81.705 135.865 84.8933C135.865 88.0815 134.126 90.0897 130.958 90.0897C129.571 90.0897 127.998 89.303 127.522 87.8331H127.48V89.862H123.94V88.4542ZM130.979 88.6819C132.884 88.6819 133.96 87.1292 133.96 84.8933C133.96 82.8851 132.904 81.1046 130.979 81.1046C128.557 81.1046 127.48 82.8851 127.48 84.8933C127.48 87.1292 128.598 88.6819 130.979 88.6819Z" fill="white"/>
<path d="M139.281 85.3898C139.281 87.6878 140.564 88.6816 142.904 88.6816C144.043 88.6816 145.616 88.0605 145.719 86.7562H147.376C147.314 89.1991 144.746 90.0687 142.655 90.0687C139.426 90.0687 137.355 88.1226 137.355 84.8722C137.355 81.6219 139.426 79.6758 142.655 79.6758C146.196 79.6758 147.438 82.1808 147.459 85.3691L139.281 85.3898ZM145.657 83.982C145.554 82.1601 144.457 81.0836 142.51 81.0836C140.792 81.0836 139.26 82.1601 139.26 83.982H145.657Z" fill="white"/>
<path d="M156.34 87.7915H156.299C155.864 89.365 154.559 90.0689 152.965 90.0689C150.978 90.0689 149.052 89.22 149.052 86.9841C149.052 83.9615 152.013 83.7752 154.415 83.7752H156.34V83.1748C156.34 81.5806 155.512 81.0631 153.938 81.0631C152.593 81.0631 151.475 81.3529 151.351 82.7607H149.425C149.549 80.4627 151.558 79.6553 153.711 79.6553C156.071 79.6553 158.141 80.1521 158.141 82.74V88.4333H159.88V89.8411H156.34V87.7915ZM153.193 88.6818C155.388 88.6818 156.361 87.0876 156.361 85.183H154.849C153.566 85.183 150.978 85.183 150.978 87.0048C150.978 88.3091 152.117 88.6818 153.193 88.6818Z" fill="white"/>
<path d="M160.791 88.4536H162.51V81.2904H160.791V79.9033H164.311V81.7252H164.352C164.828 80.4623 166.215 79.6963 167.685 79.6963C170.17 79.6963 171.225 80.9385 171.225 83.3193V88.4743H172.944V89.8821H167.706V88.4743H169.424V83.692C169.424 82.0978 168.886 81.1041 167.126 81.1041C165.201 81.1041 164.29 82.4498 164.29 84.2302V88.4743H166.008V89.8821H160.771L160.791 88.4536Z" fill="white"/>
<path d="M192.963 80.6699H191.328C191.162 78.1855 189.713 76.757 187.208 76.757C183.937 76.757 182.012 78.7031 182.012 82.7195C182.012 86.1562 183.751 88.6819 187.208 88.6819C189.837 88.6819 191.411 86.7565 191.39 84.2308H188.968V82.823H195.096V84.2308H193.17V89.862H191.39V87.8331H191.349C190.52 89.1374 188.781 90.0897 187.229 90.0897C182.467 90.0897 179.983 87.3155 179.983 82.7402C179.983 78.1648 182.467 75.3906 187.229 75.3906C188.678 75.3906 190.562 76.0738 191.286 77.3988H191.328V75.6184H192.984L192.963 80.6699Z" fill="white"/>
<path d="M196.172 88.4538H197.891V81.2906H196.172V79.9035H199.692V81.9324H199.733C200.044 80.4211 201.286 79.6758 202.797 79.6758C203.129 79.6758 203.356 79.6965 203.605 79.7172V81.1871C203.315 81.1457 202.942 81.0836 202.528 81.0836C200.023 81.0836 199.692 83.7336 199.692 85.7624V88.4745H201.741V89.8823H196.172V88.4538Z" fill="white"/>
<path d="M209.65 79.6758C212.88 79.6758 214.867 81.6219 214.867 84.8722C214.867 88.1226 212.88 90.0687 209.65 90.0687C206.42 90.0687 204.35 88.1226 204.35 84.8722C204.35 81.6219 206.42 79.6758 209.65 79.6758ZM209.65 88.6816C211.907 88.6816 212.942 86.9425 212.942 84.8929C212.942 82.8433 211.886 81.1043 209.65 81.1043C207.414 81.1043 206.275 82.8433 206.275 84.8929C206.275 86.9425 207.414 88.6816 209.65 88.6816Z" fill="white"/>
<path d="M226.026 88.4544H227.744V89.8622H224.225V88.1439H224.184C223.79 89.3653 222.362 90.09 220.933 90.09C218.366 90.09 217.31 88.8064 217.31 86.4669V81.3119H215.592V79.9248H219.111V86.0943C219.111 87.6884 219.608 88.6822 221.409 88.6822C223.355 88.6822 224.246 87.3779 224.246 85.556V81.3119H222.527V79.9248H226.047V88.4544H226.026Z" fill="white"/>
<path d="M228.2 92.056H229.939V81.2904H228.2V79.9033H231.74V81.8908H231.782C232.278 80.6072 233.583 79.6963 235.239 79.6963C238.324 79.6963 240.146 81.7045 240.146 84.8927C240.146 88.081 238.407 90.0892 235.239 90.0892C233.686 90.0892 232.444 89.3646 231.782 87.9568H231.74V92.0767H233.479V93.4638H228.2V92.056ZM235.218 88.6814C237.123 88.6814 238.199 87.1287 238.199 84.8927C238.199 82.8845 237.144 81.1041 235.218 81.1041C232.796 81.1041 231.719 82.8845 231.719 84.8927C231.719 87.1287 232.837 88.6814 235.218 88.6814Z" fill="white"/>
<path d="M150.274 35.7232C150.274 50.4016 138.37 62.3058 123.692 62.3058C109.013 62.3058 97.1296 50.4016 97.1296 35.7232C97.1296 21.0448 109.013 9.14062 123.692 9.14062C138.37 9.14062 150.274 21.0448 150.274 35.7232Z" fill="#001791"/>
<path d="M123.691 9.14101C138.37 9.14101 150.274 21.0452 150.274 35.7236C150.274 50.402 138.37 62.3062 123.691 62.3062C109.013 62.3062 97.1088 50.402 97.1088 35.7236C97.1088 21.0452 109.013 9.14101 123.691 9.14101ZM123.691 8.16797C108.495 8.16797 96.1357 20.5276 96.1357 35.7236C96.1357 50.9196 108.495 63.2792 123.691 63.2792C138.887 63.2792 151.247 50.9196 151.247 35.7236C151.247 20.5276 138.887 8.16797 123.691 8.16797Z" fill="#D4BA73"/>
<path d="M130.275 25.0824L132.635 27.2355L129.343 30.2581L125.99 27.1734L128.598 24.7718L123.712 20.2793L118.826 24.7718L121.435 27.1734L118.081 30.2581L114.789 27.2355L117.149 25.0824L109.51 21.4594L110.483 31.4796H137.004L137.956 21.4594L130.275 25.0824Z" fill="#D4BA73"/>
<path d="M110.586 33.0732L110.897 36.2201H120.814V47.5032L115.514 44.9774L117.646 43.0107L111.249 39.9673L111.932 47.0891L123.691 52.6789L135.451 47.0891L136.134 39.9673L129.737 43.0107L131.869 44.9774L126.569 47.5032V36.2201H136.486L136.796 33.0732H110.586Z" fill="#D4BA73"/>
<path d="M146.899 56.6543C148.183 56.6543 149.156 57.6273 149.156 58.9109C149.156 60.1945 148.224 61.2296 146.899 61.2296C145.574 61.2296 144.643 60.1945 144.643 58.9109C144.664 57.6273 145.595 56.6543 146.899 56.6543ZM146.899 61.064C148.121 61.064 148.97 60.091 148.97 58.9109C148.97 57.7308 148.121 56.8199 146.899 56.8199C145.699 56.8199 144.829 57.7308 144.829 58.9109C144.85 60.1117 145.678 61.064 146.899 61.064ZM146.092 57.793H147.086C147.562 57.793 147.81 58.0414 147.81 58.4347C147.81 58.7867 147.583 59.0351 147.231 59.0972L147.831 60.0289H147.624L147.024 59.1179H146.258V60.0289H146.071V57.793H146.092ZM146.278 57.9586V58.9523H147.086C147.458 58.9523 147.645 58.7246 147.645 58.4347C147.645 58.1449 147.458 57.9379 147.086 57.9379H146.278V57.9586Z" fill="#D4BA73"/>
</svg>
