<svg width="13" height="13" viewBox="0 0 13 13" fill="none" xmlns="http://www.w3.org/2000/svg">
<path d="M12.3538 11.508C12.1639 11.3213 11.8624 11.3267 11.6797 11.5219C11.4434 11.7749 11.0251 11.7745 10.7888 11.5223C10.7169 11.4451 10.6386 11.3776 10.5558 11.3174C10.5794 9.65858 10.9015 8.99738 11.5793 7.61788C11.7003 7.37137 11.8314 7.1052 11.9718 6.8097L12.1321 6.47293C12.1935 6.3437 12.1969 6.19363 12.1414 6.0617C12.086 5.92977 11.977 5.82947 11.8437 5.78742L10.0222 5.21263L10.0226 2.91926C10.0226 2.78926 9.97239 2.66427 9.88326 2.57207C9.79376 2.48026 9.67242 2.42818 9.54622 2.42818L6.97647 2.42779V1.19064C6.97647 0.919451 6.76339 0.699951 6.50012 0.699951C6.23686 0.699951 6.02377 0.919837 6.02377 1.19064V2.42779L3.4544 2.42741C3.3282 2.42741 3.20686 2.4791 3.11736 2.5713C3.02823 2.6635 2.97768 2.78848 2.97768 2.91849V5.21186L1.15616 5.78627C1.02284 5.82831 0.913864 5.92861 0.858439 6.06016C0.803015 6.19209 0.806384 6.34215 0.867801 6.47138L1.02771 6.80816C1.16814 7.10365 1.29884 7.36945 1.41942 7.61556C2.09687 8.99583 2.41931 9.65742 2.44253 11.3178C2.36014 11.3776 2.28225 11.4447 2.21072 11.5215C1.97479 11.7753 1.55574 11.7753 1.32018 11.5215C1.13743 11.3259 0.835969 11.3205 0.646478 11.5076C0.456611 11.6955 0.45062 12.0064 0.632622 12.202C0.932214 12.5229 1.33442 12.7 1.76545 12.7C2.19649 12.7 2.59869 12.5229 2.89828 12.2016C3.13421 11.9485 3.55289 11.9481 3.78882 12.202C4.08841 12.5229 4.49061 12.7 4.92165 12.7C5.35269 12.7 5.75526 12.5229 6.05448 12.202C6.29078 11.9489 6.70909 11.9493 6.94539 12.2016C7.24498 12.5229 7.64718 12.7 8.07822 12.7C8.50888 12.7 8.91146 12.5229 9.21068 12.2016C9.44735 11.9481 9.86528 11.9481 10.1012 12.202C10.4012 12.5229 10.8034 12.7 11.234 12.7C11.6647 12.7 12.0673 12.5229 12.3669 12.202C12.5492 12.0068 12.5436 11.6959 12.3538 11.508ZM3.93038 3.40957L6.49937 3.40995L9.06949 3.41034L9.06912 4.91212L6.63906 4.14522C6.63307 4.14329 6.62745 4.14522 6.62146 4.14329C6.56828 4.12863 6.5136 4.12169 6.45855 4.1267C6.44882 4.12747 6.43983 4.13056 6.43009 4.1321C6.4065 4.13557 6.38328 4.13789 6.36006 4.14522L3.93 4.91135L3.93038 3.40957ZM4.47601 11.5223C4.18728 11.2125 3.80193 11.0404 3.38812 11.0285C3.32745 9.33261 2.93611 8.5306 2.26951 7.17309C2.17552 6.98137 2.07516 6.77768 1.96917 6.55664L6.02302 5.27821L6.02227 11.1079C5.77736 11.1886 5.55117 11.324 5.36654 11.5219C5.13099 11.7757 4.71194 11.7753 4.47601 11.5223ZM8.52311 11.5223C8.28644 11.7753 7.86851 11.7749 7.63258 11.5219C7.44758 11.324 7.22101 11.1882 6.97535 11.1076L6.9761 5.27821L11.0299 6.55741C10.9236 6.77845 10.8232 6.98252 10.7289 7.17425C10.0623 8.53137 9.67092 9.33299 9.60988 11.0285C9.19682 11.0408 8.81184 11.2125 8.52311 11.5223Z" fill="black"/>
</svg>
